<?xml version="1.0" encoding="utf-8"?>
<!-- Generator: Adobe Illustrator 27.5.0, SVG Export Plug-In . SVG Version: 6.00 Build 0)  -->
<svg version="1.1" xmlns="http://www.w3.org/2000/svg" xmlns:xlink="http://www.w3.org/1999/xlink" x="0px" y="0px"
	 viewBox="0 0 3710 3710" style="enable-background:new 0 0 3710 3710;" xml:space="preserve">
<g id="Background">
	<g>
		<g>
			<rect style="fill:#FFFFFF;" width="3710" height="3710"/>
		</g>
	</g>
</g>
<g id="Illustration">
	<g>
		<linearGradient id="SVGID_1_" gradientUnits="userSpaceOnUse" x1="3387.0273" y1="3549.3057" x2="1384.3372" y2="1387.6716">
			<stop  offset="0" style="stop-color:#DAE3FE"/>
			<stop  offset="1" style="stop-color:#E9EFFD"/>
		</linearGradient>
		<path style="fill:url(#SVGID_1_);" d="M3108.755,2317.176c-275.369,642.837-1002.255,918.952-1571.781,871.874
			c-155.504-12.854-468.381-38.717-712.678-269.452c-469.156-443.111-396.901-1369.336,52.215-1914.646
			c57.837-70.224,458.176-540.723,1082.028-534.425c456.751,4.611,777.34,262.301,816.323,294.404
			c49.245,40.555,157.86,136.927,255.749,289.814C3260.615,1413.976,3280.833,1915.466,3108.755,2317.176z"/>
		<g>
			<g>
				<path style="fill:#BDD0FB;" d="M809.037,471.391c-42.976,232.791-238.713,1597.897,986.984,2014.927
					c0,0,356.18-864.94-954.733-2026.395C829.821,449.762,811.844,456.182,809.037,471.391z"/>
				<path style="opacity:0.43;fill:#FFFFFF;" d="M911.327,685.361c15.888,73.976,33.258,147.527,51.256,220.952
					c18.031,73.408,36.895,146.606,56.597,219.572c39.4,145.932,82.011,290.999,128.993,434.65
					c47.083,143.594,98.303,285.915,157.096,425.156c29.176,69.705,60.849,138.376,95.08,205.758
					c34.323,67.317,71.32,133.396,113.412,196.311c2.487,3.717,7.464,4.678,11.117,2.148c3.653-2.532,4.597-7.597,2.11-11.314
					l-0.023-0.035l-0.02-0.03c-41.912-61.951-78.978-127.339-113.431-194.069c-34.366-66.8-66.251-135-95.677-204.31
					c-59.292-138.44-111.134-280.198-158.866-423.305c-47.634-143.168-90.933-287.845-131.037-433.429
					c-20.054-72.793-39.273-145.828-57.661-219.08c-18.352-73.25-36.094-146.707-52.321-220.433l-0.006-0.031
					c-0.409-1.859-2.222-3.029-4.048-2.612C912.077,681.673,910.93,683.508,911.327,685.361z"/>
			</g>
			<g>
				<path style="fill:#91B3FA;" d="M1232.35,2563.458c0,0,30.055-185.091-121.269-405.874
					c-140.401-204.849-490.123-683.333-546.904-923.096c-2.515-10.621-17.635-10.4-19.719,0.315
					c-22.355,114.93-55.723,407.177,90.47,730.696C823.451,2382.697,1232.35,2563.458,1232.35,2563.458z"/>
				<path style="opacity:0.45;fill:#FFFFFF;" d="M593.437,1452.978c-1.358,25.868,0.509,51.823,3.801,77.507
					c0.394,3.216,0.725,6.442,1.17,9.651l1.528,9.596l3.069,19.204l3.868,19.058c1.348,6.34,2.43,12.751,4.166,18.999
					c12.182,50.41,28.476,99.899,49.024,147.573c4.65,12.137,10.552,23.707,16.008,35.483l8.306,17.611
					c1.424,2.915,2.681,5.916,4.243,8.761l4.574,8.59l18.304,34.371c2.925,5.802,6.448,11.26,9.752,16.844l10.035,16.682
					l10.036,16.683l5.044,8.326l5.42,8.082l21.684,32.333c3.654,5.356,7.142,10.851,10.933,16.093l11.347,15.745l22.695,31.49
					l23.048,31.231c7.715,10.386,15.33,20.848,23.195,31.121c15.588,20.653,31.297,41.213,47.233,61.593
					c15.806,20.484,31.936,40.705,47.96,61.009l48.682,60.394c32.487,40.214,65.038,80.354,96.188,121.487
					c7.932,10.186,15.337,20.727,22.929,31.152c3.861,5.171,7.356,10.576,10.979,15.902c3.565,5.362,7.283,10.635,10.726,16.072
					c6.65,11.011,13.725,21.805,19.587,33.258l4.617,8.477c0.75,1.423,1.585,2.806,2.265,4.261l2.011,4.381l8.057,17.541
					l0.031,0.066c0.323,0.702,1.154,1.01,1.856,0.688c0.677-0.311,0.986-1.098,0.719-1.783
					c-9.484-24.194-21.536-47.289-34.957-69.501c-3.345-5.558-6.959-10.939-10.427-16.42c-3.523-5.442-6.928-10.974-10.684-16.251
					c-7.386-10.643-14.603-21.427-22.324-31.818l-11.417-15.72c-3.846-5.209-7.81-10.32-11.711-15.485l-11.746-15.458l-11.894-15.33
					c-15.824-20.472-31.876-40.74-47.837-61.075c-31.951-40.647-63.906-81.247-95.398-122.195
					c-31.544-40.909-62.425-82.307-92.973-123.948l-22.628-31.436l-11.314-15.718c-3.779-5.235-7.269-10.628-10.918-15.935
					l-21.675-31.962l-5.42-7.991l-5.042-8.23l-10.035-16.492c-27.333-43.645-50.914-89.538-72.069-136.446
					c-21.343-46.863-38.507-95.626-51.628-145.444c-1.851-6.178-3.034-12.515-4.606-18.763l-4.452-18.814l-3.661-18.982
					l-1.827-9.498c-0.545-3.176-0.976-6.37-1.47-9.555c-0.912-6.38-2.022-12.742-2.773-19.145l-2.098-19.236
					c-0.987-12.851-2.088-25.749-1.761-38.66c0.007-0.096-0.064-0.179-0.16-0.186
					C593.529,1452.807,593.447,1452.885,593.437,1452.978z"/>
			</g>
		</g>
		<g>
			<g>
				<g>
					<path style="fill:#91B3FA;" d="M2746.61,1241.289c-22.171-46.191-38.031-94.546-41.73-147.194
						c-9.321-132.655,67.794-254.817,124.446-369.031c52.067-104.973,90.767-261.391-84.923-247.471
						c-139.969,11.089-304.522,150.579-323.297,296.033c-22.217,172.151,61.591,389.239-37.773,545.615
						c-139.005,218.763-239.272,168.63-239.272,537.793c0,157.74,87.373,244.751,187.451,292.676
						c157.959,75.644,346.311,45.078,472.164-76.719c111.185-107.601,177.294-262.283,154.936-417.579
						C2936.029,1498.568,2813.01,1379.623,2746.61,1241.289z"/>
					<path style="fill:#7D97F4;" d="M2629.171,2428.195c-2.194,0-4.191-1.483-4.749-3.71
						c-87.075-347.565-134.473-662.634-140.878-936.45c-5.127-219.258,15.868-412.752,62.406-575.106
						c79.485-277.303,204.153-366.362,209.422-370.017c2.22-1.541,5.271-0.992,6.813,1.231c1.544,2.22,0.995,5.272-1.223,6.816
						c-1.268,0.883-127.582,91.419-205.965,365.969c-72.447,253.754-117.56,720.871,78.93,1505.177
						c0.657,2.625-0.938,5.285-3.561,5.942C2629.965,2428.147,2629.565,2428.195,2629.171,2428.195z"/>
				</g>
				<path style="fill:#91B3FA;" d="M2886.079,852.115c-6.768-1.836-14.203-2.409-22.12-1.499
					c-43.786,5.035-61.767,51.211-74.631,87.313c-11.017,30.917-23.999,68.444-17.493,101.939
					c7.034,36.213,45.491,65.753,73.396,28.985c31.719-41.793,79.315-105.96,79.604-161.342
					C2924.979,879.983,2909.522,858.473,2886.079,852.115z"/>
			</g>
			<g>
				<path style="fill:#BDD0FB;" d="M3210.211,2152.145c17.91-117.988-24.972-253.443-46.375-378.214
					c-11.316-65.969-16.55-131.438-5.955-197.9c10.535-66.08,41.583-137.548,12.955-203.383
					c-57.685-132.634-194.817-72.274-273.368,27.575c-91.154,115.869-116.073,305.208-150.695,451.005
					c-20.872,87.893-52.313,178.046-63.323,267.612c-18.239,148.374,15.309,251.384,86.286,320.951
					c68.076,66.726,171.757,80.561,255.037,34.181C3100.005,2432.073,3181.319,2342.483,3210.211,2152.145z"/>
				<path style="fill:#7D97F4;" d="M2896.492,2699.992c-2.369,0-4.46-1.709-4.869-4.122c-0.299-1.789-30.118-181.736-30.9-430.069
					c-0.721-229.27,23.862-565.474,145.062-865.152c1.027-2.533,3.91-3.743,6.436-2.729c2.529,1.023,3.752,3.904,2.729,6.436
					c-120.601,298.192-145.059,633.028-144.341,861.416c0.779,247.529,30.466,426.677,30.765,428.457
					c0.454,2.694-1.361,5.242-4.055,5.696C2897.042,2699.969,2896.766,2699.992,2896.492,2699.992z"/>
			</g>
		</g>
		<g>
			
				<linearGradient id="SVGID_00000058559337177894587710000015374740216887046590_" gradientUnits="userSpaceOnUse" x1="3166.1506" y1="938.8661" x2="3092.0095" y2="1037.7209">
				<stop  offset="0" style="stop-color:#4F52FF"/>
				<stop  offset="1" style="stop-color:#4042E2"/>
			</linearGradient>
			
				<rect x="2745.176" y="1303.483" style="fill:url(#SVGID_00000058559337177894587710000015374740216887046590_);" width="132.824" height="216.266"/>
			
				<linearGradient id="SVGID_00000087391648704980721390000015074970306698385072_" gradientUnits="userSpaceOnUse" x1="2801.9243" y1="1003.4645" x2="2836.8899" y2="1860.1237">
				<stop  offset="0" style="stop-color:#4F52FF"/>
				<stop  offset="1" style="stop-color:#4042E2"/>
			</linearGradient>
			<path style="fill:url(#SVGID_00000087391648704980721390000015074970306698385072_);" d="M2921.774,1338.526h-214.688v-60.316
				c0-3.366,2.729-6.095,6.095-6.095h199.314c5.124,0,9.278,4.154,9.278,9.278V1338.526z"/>
			<g>
				<rect x="2563.154" y="1913.616" style="fill:#7D97F4;" width="557.444" height="1075.071"/>
				
					<linearGradient id="SVGID_00000082334524800503861810000018339673669882299526_" gradientUnits="userSpaceOnUse" x1="3091.3821" y1="964.8296" x2="2957.928" y2="1434.3903">
					<stop  offset="0" style="stop-color:#4F52FF"/>
					<stop  offset="1" style="stop-color:#4042E2"/>
				</linearGradient>
				<path style="fill:url(#SVGID_00000082334524800503861810000018339673669882299526_);" d="M3195.258,2006.524h-658.65
					l-19.081-505.84l536.708,21.394l166.97,443.811C3229.996,1984.846,3216.154,2006.524,3195.258,2006.524z"/>
				
					<linearGradient id="SVGID_00000053540727852530095160000009605482489626907793_" gradientUnits="userSpaceOnUse" x1="2948.1531" y1="1263.7111" x2="2701.0164" y2="1708.5573">
					<stop  offset="0" style="stop-color:#4F52FF"/>
					<stop  offset="1" style="stop-color:#4042E2"/>
				</linearGradient>
				<path style="fill:url(#SVGID_00000053540727852530095160000009605482489626907793_);" d="M3056.96,1532.237l-491.769,5.35
					l2.289-53.041l459.609-6.737c17.761,0.766,31.539,15.786,30.772,33.547L3056.96,1532.237z"/>
				<g style="opacity:0.89;">
					
						<linearGradient id="SVGID_00000062895178134482237200000004148839182424443573_" gradientUnits="userSpaceOnUse" x1="2684.2646" y1="2451.1516" x2="3002.8042" y2="2451.1516">
						<stop  offset="0" style="stop-color:#DAE3FE"/>
						<stop  offset="1" style="stop-color:#E9EFFD"/>
					</linearGradient>
					<path style="fill:url(#SVGID_00000062895178134482237200000004148839182424443573_);" d="M3001.681,2696.692h-316.294
						c-0.62,0-1.123-0.503-1.123-1.123v-488.835c0-0.62,0.503-1.123,1.123-1.123h316.293c0.62,0,1.123,0.503,1.123,1.123v488.835
						C3002.804,2696.189,3002.302,2696.692,3001.681,2696.692z"/>
					<g>
						<path style="fill:#7D97F4;" d="M2830.543,2670.148h-122.427c-0.345,0-0.624-0.28-0.624-0.624V2232.78
							c0-0.344,0.28-0.624,0.624-0.624h122.427c0.345,0,0.624,0.28,0.624,0.624v436.744
							C2831.167,2669.868,2830.887,2670.148,2830.543,2670.148z"/>
						<path style="fill:#7D97F4;" d="M2978.953,2670.148h-122.427c-0.345,0-0.624-0.28-0.624-0.624V2232.78
							c0-0.344,0.279-0.624,0.624-0.624h122.427c0.345,0,0.624,0.279,0.624,0.624v436.744
							C2979.577,2669.868,2979.298,2670.148,2978.953,2670.148z"/>
					</g>
				</g>
			</g>
			<g>
				<rect x="609.393" y="1913.616" style="fill:#7D97F4;" width="557.444" height="1075.071"/>
				
					<linearGradient id="SVGID_00000036238761767230345990000015488092624055824009_" gradientUnits="userSpaceOnUse" x1="416.3457" y1="980.9405" x2="976.5518" y2="1956.3579">
					<stop  offset="0" style="stop-color:#4F52FF"/>
					<stop  offset="1" style="stop-color:#4042E2"/>
				</linearGradient>
				<path style="fill:url(#SVGID_00000036238761767230345990000015488092624055824009_);" d="M534.732,2006.524h658.65
					l26.874-474.113l-544.501-10.332l-166.97,443.811C499.994,1984.846,513.836,2006.524,534.732,2006.524z"/>
				<g style="opacity:0.89;">
					
						<linearGradient id="SVGID_00000075151174842114177570000004909240507358169493_" gradientUnits="userSpaceOnUse" x1="727.1862" y1="2451.1516" x2="1045.7258" y2="2451.1516">
						<stop  offset="0" style="stop-color:#DAE3FE"/>
						<stop  offset="1" style="stop-color:#E9EFFD"/>
					</linearGradient>
					<path style="fill:url(#SVGID_00000075151174842114177570000004909240507358169493_);" d="M728.309,2696.692h316.294
						c0.62,0,1.123-0.503,1.123-1.123v-488.835c0-0.62-0.503-1.123-1.123-1.123H728.309c-0.62,0-1.123,0.503-1.123,1.123v488.835
						C727.186,2696.189,727.689,2696.692,728.309,2696.692z"/>
					<g>
						<path style="fill:#7D97F4;" d="M899.448,2670.148h122.427c0.345,0,0.624-0.28,0.624-0.624V2232.78
							c0-0.344-0.28-0.624-0.624-0.624H899.448c-0.345,0-0.624,0.28-0.624,0.624v436.744
							C898.824,2669.868,899.103,2670.148,899.448,2670.148z"/>
						<path style="fill:#7D97F4;" d="M751.037,2670.148h122.427c0.345,0,0.624-0.28,0.624-0.624V2232.78
							c0-0.344-0.279-0.624-0.624-0.624H751.037c-0.345,0-0.624,0.279-0.624,0.624v436.744
							C750.413,2669.868,750.693,2670.148,751.037,2670.148z"/>
					</g>
				</g>
				
					<linearGradient id="SVGID_00000142865420531851720410000004477169254124651910_" gradientUnits="userSpaceOnUse" x1="1119.097" y1="574.5764" x2="1030.1271" y2="1034.2529">
					<stop  offset="0" style="stop-color:#4F52FF"/>
					<stop  offset="1" style="stop-color:#4042E2"/>
				</linearGradient>
				<path style="fill:url(#SVGID_00000142865420531851720410000004477169254124651910_);" d="M673.522,1543.881l523.388-5.85
					l-3.285-52.988l-489.188,3.73c-18.888,1.171-33.308,16.504-32.208,34.248L673.522,1543.881z"/>
			</g>
			<rect x="1093.132" y="1764.301" style="fill:#BDD0FB;" width="1548.922" height="1224.386"/>
			
				<linearGradient id="SVGID_00000138540575046001349460000011481915262302215336_" gradientUnits="userSpaceOnUse" x1="1968.8156" y1="1074.7861" x2="2151.6965" y2="61.5227">
				<stop  offset="0" style="stop-color:#4F52FF"/>
				<stop  offset="1" style="stop-color:#4042E2"/>
			</linearGradient>
			<path style="fill:url(#SVGID_00000138540575046001349460000011481915262302215336_);" d="M2605.404,1170.358H1092.301
				l-167.636,576.071c-3.919,13.466-1.672,27.922,6.161,39.657l17.241,25.826c9.19,13.765,24.907,22.07,41.769,22.07h1713.102
				c19.479,0,37.171-11.054,45.287-28.295l16.575-35.212c4.903-10.414,5.861-22.182,2.705-33.219L2605.404,1170.358z"/>
			
				<linearGradient id="SVGID_00000124154889653953082020000005244379007717103273_" gradientUnits="userSpaceOnUse" x1="1926.4567" y1="627.0997" x2="1733.6902" y2="1936.9249">
				<stop  offset="0" style="stop-color:#4F52FF"/>
				<stop  offset="1" style="stop-color:#4042E2"/>
			</linearGradient>
			<path style="fill:url(#SVGID_00000124154889653953082020000005244379007717103273_);" d="M2608.812,1170.358H1088.234v-26.112
				c0-9.875,8.14-17.922,18.282-18.072l1483.452-21.9c10.361-0.153,18.844,7.983,18.844,18.072V1170.358z"/>
			<path style="fill:#7D97F4;" d="M2071.229,2988.687h-480.241v-71.019c0-5.77,4.678-10.448,10.448-10.448h459.345
				c5.77,0,10.448,4.678,10.448,10.448V2988.687z"/>
			<path style="fill:#7D97F4;" d="M1995,2907.219h-327.781v-627.715c0-6.479,5.252-11.731,11.731-11.731h304.319
				c6.479,0,11.731,5.252,11.731,11.731V2907.219z"/>
			<path style="opacity:0.46;fill:#FFFFFF;" d="M1971.855,2224.734h-281.493c-12.782,0-23.144-10.362-23.144-23.144v-20.216
				c0-12.159,9.41-22.246,21.54-23.088l281.493-19.554c13.381-0.93,24.748,9.675,24.748,23.089v39.77
				C1995,2214.372,1984.638,2224.734,1971.855,2224.734z"/>
			<g>
				<path style="opacity:0.9;fill:#7D97F4;" d="M2255.299,1940.671h-3.115c-80.955,0-151.829,57.314-151.829,138.27v145.793h154.943
					V1940.671z"/>
				<path style="opacity:0.9;fill:#7D97F4;" d="M2100.356,2267.774v428.919c0,14.443,16.954,36.834,31.396,36.834h123.547v-465.753
					H2100.356z"/>
				<path style="opacity:0.9;fill:#7D97F4;" d="M2297.606,1940.671h-7.874v284.063h154.943v-145.793
					C2444.675,1997.985,2378.561,1940.671,2297.606,1940.671z"/>
				<path style="opacity:0.9;fill:#7D97F4;" d="M2289.731,2733.527h128.306c14.442,0,26.637-22.391,26.637-36.834v-428.919h-154.943
					V2733.527z"/>
			</g>
			<g>
				<path style="opacity:0.9;fill:#7D97F4;" d="M1401.888,1940.671h-3.115c-80.955,0-151.829,57.314-151.829,138.27v145.793h154.943
					V1940.671z"/>
				<path style="opacity:0.9;fill:#7D97F4;" d="M1246.944,2267.774v428.919c0,14.443,16.954,36.834,31.397,36.834h123.547v-465.753
					H1246.944z"/>
				<path style="opacity:0.9;fill:#7D97F4;" d="M1444.194,1940.671h-7.875v284.063h154.943v-145.793
					C1591.262,1997.985,1525.149,1940.671,1444.194,1940.671z"/>
				<path style="opacity:0.9;fill:#7D97F4;" d="M1436.319,2733.527h128.307c14.442,0,26.636-22.391,26.636-36.834v-428.919h-154.943
					V2733.527z"/>
			</g>
			<path style="fill:#BDD0FB;" d="M1513.616,1766.097h-473.534c-11.685,0-22.403-5.367-29.402-14.725
				c-7.001-9.36-9.119-21.156-5.817-32.366l135.269-459.084c0.281-0.95,1.279-1.503,2.229-1.215
				c0.952,0.281,1.496,1.279,1.215,2.229L1008.31,1720.02c-2.979,10.114-1.067,20.757,5.248,29.2s15.981,13.285,26.525,13.285
				h473.534c0.993,0,1.796,0.803,1.796,1.796S1514.609,1766.097,1513.616,1766.097z"/>
			<path style="fill:#FFFFFF;" d="M1785.594,2735.323h-49.472c-16.497,0-29.917-13.42-29.917-29.918V2339.68
				c0-16.497,13.42-29.917,29.917-29.917h49.472c16.497,0,29.917,13.42,29.917,29.917v365.725
				C1815.511,2721.902,1802.091,2735.323,1785.594,2735.323z M1736.122,2313.355c-14.515,0-26.325,11.81-26.325,26.325v365.725
				c0,14.515,11.81,26.325,26.325,26.325h49.472c14.515,0,26.325-11.81,26.325-26.325V2339.68c0-14.515-11.81-26.325-26.325-26.325
				H1736.122z"/>
			<path style="fill:#FFFFFF;" d="M1923.646,2735.323h-49.472c-16.497,0-29.917-13.42-29.917-29.918V2339.68
				c0-16.497,13.42-29.917,29.917-29.917h49.472c16.497,0,29.917,13.42,29.917,29.917v365.725
				C1953.563,2721.902,1940.143,2735.323,1923.646,2735.323z M1874.174,2313.355c-14.515,0-26.325,11.81-26.325,26.325v365.725
				c0,14.515,11.81,26.325,26.325,26.325h49.472c14.515,0,26.325-11.81,26.325-26.325V2339.68c0-14.515-11.81-26.325-26.325-26.325
				H1874.174z"/>
			<path style="fill:#FFFFFF;" d="M1785.594,2858.623h-49.472c-16.497,0-29.917-13.42-29.917-29.917v-42.066
				c0-16.495,13.42-29.916,29.917-29.916h49.472c16.497,0,29.917,13.42,29.917,29.916v42.066
				C1815.511,2845.203,1802.091,2858.623,1785.594,2858.623z M1736.122,2760.316c-14.515,0-26.325,11.808-26.325,26.323v42.066
				c0,14.515,11.81,26.325,26.325,26.325h49.472c14.515,0,26.325-11.81,26.325-26.325v-42.066c0-14.515-11.81-26.323-26.325-26.323
				H1736.122z"/>
			<path style="fill:#FFFFFF;" d="M1923.646,2858.623h-49.472c-16.497,0-29.917-13.42-29.917-29.917v-42.066
				c0-16.495,13.42-29.916,29.917-29.916h49.472c16.497,0,29.917,13.42,29.917,29.916v42.066
				C1953.563,2845.203,1940.143,2858.623,1923.646,2858.623z M1874.174,2760.316c-14.515,0-26.325,11.808-26.325,26.323v42.066
				c0,14.515,11.81,26.325,26.325,26.325h49.472c14.515,0,26.325-11.81,26.325-26.325v-42.066c0-14.515-11.81-26.323-26.325-26.323
				H1874.174z"/>
			<path style="fill:#FFFFFF;" d="M2458.08,2760.316h-372.982c-21.388,0-38.786-17.4-38.786-38.788v-645.782
				c0-102.122,83.083-185.203,185.205-185.203h80.146c102.122,0,185.203,83.081,185.203,185.203v645.782
				C2496.865,2742.916,2479.467,2760.316,2458.08,2760.316z M2231.517,1894.136c-100.141,0-181.613,81.469-181.613,181.611v645.782
				c0,19.407,15.788,35.195,35.194,35.195h372.982c19.406,0,35.194-15.788,35.194-35.195v-645.782
				c0-100.142-81.469-181.611-181.611-181.611H2231.517z"/>
			<path style="fill:#FFFFFF;" d="M1604.835,2760.316h-372.982c-21.387,0-38.786-17.4-38.786-38.788v-645.782
				c0-102.122,83.081-185.203,185.203-185.203h80.145c102.122,0,185.205,83.081,185.205,185.203v645.782
				C1643.621,2742.916,1626.222,2760.316,1604.835,2760.316z M1378.271,1894.136c-100.142,0-181.611,81.469-181.611,181.611v645.782
				c0,19.407,15.788,35.195,35.194,35.195h372.982c19.405,0,35.194-15.788,35.194-35.195v-645.782
				c0-100.142-81.471-181.611-181.613-181.611H1378.271z"/>
			<path style="fill:#BDD0FB;" d="M2657.174,1631.76c-0.772,0-1.484-0.5-1.719-1.275l-105.202-347.67
				c-7.188-23.757-28.682-39.849-53.487-40.045c-275.417-2.173-444.059-2.087-451.108,0.23c-0.928,0.303-1.959-0.16-2.293-1.067
				c-0.335-0.907,0.061-1.899,0.956-2.266c8.44-3.471,287.111-1.798,452.473-0.49c26.386,0.209,49.251,17.327,56.897,42.596
				l105.202,347.671c0.288,0.951-0.249,1.952-1.198,2.24C2657.521,1631.736,2657.345,1631.76,2657.174,1631.76z"/>
		</g>
		<g>
			<g>
				
					<linearGradient id="SVGID_00000095331516406353050470000002929009983722269830_" gradientUnits="userSpaceOnUse" x1="1490.8135" y1="2889.123" x2="938.1846" y2="3648.9871">
					<stop  offset="0" style="stop-color:#09005D"/>
					<stop  offset="1" style="stop-color:#1A0F91"/>
				</linearGradient>
				
					<rect x="964.779" y="2917.877" style="fill:url(#SVGID_00000095331516406353050470000002929009983722269830_);" width="863.829" height="201.322"/>
				
					<linearGradient id="SVGID_00000024708255919848388070000003456789296287108489_" gradientUnits="userSpaceOnUse" x1="1893.6154" y1="2383.572" x2="1125.3871" y2="3435.5361">
					<stop  offset="0" style="stop-color:#4F52FF"/>
					<stop  offset="1" style="stop-color:#4042E2"/>
				</linearGradient>
				<path style="fill:url(#SVGID_00000024708255919848388070000003456789296287108489_);" d="M1838.658,3106.314H954.529
					c-4.271,0-7.733-3.462-7.733-7.733v-69.574h897.029v72.141C1843.824,3104.001,1841.511,3106.314,1838.658,3106.314z"/>
				
					<linearGradient id="SVGID_00000183934794186715743850000009752278084173709503_" gradientUnits="userSpaceOnUse" x1="1839.3199" y1="2369.3025" x2="1070.7673" y2="3421.7109">
					<stop  offset="0" style="stop-color:#4F52FF"/>
					<stop  offset="1" style="stop-color:#4042E2"/>
				</linearGradient>
				<path style="fill:url(#SVGID_00000183934794186715743850000009752278084173709503_);" d="M1836.158,3018.538H956.362
					c-5.283,0-9.566-4.283-9.566-9.566v-67.741h897.029v69.641C1843.824,3015.106,1840.392,3018.538,1836.158,3018.538z"/>
				
					<linearGradient id="SVGID_00000052095127229336240410000007757914327270193591_" gradientUnits="userSpaceOnUse" x1="1379.3253" y1="2606.9426" x2="1406.0071" y2="3147.252">
					<stop  offset="0" style="stop-color:#09005D"/>
					<stop  offset="1" style="stop-color:#1A0F91"/>
				</linearGradient>
				<path style="fill:url(#SVGID_00000052095127229336240410000007757914327270193591_);" d="M1843.824,2941.231H946.796v-21.091
					c0-4.363,3.537-7.9,7.9-7.9h881.129c4.418,0,8,3.582,8,8V2941.231z"/>
			</g>
			<g>
				
					<linearGradient id="SVGID_00000156582342094538035800000002893807581757964692_" gradientUnits="userSpaceOnUse" x1="1593.3656" y1="-514.5903" x2="2370.4814" y2="405.6044" gradientTransform="matrix(0.4373 -0.8993 0.8993 0.4373 1589.6586 4924.9434)">
					<stop  offset="0" style="stop-color:#4F52FF"/>
					<stop  offset="1" style="stop-color:#4042E2"/>
				</linearGradient>
				<path style="fill:url(#SVGID_00000156582342094538035800000002893807581757964692_);" d="M2632.24,3008.066
					c29.065,14.134,39.316,52.966,22.896,86.734c-16.421,33.768-53.294,49.684-82.36,35.55
					c-29.066-14.134-39.316-52.966-22.896-86.734C2566.301,3009.848,2603.174,2993.932,2632.24,3008.066z"/>
				
					<linearGradient id="SVGID_00000177462466984600558060000005425717628172865946_" gradientUnits="userSpaceOnUse" x1="2461.7036" y1="2822.7427" x2="2406.0732" y2="3199.3159" gradientTransform="matrix(0.9989 -0.0469 0.0469 0.9989 -40.006 301.738)">
					<stop  offset="0" style="stop-color:#09005D"/>
					<stop  offset="1" style="stop-color:#1A0F91"/>
				</linearGradient>
				<path style="fill:url(#SVGID_00000177462466984600558060000005425717628172865946_);" d="M2584.401,3024.59l-28.168,57.927
					c-1.51,3.106-5.252,4.399-8.358,2.889l-33.967-16.518c-3.106-1.51-4.399-5.252-2.889-8.358l28.168-57.926
					c1.51-3.106,5.252-4.399,8.358-2.889l33.967,16.518C2584.618,3017.742,2585.911,3021.485,2584.401,3024.59z"/>
				
					<linearGradient id="SVGID_00000145025158618580363140000005499900202288239292_" gradientUnits="userSpaceOnUse" x1="1662.7645" y1="2596.6162" x2="2522.8494" y2="3029.9541">
					<stop  offset="0" style="stop-color:#4F52FF"/>
					<stop  offset="1" style="stop-color:#4042E2"/>
				</linearGradient>
				<path style="fill:url(#SVGID_00000145025158618580363140000005499900202288239292_);" d="M2547.04,2993.415
					c-5.341,27.406-17.507,51.887-36.007,73.653c-9.996,11.761-26.033,17.027-41.983,13.824
					c-152.486-30.618-472.069-228.139-782.43-400.692c-20.568-11.436-34.784-24.409-25.091-44.341l21.404-44.015
					c9.633-19.809,32.685-8.657,54.317,0.23c328.295,134.878,676.493,252.448,796.029,361.231
					C2544.75,2963.746,2549.858,2978.953,2547.04,2993.415z"/>
				
					<linearGradient id="SVGID_00000127750082670649568310000012477998624642256023_" gradientUnits="userSpaceOnUse" x1="1601.4423" y1="2393.3909" x2="1471.6467" y2="2894.2305" gradientTransform="matrix(0.9989 -0.0469 0.0469 0.9989 -40.006 301.738)">
					<stop  offset="0" style="stop-color:#09005D"/>
					<stop  offset="1" style="stop-color:#1A0F91"/>
				</linearGradient>
				<path style="fill:url(#SVGID_00000127750082670649568310000012477998624642256023_);" d="M1731.944,2548.433l-71.134,146.282
					c-1.449,2.98-5.04,4.221-8.02,2.772l-35.181-17.108c-2.98-1.449-4.221-5.04-2.772-8.02l71.134-146.282
					c1.449-2.98,5.04-4.221,8.02-2.772l35.181,17.108C1732.152,2541.863,1733.393,2545.453,1731.944,2548.433z"/>
				
					<linearGradient id="SVGID_00000152951792620945483690000008694418284149017994_" gradientUnits="userSpaceOnUse" x1="1350.6292" y1="2411.8123" x2="1349.48" y2="2650.8062">
					<stop  offset="0" style="stop-color:#09005D"/>
					<stop  offset="1" style="stop-color:#1A0F91"/>
				</linearGradient>
				<path style="fill:url(#SVGID_00000152951792620945483690000008694418284149017994_);" d="M1408.945,2399.26l-71.134,146.282
					c-1.449,2.98-5.04,4.221-8.02,2.772l-35.181-17.108c-2.98-1.449-4.221-5.04-2.772-8.02l71.134-146.282
					c1.449-2.98,5.04-4.221,8.02-2.772l35.181,17.108C1409.153,2392.689,1410.394,2396.28,1408.945,2399.26z"/>
				
					<linearGradient id="SVGID_00000115514001318122102350000016052245425893096891_" gradientUnits="userSpaceOnUse" x1="1361.0826" y1="2403.5242" x2="1644.4807" y2="2746.2383">
					<stop  offset="0" style="stop-color:#4F52FF"/>
					<stop  offset="1" style="stop-color:#4042E2"/>
				</linearGradient>
				<polygon style="fill:url(#SVGID_00000115514001318122102350000016052245425893096891_);" points="1764.595,2400.924 
					1534.984,2873.102 1215.09,2717.543 1444.701,2245.365 				"/>
				
					<linearGradient id="SVGID_00000098934469773872656130000010679194602862742953_" gradientUnits="userSpaceOnUse" x1="1418.6978" y1="2630.9624" x2="1353.8895" y2="2869.3252">
					<stop  offset="0" style="stop-color:#4F52FF"/>
					<stop  offset="1" style="stop-color:#4042E2"/>
				</linearGradient>
				<polygon style="fill:url(#SVGID_00000098934469773872656130000010679194602862742953_);" points="1547.093,2848.2 
					1518.217,2907.581 1198.323,2752.023 1227.199,2692.642 				"/>
				
					<linearGradient id="SVGID_00000045598853599131007000000005537273874304527510_" gradientUnits="userSpaceOnUse" x1="1888.4326" y1="3819.6921" x2="1562.2107" y2="3201.8486">
					<stop  offset="0" style="stop-color:#09005D"/>
					<stop  offset="1" style="stop-color:#1A0F91"/>
				</linearGradient>
				<path style="fill:url(#SVGID_00000045598853599131007000000005537273874304527510_);" d="M1531.258,2880.764l-14.351,29.512
					c-4.388,9.023-14.665,13.55-24.284,10.693c-99.719-29.615-196.231-75.762-289.088-140.745
					c-8.131-5.69-10.922-16.459-6.582-25.384l14.411-29.636L1531.258,2880.764z"/>
				
					<linearGradient id="SVGID_00000044859110397939187090000002340610173188196744_" gradientUnits="userSpaceOnUse" x1="1799.5908" y1="2641.1563" x2="1705.715" y2="2669.3188">
					<stop  offset="0" style="stop-color:#4F52FF"/>
					<stop  offset="1" style="stop-color:#4042E2"/>
				</linearGradient>
				<path style="fill:url(#SVGID_00000044859110397939187090000002340610173188196744_);" d="M1563.091,2837.219l-11.03,22.682
					c-1.327,2.729-4.615,3.865-7.344,2.538l-332.999-161.931c-2.729-1.327-3.865-4.615-2.538-7.344l11.03-22.682
					c1.327-2.729,4.615-3.865,7.344-2.538l332.999,161.931C1563.281,2831.203,1564.418,2834.49,1563.091,2837.219z"/>
				
					<linearGradient id="SVGID_00000062162252617281270210000017173812745593619631_" gradientUnits="userSpaceOnUse" x1="1385.3113" y1="2693.4644" x2="1380.1997" y2="2248.7275">
					<stop  offset="0" style="stop-color:#4F52FF"/>
					<stop  offset="1" style="stop-color:#4042E2"/>
				</linearGradient>
				<path style="fill:url(#SVGID_00000062162252617281270210000017173812745593619631_);" d="M1561.631,2840.221l-8.11,16.678
					c-0.976,2.006-3.393,2.842-5.4,1.866l-335.614-163.203c-2.006-0.976-2.842-3.393-1.866-5.4l8.11-16.678
					c0.976-2.006,3.393-2.842,5.4-1.866l335.614,163.203C1561.771,2835.798,1562.607,2838.215,1561.631,2840.221z"/>
				
					<linearGradient id="SVGID_00000030463294372790615840000015660446454757590201_" gradientUnits="userSpaceOnUse" x1="1685.0425" y1="2179.1636" x2="1581.7888" y2="2357.1116">
					<stop  offset="0" style="stop-color:#4F52FF"/>
					<stop  offset="1" style="stop-color:#4042E2"/>
				</linearGradient>
				<polygon style="fill:url(#SVGID_00000030463294372790615840000015660446454757590201_);" points="1766.458,2397.093 
					1795.334,2337.711 1475.44,2182.153 1446.564,2241.534 				"/>
				
					<linearGradient id="SVGID_00000137118597907393695100000010697336522440582838_" gradientUnits="userSpaceOnUse" x1="1952.807" y1="622.4009" x2="1769.9258" y2="1556.582">
					<stop  offset="0" style="stop-color:#09005D"/>
					<stop  offset="1" style="stop-color:#1A0F91"/>
				</linearGradient>
				<path style="fill:url(#SVGID_00000137118597907393695100000010697336522440582838_);" d="M1782.293,2364.529l14.351-29.512
					c4.388-9.023,1.602-19.902-6.585-25.704c-84.871-60.148-180.766-107.564-289.219-140.475c-9.496-2.882-19.69,1.573-24.03,10.498
					l-14.411,29.635L1782.293,2364.529z"/>
				
					<linearGradient id="SVGID_00000071530094949372174580000007985249794276734363_" gradientUnits="userSpaceOnUse" x1="1973.0652" y1="2251.8289" x2="1842.1195" y2="2276.4875">
					<stop  offset="0" style="stop-color:#4F52FF"/>
					<stop  offset="1" style="stop-color:#4042E2"/>
				</linearGradient>
				<path style="fill:url(#SVGID_00000071530094949372174580000007985249794276734363_);" d="M1767.7,2416.457l11.03-22.682
					c1.327-2.729,0.19-6.017-2.538-7.344L1443.193,2224.5c-2.729-1.327-6.017-0.191-7.344,2.538l-11.03,22.682
					c-1.327,2.729-0.191,6.017,2.538,7.344l332.999,161.931C1763.085,2420.322,1766.373,2419.186,1767.7,2416.457z"/>
				
					<linearGradient id="SVGID_00000146482857191464577780000004987270090128947129_" gradientUnits="userSpaceOnUse" x1="1685.7861" y1="2178.5332" x2="1937.564" y2="1749.3282">
					<stop  offset="0" style="stop-color:#4F52FF"/>
					<stop  offset="1" style="stop-color:#4042E2"/>
				</linearGradient>
				<path style="fill:url(#SVGID_00000146482857191464577780000004987270090128947129_);" d="M1769.16,2413.455l8.11-16.678
					c0.976-2.007,0.14-4.424-1.866-5.4l-335.614-163.203c-2.006-0.976-4.424-0.14-5.4,1.866l-8.11,16.678
					c-0.976,2.006-0.14,4.424,1.866,5.4l335.614,163.203C1765.766,2416.297,1768.184,2415.461,1769.16,2413.455z"/>
			</g>
		</g>
		<g>
			
				<linearGradient id="SVGID_00000059310440719914396010000012814164560192485255_" gradientUnits="userSpaceOnUse" x1="1735.4916" y1="2174.3164" x2="1383.8998" y2="2303.5781" gradientTransform="matrix(1 0 0 1 -636.2068 0)">
				<stop  offset="0" style="stop-color:#FEBBBA"/>
				<stop  offset="1" style="stop-color:#FF928E"/>
			</linearGradient>
			<path style="fill:url(#SVGID_00000059310440719914396010000012814164560192485255_);" d="M1088.641,2254.666
				c-23.929-12.885-60.129,34.291-60.129,34.291s-126.69,18.389-160.745,10.187c-34.053-8.203-68.012-140.8-68.012-140.8
				s-82.208-33.758-35.134,127.421c43.909,150.344,263.89,31.925,263.89,31.925s63.197,2.627,78.536-10.258
				C1122.387,2294.547,1112.57,2267.551,1088.641,2254.666z"/>
			
				<linearGradient id="SVGID_00000046335559022804150150000013825833397250693567_" gradientUnits="userSpaceOnUse" x1="1759.8328" y1="2240.5242" x2="1408.2417" y2="2369.7856" gradientTransform="matrix(1 0 0 1 -636.2068 0)">
				<stop  offset="0" style="stop-color:#FEBBBA"/>
				<stop  offset="1" style="stop-color:#FF928E"/>
			</linearGradient>
			<path style="fill:url(#SVGID_00000046335559022804150150000013825833397250693567_);" d="M1034.463,2282.685
				c0,0,7.547-28.873,30.367-35.479c22.821-6.606,22.583-2.153,19.311,4.187C1080.869,2257.733,1043.687,2295.774,1034.463,2282.685
				z"/>
			
				<linearGradient id="SVGID_00000090259678917566874190000010119630764380640658_" gradientUnits="userSpaceOnUse" x1="1294.5887" y1="1966.4363" x2="1171.5632" y2="2052.1147">
				<stop  offset="0" style="stop-color:#E1473D"/>
				<stop  offset="1" style="stop-color:#E9605A"/>
			</linearGradient>
			<path style="fill:url(#SVGID_00000090259678917566874190000010119630764380640658_);" d="M892.588,2295.069
				c-46.268-8.661-51.304-117.075-51.304-117.075s-86.992-61.869-60.932,104.009c12.568,79.995,72.828,98.321,158.703,75.912
				c1.053-0.275,1.834-1.247,1.848-2.335c0.266-21.222-9.099-37.872-4.125-58.979
				C931.838,2296.26,896.188,2295.743,892.588,2295.069z"/>
			<g>
				<circle style="fill:#FFFFFF;" cx="1085.879" cy="1997.867" r="142.598"/>
				
					<linearGradient id="SVGID_00000142166422136985722020000000309897113016739205_" gradientUnits="userSpaceOnUse" x1="965.8565" y1="1997.8671" x2="1205.9009" y2="1997.8671">
					<stop  offset="0" style="stop-color:#FF928E"/>
					<stop  offset="1" style="stop-color:#FE7062"/>
				</linearGradient>
				<path style="fill:url(#SVGID_00000142166422136985722020000000309897113016739205_);" d="M1085.879,2117.889
					c-66.181,0-120.022-53.842-120.022-120.023c0-66.18,53.841-120.021,120.022-120.021s120.022,53.841,120.022,120.021
					C1205.901,2064.048,1152.059,2117.889,1085.879,2117.889z M1085.879,1881.981c-63.899,0-115.886,51.985-115.886,115.885
					s51.986,115.887,115.886,115.887s115.886-51.987,115.886-115.887S1149.778,1881.981,1085.879,1881.981z"/>
				
					<linearGradient id="SVGID_00000064336798212650586440000003900403312563084673_" gradientUnits="userSpaceOnUse" x1="1605.8053" y1="2730.7109" x2="1739.4136" y2="2037.01" gradientTransform="matrix(1 0 0 1 -636.2068 0)">
					<stop  offset="0" style="stop-color:#FF928E"/>
					<stop  offset="1" style="stop-color:#FE7062"/>
				</linearGradient>
				<path style="fill:url(#SVGID_00000064336798212650586440000003900403312563084673_);" d="M1130.351,2156.37h-92.465v-40.35
					c0-0.899,0.729-1.628,1.627-1.628h88.169c1.474,0,2.669,1.195,2.669,2.669V2156.37z"/>
				
					<linearGradient id="SVGID_00000027600411318977465410000009658406054247529120_" gradientUnits="userSpaceOnUse" x1="1706.5485" y1="2509.8379" x2="1724.4846" y2="2170.4275" gradientTransform="matrix(1 0 0 1 -636.2068 0)">
					<stop  offset="0" style="stop-color:#E1473D"/>
					<stop  offset="1" style="stop-color:#E9605A"/>
				</linearGradient>
				<path style="fill:url(#SVGID_00000027600411318977465410000009658406054247529120_);" d="M1094.688,2371.96h-21.995
					c-0.782,0-1.417-0.634-1.417-1.417v-226.617c0-0.782,0.634-1.417,1.417-1.417h21.995c0.782,0,1.417,0.634,1.417,1.417v226.617
					C1096.105,2371.326,1095.471,2371.96,1094.688,2371.96z"/>
				
					<linearGradient id="SVGID_00000161604088077525091850000015790399997179237786_" gradientUnits="userSpaceOnUse" x1="1622.9459" y1="2656.584" x2="1756.969" y2="1960.7299" gradientTransform="matrix(1 0 0 1 -636.2068 0)">
					<stop  offset="0" style="stop-color:#FF928E"/>
					<stop  offset="1" style="stop-color:#FE7062"/>
				</linearGradient>
				<path style="fill:url(#SVGID_00000161604088077525091850000015790399997179237786_);" d="M1134.377,2158.116h-99.865
					c-0.501,0-0.907-0.406-0.907-0.907v-15.836c0-0.501,0.406-0.907,0.907-0.907h99.865c0.501,0,0.907,0.406,0.907,0.907v15.836
					C1135.285,2157.71,1134.878,2158.116,1134.377,2158.116z"/>
				<g>
					
						<linearGradient id="SVGID_00000124159106331589265660000004446195162668251316_" gradientUnits="userSpaceOnUse" x1="1005.2812" y1="1994.9698" x2="1062.1764" y2="1994.9698">
						<stop  offset="0" style="stop-color:#E1473D"/>
						<stop  offset="1" style="stop-color:#E9605A"/>
					</linearGradient>
					<path style="fill:url(#SVGID_00000124159106331589265660000004446195162668251316_);" d="M1005.281,1945.34h25.325
						c10.319,0,17.832,2.004,22.54,6.009c4.708,4.005,7.061,10.375,7.061,19.113c0,5.748-1.244,10.555-3.734,14.427
						c-2.488,3.87-5.883,6.211-10.183,7.026v0.679c5.613,1.404,9.662,4.029,12.153,7.877c2.488,3.845,3.734,8.959,3.734,15.342
						c0,9.008-2.41,16.057-7.23,21.15c-4.821,5.092-11.417,7.639-19.791,7.639h-29.873V1945.34z M1022.663,1985.261h8.487
						c3.892,0,6.631-1.042,8.214-3.123c1.583-2.082,2.377-5.182,2.377-9.303c0-4.118-0.907-7.071-2.716-8.861
						c-1.81-1.787-4.661-2.68-8.554-2.68h-7.808V1985.261z M1022.663,2000.672v27.769h9.301c3.848,0,6.709-1.178,8.59-3.531
						c1.876-2.353,2.818-5.997,2.818-10.931c0-8.87-3.894-13.308-11.678-13.308H1022.663z"/>
					
						<linearGradient id="SVGID_00000071554241340690837770000014347693132124051123_" gradientUnits="userSpaceOnUse" x1="1079.0834" y1="1994.9698" x2="1096.463" y2="1994.9698">
						<stop  offset="0" style="stop-color:#E1473D"/>
						<stop  offset="1" style="stop-color:#E9605A"/>
					</linearGradient>
					<path style="fill:url(#SVGID_00000071554241340690837770000014347693132124051123_);" d="M1079.083,2044.6v-99.26h17.38v99.26
						H1079.083z"/>
					
						<linearGradient id="SVGID_00000134933380414495907460000018351101594071054476_" gradientUnits="userSpaceOnUse" x1="1117.4417" y1="1994.9698" x2="1180.5837" y2="1994.9698">
						<stop  offset="0" style="stop-color:#E1473D"/>
						<stop  offset="1" style="stop-color:#E9605A"/>
					</linearGradient>
					<path style="fill:url(#SVGID_00000134933380414495907460000018351101594071054476_);" d="M1180.584,1994.019
						c0,16.386-3.339,28.912-10.016,37.579c-6.675,8.669-16.283,13.003-28.819,13.003h-24.307v-99.26h26.547
						c11.543,0,20.526,4.266,26.953,12.797C1177.369,1966.67,1180.584,1978.63,1180.584,1994.019z M1161.641,1994.562
						c0-22.178-6.11-33.267-18.331-33.267h-7.4v67.145h5.974c6.744,0,11.722-2.818,14.936-8.453
						S1161.641,2005.878,1161.641,1994.562z"/>
				</g>
			</g>
			
				<linearGradient id="SVGID_00000165209487812704881650000015741895900256657550_" gradientUnits="userSpaceOnUse" x1="6457.9092" y1="2259.9026" x2="6444.478" y2="2318.7021" gradientTransform="matrix(1 0 0 1 -5366.6899 0)">
				<stop  offset="0" style="stop-color:#FEBBBA"/>
				<stop  offset="1" style="stop-color:#FF928E"/>
			</linearGradient>
			<path style="fill:url(#SVGID_00000165209487812704881650000015741895900256657550_);" d="M1083.323,2260.188
				c0,0-26.587-1.636-26.178,15.134c0.409,16.771-1.232,40.477,13.087,41.509c14.318,1.032,40.813,3.712,42.904-18.08
				C1115.228,2276.959,1085.777,2252.417,1083.323,2260.188z"/>
			<g>
				
					<linearGradient id="SVGID_00000067935038846204895660000004468445481006865823_" gradientUnits="userSpaceOnUse" x1="-2286.5313" y1="3170.0422" x2="-1985.7911" y2="3070.8796" gradientTransform="matrix(1 0 0 1 2883.2766 0)">
					<stop  offset="0" style="stop-color:#09005D"/>
					<stop  offset="1" style="stop-color:#1A0F91"/>
				</linearGradient>
				<path style="fill:url(#SVGID_00000067935038846204895660000004468445481006865823_);" d="M711.46,3122.778
					c-2.869-10.185-12.272-17.094-22.848-16.76l-10.46,0.331c-55.105,13.213-83.819,45.145-95.145,60.846
					c-0.447,0.619-0.043,1.488,0.719,1.55c17.389,1.408,57.792,4.2,91.989,3.244c22.811-0.639,34.988-1.532,41.088-4.026
					C716.7,3150.154,714.242,3132.656,711.46,3122.778z"/>
				<path style="fill:#7D97F4;" d="M676.096,3170.802c22.811-0.639,34.61-3.325,40.709-5.818c0.014,2.268,0.001,4.577-0.073,6.968
					c-0.079,2.554-1.971,4.595-4.298,4.58l-125.248-0.809c-3.997-0.025-6.333-4.661-4.601-8.326
					C599.008,3168.753,640.833,3171.788,676.096,3170.802z"/>
			</g>
			
				<linearGradient id="SVGID_00000179612006714105911200000016012361116910202253_" gradientUnits="userSpaceOnUse" x1="-2198.2236" y1="3029.8806" x2="-2216.0344" y2="3185.321" gradientTransform="matrix(1 0 0 1 2883.2766 0)">
				<stop  offset="0" style="stop-color:#FEBBBA"/>
				<stop  offset="1" style="stop-color:#FF928E"/>
			</linearGradient>
			<path style="fill:url(#SVGID_00000179612006714105911200000016012361116910202253_);" d="M660.566,3070.413l8.748,42.112
				c0.641,3.086,3.012,5.397,5.884,5.666c3.515,0.33,8.519,0.523,13.552-0.216c4.513-0.663,7.656-5.249,6.855-10.171l-6.08-37.391
				H660.566z"/>
			<g>
				<path style="fill:#7D97F4;" d="M841.814,3170.802c-22.811-0.639-34.61-3.325-40.709-5.818c-0.015,2.268-0.001,4.577,0.072,6.968
					c0.079,2.554,1.971,4.595,4.298,4.58l125.248-0.809c3.997-0.025,6.333-4.661,4.601-8.326
					C918.902,3168.753,877.077,3171.788,841.814,3170.802z"/>
				
					<linearGradient id="SVGID_00000075150562406687818410000018143733567825596567_" gradientUnits="userSpaceOnUse" x1="-2072.3186" y1="3157.5896" x2="-1792.7871" y2="3065.4199" gradientTransform="matrix(1 0 0 1 2883.2766 0)">
					<stop  offset="0" style="stop-color:#09005D"/>
					<stop  offset="1" style="stop-color:#1A0F91"/>
				</linearGradient>
				<path style="fill:url(#SVGID_00000075150562406687818410000018143733567825596567_);" d="M935.324,3167.396
					c-0.151-0.319-0.281-0.645-0.496-0.945c-11.062-15.456-39.233-46.231-94.902-59.58l-26.705-0.842
					c0,0-11.892,20.668-12.116,58.954c6.099,2.493,17.898,5.179,40.709,5.818C877.077,3171.788,918.902,3168.753,935.324,3167.396z"
					/>
			</g>
			
				<linearGradient id="SVGID_00000106136678689523631440000011380801423529697931_" gradientUnits="userSpaceOnUse" x1="-2053.1426" y1="3046.5054" x2="-2070.9531" y2="3201.9443" gradientTransform="matrix(1 0 0 1 2883.2766 0)">
				<stop  offset="0" style="stop-color:#FEBBBA"/>
				<stop  offset="1" style="stop-color:#FF928E"/>
			</linearGradient>
			<path style="fill:url(#SVGID_00000106136678689523631440000011380801423529697931_);" d="M808.269,3065.556
				c0.297,1.99,3.957,32.245,5.374,43.976c0.337,2.787,2.356,4.945,4.902,5.249c4.547,0.543,11.906,1.037,18.344-0.283
				c3.473-0.711,5.987-4.048,5.987-7.927v-47.491L808.269,3065.556z"/>
			
				<linearGradient id="SVGID_00000156554094312117150310000017080469192175170985_" gradientUnits="userSpaceOnUse" x1="1408.4768" y1="2486.5273" x2="1292.6581" y2="3483.3892" gradientTransform="matrix(1 0 0 1 -636.2068 0)">
				<stop  offset="0" style="stop-color:#09005D"/>
				<stop  offset="1" style="stop-color:#1A0F91"/>
			</linearGradient>
			<path style="fill:url(#SVGID_00000156554094312117150310000017080469192175170985_);" d="M786.844,2513.423
				c0,0,64.412,244.79,63.248,552.833c-0.021,5.616-3.964,10.463-9.461,11.621c-8.098,1.706-20.003,3.731-29.859,3.455
				c-5.261-0.148-9.659-4.049-10.544-9.238c-9.032-52.964-60.862-351.34-90.393-399.781c0,0-19.429,265.747-13.218,403.618
				c0.154,3.428-2.356,6.402-5.765,6.796c-5.171,0.598-13.444,1.052-23.971-0.066c-3.997-0.425-7.221-3.445-7.792-7.423
				c-6.433-44.826-43.461-311.643-41.887-503.848c0.089-10.839,28.664-57.967,28.664-57.967H786.844z"/>
			
				<linearGradient id="SVGID_00000180366316264373134820000003232954060988505752_" gradientUnits="userSpaceOnUse" x1="-2298.1387" y1="2239.7781" x2="-2235.6848" y2="2060.4753" gradientTransform="matrix(1 0 0 1 2883.2766 0)">
				<stop  offset="0" style="stop-color:#4F52FF"/>
				<stop  offset="1" style="stop-color:#4042E2"/>
			</linearGradient>
			<path style="fill:url(#SVGID_00000180366316264373134820000003232954060988505752_);" d="M586.055,2300.528
				c-17.509-47.917-11.157-105.777-11.091-106.355l4.824,0.552c-0.064,0.568-6.281,57.318,10.83,104.136L586.055,2300.528z"/>
			
				<linearGradient id="SVGID_00000008838157036022775610000011531621277026373551_" gradientUnits="userSpaceOnUse" x1="1492.8378" y1="1463.8457" x2="1319.8416" y2="1651.6702">
				<stop  offset="0" style="stop-color:#FF928E"/>
				<stop  offset="1" style="stop-color:#FE7062"/>
			</linearGradient>
			<path style="fill:url(#SVGID_00000008838157036022775610000011531621277026373551_);" d="M559.027,2164.073
				c7.681-7.433,17.06-15.081,26.699-19.776c12.758-6.214,28.178-7.754,42.118-10.202c16.046-2.818,32.189-5.091,48.397-6.753
				c24.172-2.479,45.424-0.852,69.722-0.396c7.847,0.147,34.886,8.017,55.076,13.967c24.76,7.297,42.582,29.221,44.114,54.989
				c0.201,3.379,0.273,6.74,0.237,10.016c-0.535,48.755-1.599,65.218-11.061,113.394c-0.305-0.302-47.147,149.693-38.775,210.343
				c0.694,5.169-2.751,9.972-7.919,10.728c-28.043,4.171-111.691,14.536-155.117-2.87c-2.538-0.997-4.171-3.445-4.171-6.195
				c0.092-20.036-1.662-107.069-34.692-211.629c-1.208-3.898-2.235-7.857-3.052-11.876c-23.933,50.497-22.996,91.657-11.573,123.87
				c-12.752,13.629-31.55,25.385-44.756,32.728c-39.903-49.324-57.447-110.942-43.344-173.321
				c5.719-25.296,16.026-48.309,28.405-70.937C530.165,2200.352,542.661,2179.911,559.027,2164.073z"/>
			
				<linearGradient id="SVGID_00000091010409994795250740000006442573187124610229_" gradientUnits="userSpaceOnUse" x1="-2349.7007" y1="2517.6619" x2="-2192.0078" y2="2517.6619" gradientTransform="matrix(1 0 0 1 2883.2766 0)">
				<stop  offset="0" style="stop-color:#FEBBBA"/>
				<stop  offset="1" style="stop-color:#FF928E"/>
			</linearGradient>
			<path style="fill:url(#SVGID_00000091010409994795250740000006442573187124610229_);" d="M655.061,2519.452
				c-11.92-6.688-58.151-35.399-76.729-87.77c-12.757,13.615-31.539,25.381-44.756,32.718
				c19.738,24.398,46.447,48.831,81.805,72.746l0,0c1.254,27.211,22.171,37.284,26.956,46.099c4.785,8.814-2.014,6.799,1.008,17.88
				c3.021,11.08,34.752-17.629,42.307-24.176c7.555-6.548,3.022-24.68,3.022-24.68s0.503-3.777,2.518-11.332
				C693.203,2533.398,655.216,2519.509,655.061,2519.452z"/>
			<g>
				
					<linearGradient id="SVGID_00000150819940668590723590000006158044352917762700_" gradientUnits="userSpaceOnUse" x1="-2158.8765" y1="2034.4111" x2="-2226.8809" y2="2328.2874" gradientTransform="matrix(1 0 0 1 2883.2766 0)">
					<stop  offset="0" style="stop-color:#FEBBBA"/>
					<stop  offset="1" style="stop-color:#FF928E"/>
				</linearGradient>
				<path style="fill:url(#SVGID_00000150819940668590723590000006158044352917762700_);" d="M673.014,2057.295l-8.372,85.539
					c0,0,48.12,14.493,83.12-10.201l-24.604-77.741L673.014,2057.295z"/>
				<g>
					
						<linearGradient id="SVGID_00000180331516862549696760000001488430354817257356_" gradientUnits="userSpaceOnUse" x1="-3231.7312" y1="-1290.5155" x2="-3352.3721" y2="-1130.9174" gradientTransform="matrix(0.9332 -0.3594 0.3594 0.9332 4212.5142 2036.3817)">
						<stop  offset="0" style="stop-color:#FEBBBA"/>
						<stop  offset="1" style="stop-color:#FF928E"/>
					</linearGradient>
					<path style="fill:url(#SVGID_00000180331516862549696760000001488430354817257356_);" d="M754.695,1984.398
						c0.571,1.484,2.99,106.618,2.99,106.618l-60.059,0.105l-17.097-99.304C680.529,1991.816,745.125,1959.549,754.695,1984.398z"/>
					
						<linearGradient id="SVGID_00000072238979911367728460000005430117431855708825_" gradientUnits="userSpaceOnUse" x1="-3323.8662" y1="-1252.1881" x2="-3179.7578" y2="-1252.1881" gradientTransform="matrix(0.9332 -0.3594 0.3594 0.9332 4212.5142 2036.3817)">
						<stop  offset="0" style="stop-color:#09005D"/>
						<stop  offset="1" style="stop-color:#1A0F91"/>
					</linearGradient>
					<path style="fill:url(#SVGID_00000072238979911367728460000005430117431855708825_);" d="M701.114,2004.231
						c-1.951,1.832-2.944,4.445-2.697,7.111l4.835,52.214c0.074,0.792,0.246,1.56,0.536,2.301c1.599,4.085,7.737,16.68,20.519,9.69
						c10.896-5.957,20.99-11.281,29.189-11.537c4.788-0.149,8.738,3.706,8.83,8.495c0.191,9.865,0.172,29.778-2.33,47.467
						c-0.627,4.434-4.597,7.61-9.066,7.328c-11.793-0.745-34.778-2.889-53.239-8.819c-3.032-0.974-5.271-3.527-5.849-6.659
						c-2.545-13.784-9.834-52.388-13.568-62.969c-3.47-9.83-16.957-13.234-23.257-14.303c-2.391-0.406-4.489-1.773-5.82-3.8
						c-3.991-6.082-9.743-19.217,6.078-29.171c3.934-2.474,5.067-7.745,2.674-11.728c-4.288-7.139-7.371-18.152,5.137-27.575
						c12.663-9.539,24.931-5.047,32.443-0.235c3.324,2.129,7.8,2,10.736-0.639c1.306-1.174,3.097-1.848,5.531-1.232
						c4.592,1.162,9.176-1.344,10.369-5.928c2.044-7.859,7.589-16.681,22.088-17.475c26.592-1.456,35.96,26.242,33.001,44.401
						c-2.96,18.158-31.88,18.098-47.576,12.864C718.148,1990.188,706.49,1999.184,701.114,2004.231z"/>
					
						<linearGradient id="SVGID_00000057111472575138677110000013618871682220853418_" gradientUnits="userSpaceOnUse" x1="-3406.2278" y1="-1164.8258" x2="-3310.7336" y2="-1262.8002" gradientTransform="matrix(0.9332 -0.3594 0.3594 0.9332 4212.5142 2036.3817)">
						<stop  offset="0" style="stop-color:#FEBBBA"/>
						<stop  offset="1" style="stop-color:#FF928E"/>
					</linearGradient>
					<path style="fill:url(#SVGID_00000057111472575138677110000013618871682220853418_);" d="M682.983,2067.26
						c0,0,1.069-30.995-11.387-35.745c-12.455-4.749-27.61,2.65-19.216,23.188C662.821,2080.25,682.983,2067.26,682.983,2067.26z"/>
				</g>
			</g>
		</g>
		<g>
			<g>
				
					<linearGradient id="SVGID_00000142861407426161564980000010980193327969774221_" gradientUnits="userSpaceOnUse" x1="880.095" y1="1122.1519" x2="1055.1954" y2="918.9105">
					<stop  offset="0" style="stop-color:#FF928E"/>
					<stop  offset="1" style="stop-color:#FE7062"/>
				</linearGradient>
				
					<circle style="fill:url(#SVGID_00000142861407426161564980000010980193327969774221_);" cx="1058.732" cy="914.805" r="130.544"/>
				
					<linearGradient id="SVGID_00000155828069029258032810000003561644907955476907_" gradientUnits="userSpaceOnUse" x1="1154.1385" y1="770.6735" x2="636.3618" y2="1552.8866">
					<stop  offset="0" style="stop-color:#FF928E"/>
					<stop  offset="1" style="stop-color:#FE7062"/>
				</linearGradient>
				
					<circle style="fill:url(#SVGID_00000155828069029258032810000003561644907955476907_);" cx="1058.732" cy="914.805" r="126.203"/>
				<path style="opacity:0.7;fill:#FFFFFF;" d="M954.66,867.682c-0.803,0-1.618-0.181-2.384-0.569
					c-2.615-1.32-3.662-4.509-2.342-7.118c20.858-41.321,62.549-66.988,108.799-66.988c7.385,0,14.775,0.663,21.966,1.978
					c2.881,0.523,4.791,3.282,4.266,6.166c-0.526,2.878-3.285,4.814-6.166,4.26c-6.567-1.196-13.317-1.802-20.066-1.802
					c-42.227,0-80.29,23.436-99.336,61.159C958.465,866.616,956.599,867.682,954.66,867.682z"/>
				
					<ellipse transform="matrix(0.7071 -0.7071 0.7071 0.7071 -337.9085 1019.3267)" style="opacity:0.78;fill:#FFFFFF;" cx="1061.482" cy="917.555" rx="106.815" ry="106.815"/>
				<g>
					
						<linearGradient id="SVGID_00000044878192715905232800000014858199337884373651_" gradientUnits="userSpaceOnUse" x1="1160.2156" y1="569.7031" x2="1122.8687" y2="703.7133">
						<stop  offset="0" style="stop-color:#FF928E"/>
						<stop  offset="1" style="stop-color:#FE7062"/>
					</linearGradient>
					<path style="fill:url(#SVGID_00000044878192715905232800000014858199337884373651_);" d="M1051,996.963v-11.621
						c-12.115-0.485-24.097-3.344-32.608-7.07c-3.039-1.33-4.588-4.741-3.715-7.941l2.952-10.825
						c1.083-3.971,5.401-6.025,9.197-4.434c8.443,3.539,18.866,6.339,30.106,6.339c11.668,0,20.37-3.956,20.37-12.065
						c0-7.317-6.724-11.667-22.941-16.018c-23.139-6.329-39.752-16.415-39.752-36.786c0-18.393,13.449-32.435,36.785-36.192v-11.622
						c0-3.739,3.031-6.771,6.771-6.771h6.828c3.739,0,6.771,3.032,6.771,6.771v10.435c11.21,0.449,19.37,2.366,25.845,4.641
						c3.318,1.166,5.131,4.74,4.211,8.134l-2.715,10.011c-1.047,3.86-5.173,5.975-8.914,4.56
						c-5.962-2.255-14.392-4.602-25.349-4.602c-13.844,0-17.799,5.735-17.799,10.877c0,6.328,8.306,10.679,26.303,16.218
						c25.71,7.712,36.389,18.392,36.389,37.576c0,17.602-13.052,33.423-38.367,37.379v13.005c0,3.74-3.031,6.771-6.771,6.771h-6.828
						C1054.032,1003.734,1051,1000.703,1051,996.963z"/>
				</g>
			</g>
			<g>
				
					<linearGradient id="SVGID_00000175292403659341630550000006780575761058804404_" gradientUnits="userSpaceOnUse" x1="1119.3514" y1="1120.9501" x2="1424.1709" y2="767.1422">
					<stop  offset="0" style="stop-color:#FF928E"/>
					<stop  offset="1" style="stop-color:#FE7062"/>
				</linearGradient>
				
					<circle style="fill:url(#SVGID_00000175292403659341630550000006780575761058804404_);" cx="1430.328" cy="759.996" r="227.254"/>
				
					<linearGradient id="SVGID_00000172410225038620284000000013544813216370088121_" gradientUnits="userSpaceOnUse" x1="1596.4139" y1="509.0872" x2="695.0541" y2="1870.785">
					<stop  offset="0" style="stop-color:#FF928E"/>
					<stop  offset="1" style="stop-color:#FE7062"/>
				</linearGradient>
				
					<circle style="fill:url(#SVGID_00000172410225038620284000000013544813216370088121_);" cx="1430.328" cy="759.996" r="219.698"/>
				<path style="opacity:0.7;fill:#FFFFFF;" d="M1249.163,674.032c-0.803,0-1.618-0.181-2.384-0.57
					c-2.615-1.32-3.663-4.509-2.343-7.118c35.635-70.597,106.863-114.455,185.89-114.455c12.613,0,25.242,1.139,37.537,3.38
					c2.881,0.523,4.791,3.282,4.266,6.166c-0.523,2.878-3.275,4.84-6.166,4.26c-11.671-2.127-23.66-3.205-35.637-3.205
					c-75.002,0-142.604,41.622-176.427,108.626C1252.968,672.966,1251.102,674.032,1249.163,674.032z"/>
				
					<ellipse transform="matrix(0.7071 -0.7071 0.7071 0.7071 -120.4473 1238.7791)" style="opacity:0.78;fill:#FFFFFF;" cx="1435.115" cy="764.782" rx="185.947" ry="185.947"/>
				<g>
					
						<linearGradient id="SVGID_00000047018342364214837020000002252714866617549723_" gradientUnits="userSpaceOnUse" x1="1494.5105" y1="498.8835" x2="1459.3602" y2="663.6498">
						<stop  offset="0" style="stop-color:#FF928E"/>
						<stop  offset="1" style="stop-color:#FE7062"/>
					</linearGradient>
					<path style="fill:url(#SVGID_00000047018342364214837020000002252714866617549723_);" d="M1416.867,903.018v-20.23
						c-21.089-0.844-41.949-5.822-56.764-12.307c-5.29-2.315-7.987-8.253-6.467-13.825l5.139-18.844
						c1.885-6.913,9.403-10.488,16.011-7.718c14.696,6.161,32.843,11.035,52.41,11.035c20.313,0,35.461-6.887,35.461-21.003
						c0-12.737-11.705-20.311-39.937-27.885c-40.28-11.017-69.201-28.577-69.201-64.037c0-32.02,23.412-56.464,64.037-63.004
						v-20.232c0-6.51,5.278-11.787,11.787-11.787h11.886c6.51,0,11.787,5.277,11.787,11.787v18.165
						c19.514,0.781,33.72,4.118,44.993,8.079c5.776,2.029,8.932,8.251,7.33,14.16l-4.726,17.427
						c-1.823,6.72-9.004,10.401-15.518,7.938c-10.379-3.925-25.053-8.012-44.128-8.012c-24.1,0-30.984,9.984-30.984,18.935
						c0,11.017,14.459,18.59,45.788,28.232c44.758,13.427,63.348,32.018,63.348,65.413c0,30.641-22.722,58.184-66.79,65.07v22.64
						c0,6.51-5.277,11.788-11.787,11.788h-11.887C1422.145,914.805,1416.867,909.528,1416.867,903.018z"/>
				</g>
			</g>
			<g>
				
					<linearGradient id="SVGID_00000094601920461965072920000013761541055764293013_" gradientUnits="userSpaceOnUse" x1="1267.0657" y1="1638.9982" x2="1580.7213" y2="1274.9341">
					<stop  offset="0" style="stop-color:#FF928E"/>
					<stop  offset="1" style="stop-color:#FE7062"/>
				</linearGradient>
				
					<circle style="fill:url(#SVGID_00000094601920461965072920000013761541055764293013_);" cx="1587.057" cy="1267.58" r="233.842"/>
				
					<linearGradient id="SVGID_00000149350152290407113080000002706214242133415358_" gradientUnits="userSpaceOnUse" x1="1757.9572" y1="1009.3987" x2="830.4692" y2="2410.5686">
					<stop  offset="0" style="stop-color:#FF928E"/>
					<stop  offset="1" style="stop-color:#FE7062"/>
				</linearGradient>
				
					<circle style="fill:url(#SVGID_00000149350152290407113080000002706214242133415358_);" cx="1587.057" cy="1267.58" r="226.066"/>
				<path style="opacity:0.7;fill:#FFFFFF;" d="M1400.641,1178.972c-0.803,0-1.618-0.181-2.384-0.569
					c-2.615-1.32-3.663-4.509-2.343-7.118c36.642-72.595,109.881-117.691,191.142-117.691c12.945,0,25.931,1.17,38.596,3.474
					c2.881,0.523,4.791,3.282,4.268,6.16c-0.523,2.878-3.287,4.83-6.163,4.266c-12.041-2.19-24.391-3.298-36.701-3.298
					c-77.236,0-146.849,42.865-181.679,111.862C1404.445,1177.905,1402.579,1178.972,1400.641,1178.972z"/>
				
					<ellipse transform="matrix(0.7071 -0.7071 0.7071 0.7071 -433.5168 1498.41)" style="opacity:0.78;fill:#FFFFFF;" cx="1591.982" cy="1272.506" rx="191.337" ry="191.338"/>
				<g>
					
						<linearGradient id="SVGID_00000006697123981506264710000012866950445350716060_" gradientUnits="userSpaceOnUse" x1="1699.3779" y1="986.2062" x2="1578.5487" y2="1320.1333">
						<stop  offset="0" style="stop-color:#FF928E"/>
						<stop  offset="1" style="stop-color:#FE7062"/>
					</linearGradient>
					<path style="fill:url(#SVGID_00000006697123981506264710000012866950445350716060_);" d="M1573.206,1414.749v-20.817
						c-21.7-0.869-43.165-5.99-58.41-12.664c-5.444-2.383-8.219-8.492-6.655-14.225l5.288-19.39
						c1.94-7.113,9.676-10.792,16.475-7.942c15.123,6.34,33.795,11.355,53.93,11.355c20.901,0,36.488-7.087,36.488-21.612
						c0-13.106-12.044-20.9-41.094-28.693c-41.448-11.336-71.208-29.405-71.208-65.894c0-32.948,24.091-58.1,65.894-64.83v-20.819
						c0-6.698,5.431-12.129,12.129-12.129h12.231c6.699,0,12.129,5.43,12.129,12.129v18.692c20.081,0.804,34.697,4.238,46.297,8.314
						c5.943,2.088,9.191,8.49,7.542,14.57l-4.863,17.933c-1.875,6.915-9.266,10.703-15.968,8.169
						c-10.68-4.039-25.78-8.244-45.407-8.244c-24.799,0-31.883,10.273-31.883,19.484c0,11.336,14.879,19.13,47.116,29.05
						c46.054,13.816,65.184,32.946,65.184,67.31c0,31.529-23.38,59.87-68.726,66.957v23.296c0,6.698-5.431,12.129-12.129,12.129
						h-12.232C1578.637,1426.878,1573.206,1421.447,1573.206,1414.749z"/>
				</g>
			</g>
			<g>
				
					<linearGradient id="SVGID_00000029044113420605092570000000917323874086882732_" gradientUnits="userSpaceOnUse" x1="1652.5897" y1="1221.1766" x2="1882.4028" y2="954.4296">
					<stop  offset="0" style="stop-color:#FF928E"/>
					<stop  offset="1" style="stop-color:#FE7062"/>
				</linearGradient>
				
					<circle style="fill:url(#SVGID_00000029044113420605092570000000917323874086882732_);" cx="1887.045" cy="949.042" r="171.334"/>
				
					<linearGradient id="SVGID_00000078035986431630916370000007017123455782965691_" gradientUnits="userSpaceOnUse" x1="2012.262" y1="759.8741" x2="1332.6987" y2="1786.5005">
					<stop  offset="0" style="stop-color:#FF928E"/>
					<stop  offset="1" style="stop-color:#FE7062"/>
				</linearGradient>
				
					<circle style="fill:url(#SVGID_00000078035986431630916370000007017123455782965691_);" cx="1887.045" cy="949.042" r="165.637"/>
				<path style="opacity:0.7;fill:#FFFFFF;" d="M1750.458,885.537c-0.802,0-1.618-0.181-2.384-0.569
					c-2.614-1.32-3.662-4.509-2.343-7.118c27.091-53.674,81.238-87.013,141.312-87.013c9.575,0,19.175,0.865,28.535,2.573
					c2.881,0.523,4.791,3.282,4.265,6.166c-0.525,2.883-3.287,4.809-6.165,4.26c-8.736-1.589-17.697-2.397-26.635-2.397
					c-56.05,0-106.571,31.108-131.849,81.184C1754.263,884.471,1752.397,885.537,1750.458,885.537z"/>
				
					<ellipse transform="matrix(0.7071 -0.7071 0.7071 0.7071 -119.8662 1615.9189)" style="opacity:0.78;fill:#FFFFFF;" cx="1890.654" cy="952.651" rx="140.191" ry="140.191"/>
				<g>
					
						<linearGradient id="SVGID_00000116221111380390346740000005643264649111671203_" gradientUnits="userSpaceOnUse" x1="1970.4391" y1="763.8474" x2="1889.1543" y2="963.7645">
						<stop  offset="0" style="stop-color:#FF928E"/>
						<stop  offset="1" style="stop-color:#FE7062"/>
					</linearGradient>
					<path style="fill:url(#SVGID_00000116221111380390346740000005643264649111671203_);" d="M1876.896,1056.871v-15.252
						c-15.9-0.637-31.626-4.389-42.796-9.278c-3.989-1.746-6.021-6.223-4.876-10.423l3.875-14.207
						c1.422-5.211,7.09-7.907,12.072-5.819c11.08,4.645,24.761,8.32,39.514,8.32c15.314,0,26.735-5.192,26.735-15.835
						c0-9.603-8.825-15.313-30.11-21.023c-30.368-8.306-52.173-21.545-52.173-48.28c0-24.141,17.651-42.569,48.28-47.5V862.32
						c0-4.908,3.979-8.887,8.887-8.887h8.961c4.908,0,8.887,3.979,8.887,8.887v13.695c14.713,0.589,25.422,3.105,33.921,6.091
						c4.354,1.53,6.734,6.221,5.526,10.675l-3.563,13.139c-1.374,5.066-6.789,7.842-11.699,5.985
						c-7.826-2.959-18.889-6.04-33.27-6.04c-18.17,0-23.36,7.526-23.36,14.276c0,8.306,10.901,14.016,34.522,21.284
						c33.744,10.123,47.76,24.139,47.76,49.317c0,23.102-17.13,43.867-50.355,49.059v17.069c0,4.908-3.979,8.887-8.887,8.887h-8.962
						C1880.875,1065.758,1876.896,1061.779,1876.896,1056.871z"/>
				</g>
			</g>
		</g>
		<g>
			<g>
				
					<linearGradient id="SVGID_00000179605301449962240380000017101059220823641763_" gradientUnits="userSpaceOnUse" x1="14726.8828" y1="2853.8501" x2="14987.5557" y2="2220.3357" gradientTransform="matrix(0.9998 -0.0189 0.0189 0.9998 -11973.1787 19.4772)">
					<stop  offset="0" style="stop-color:#09005D"/>
					<stop  offset="1" style="stop-color:#1A0F91"/>
				</linearGradient>
				<path style="fill:url(#SVGID_00000179605301449962240380000017101059220823641763_);" d="M3080.311,2332.956
					c-19.031-70.385-77.829-128.209-143.35-142.822c-12.038-2.685-19.009-14.949-16.184-26.955c0.02-0.083,0.039-0.167,0.059-0.25
					c9.494-40.934-16.746-73.544-56.317-82.723c-39.57-9.177-77.487,8.553-86.98,49.487c-6.407,27.624,1.8,58.699,19.967,78.823
					c7.487,8.293,8.088,20.671,0.834,29.169c-39.927,46.775-56.17,118.17-38.904,182.029
					c25.432,94.06,113.875,136.078,202.483,112.121S3105.742,2427.016,3080.311,2332.956z"/>
				
					<linearGradient id="SVGID_00000004519521580153694740000017504396193632817315_" gradientUnits="userSpaceOnUse" x1="2761.2869" y1="2247.345" x2="2493.2668" y2="2499.9868">
					<stop  offset="0" style="stop-color:#A22B25"/>
					<stop  offset="1" style="stop-color:#C0423C"/>
				</linearGradient>
				<path style="fill:url(#SVGID_00000004519521580153694740000017504396193632817315_);" d="M2604.765,2231.727
					c0.616-0.297,1.273-0.508,1.95-0.616c5.915-0.944,8.244,5.752,13.417,6.24c0.976,0.092,2.125-0.118,2.595-0.978
					c1.4-2.56-0.434-4.392-1.14-6.651c-0.73-2.336-0.354-4.917,0.354-7.206c0.93-3.009,2.587-5.871,4.552-8.325
					c0,0,0.771,9.17,7.859,14.819c6.105,4.866,9.2,15.892,5.264,25.06c-8.057,33.936-20.233,78.848,31.098,110.522
					c51.33,31.674,120.972-63.89,120.972-63.89l-33.326,113.045c0,0-53.952,41.408-118.666-14.164
					c-64.667-55.533-24.149-138.864-24.09-138.985c-0.144,0.295-8.915-4.355-9.358-4.75c-3.876-3.453-4.951-9.199-5.591-14.403
					c-0.213-1.733-0.321-3.524,0.181-5.196C2601.431,2234.279,2602.916,2232.617,2604.765,2231.727z"/>
				
					<linearGradient id="SVGID_00000175306169113254059870000011305704571463218080_" gradientUnits="userSpaceOnUse" x1="3480.7808" y1="1822.2422" x2="3307.7844" y2="1985.3528">
					<stop  offset="0" style="stop-color:#FF928E"/>
					<stop  offset="1" style="stop-color:#FE7062"/>
				</linearGradient>
				<path style="fill:url(#SVGID_00000175306169113254059870000011305704571463218080_);" d="M2796.19,2288.268
					c15.084-4.834,59.097-14.065,101.844,23.914c7.25,6.442,10.351,16.378,7.986,25.783c-10.5,41.759-37.957,165.065-10.847,217.682
					c0,0-45.049,51.584-96.012,11.656c0,0-24.372-97.722-54.682-140.252c-20.926-29.361,30.362-112.315,43.356-132.368
					C2789.804,2291.647,2792.746,2289.373,2796.19,2288.268z"/>
				
					<linearGradient id="SVGID_00000096022659300295908080000006619958235037026976_" gradientUnits="userSpaceOnUse" x1="2816.6079" y1="2385.0151" x2="2860.5457" y2="2066.4668">
					<stop  offset="0" style="stop-color:#A22B25"/>
					<stop  offset="1" style="stop-color:#C0423C"/>
				</linearGradient>
				<path style="fill:url(#SVGID_00000096022659300295908080000006619958235037026976_);" d="M2836.519,2204.938
					c0,0,23.634,63.038,25.851,91.003c0,0-24.584,11.743-48.308-6.847c0,0-3.649-63.341-7.405-74.625L2836.519,2204.938z"/>
				
					<linearGradient id="SVGID_00000047033172101852183980000005056723335963345582_" gradientUnits="userSpaceOnUse" x1="-1657.4598" y1="8216.9004" x2="-1809.0453" y2="8379.4697" gradientTransform="matrix(0.9653 0.2612 -0.2612 0.9653 -3056.6516 649.0368)">
					<stop  offset="0" style="stop-color:#A22B25"/>
					<stop  offset="1" style="stop-color:#C0423C"/>
				</linearGradient>
				<path style="fill:url(#SVGID_00000047033172101852183980000005056723335963345582_);" d="M2803.721,2118.997
					c0,0-57.133,83.231-21.603,106.423c35.529,23.192,76.201-35.958,76.201-35.958s12.768-45.206-1.758-60.185
					C2842.035,2114.296,2803.721,2118.997,2803.721,2118.997z"/>
				
					<linearGradient id="SVGID_00000160158239804563845460000013033448866388818620_" gradientUnits="userSpaceOnUse" x1="14603.9082" y1="2798.1711" x2="14864.5811" y2="2164.6597" gradientTransform="matrix(0.9998 -0.0189 0.0189 0.9998 -11973.1787 19.4772)">
					<stop  offset="0" style="stop-color:#09005D"/>
					<stop  offset="1" style="stop-color:#1A0F91"/>
				</linearGradient>
				<path style="fill:url(#SVGID_00000160158239804563845460000013033448866388818620_);" d="M2830.512,2098.859
					c0,0-26.837,6.897-30.385,19.166c-3.548,12.269,38.674,22.787,50.454,23.118l10.414,49.042c0,0,27.163-46.832,15.551-73.365
					C2864.935,2090.288,2830.512,2098.859,2830.512,2098.859z"/>
				
					<linearGradient id="SVGID_00000164500157721440930750000001126885054312083355_" gradientUnits="userSpaceOnUse" x1="-1630.0112" y1="8242.4951" x2="-1781.5963" y2="8405.0645" gradientTransform="matrix(0.9653 0.2612 -0.2612 0.9653 -3056.6516 649.0368)">
					<stop  offset="0" style="stop-color:#A22B25"/>
					<stop  offset="1" style="stop-color:#C0423C"/>
				</linearGradient>
				<path style="fill:url(#SVGID_00000164500157721440930750000001126885054312083355_);" d="M2846.829,2183.633
					c0,0,22.342-26.884,31.753-9.81s-19.99,30.581-30.412,22.307L2846.829,2183.633z"/>
				
					<linearGradient id="SVGID_00000109019172550499225910000017909026738582123963_" gradientUnits="userSpaceOnUse" x1="2997.6985" y1="2964.6716" x2="3415.1072" y2="2920.7339">
					<stop  offset="0" style="stop-color:#A22B25"/>
					<stop  offset="1" style="stop-color:#C0423C"/>
				</linearGradient>
				<path style="fill:url(#SVGID_00000109019172550499225910000017909026738582123963_);" d="M2744.461,2774.479
					c0.256,4.452-6.899,39.942-10.801,58.874c-1.57,7.617-0.227,15.533,3.763,22.209l152.131,245.373
					c1.841,2.968,3.2,6.195,4.053,9.581c2.922,11.594,9.065,40.029,6.629,66.048l-7.328,15.986l32.846-8.113l5.504-88.725
					l-9.447-5.518c-8.16-4.767-14.581-12.002-18.343-20.672c-13.944-32.134-48.609-113.946-57.902-153.96
					c-10.561-45.477-61.965-81.605-61.965-81.605l8.51-21.228L2744.461,2774.479z"/>
				
					<linearGradient id="SVGID_00000155106627590424996530000008988206746410079414_" gradientUnits="userSpaceOnUse" x1="-6895.8687" y1="3284.0476" x2="-6816.6782" y2="3284.0476" gradientTransform="matrix(-1 0.0094 0.0094 1 -3964.9771 -74.391)">
					<stop  offset="0" style="stop-color:#09005D"/>
					<stop  offset="1" style="stop-color:#1A0F91"/>
				</linearGradient>
				<path style="fill:url(#SVGID_00000155106627590424996530000008988206746410079414_);" d="M2961.841,3153.262
					c0,0-18.348-27.906-20.651-38.861c-2.304-10.954-8.505-30.258-19.378-24.206c0,0-4.167,53.502-1.988,74.336
					c2.178,20.833-23.208,20.642-23.208,20.642s-6.975,1.115-12,6.332c-3.469,3.603-0.824,9.688,4.171,9.916
					c8.313,0.378,21.505,0.27,35.303-2.668c4.822-1.026,8.332-5.212,8.532-10.139l2.496-61.534l23.006,27.95L2961.841,3153.262z"/>
				
					<linearGradient id="SVGID_00000090295664409270713630000004867106127525673614_" gradientUnits="userSpaceOnUse" x1="3255.0063" y1="2533.1738" x2="3092.4368" y2="2713.3184">
					<stop  offset="0" style="stop-color:#A22B25"/>
					<stop  offset="1" style="stop-color:#C0423C"/>
				</linearGradient>
				<path style="fill:url(#SVGID_00000090295664409270713630000004867106127525673614_);" d="M2833.289,2812.345
					c0,0,9.392,221.877,10.691,253.389c1.3,31.513-3.063,101.486-34.273,122.965l13.945,9.921c0,0,16.91-14.931,33.17-43.36
					c18.265-31.937,23.86-37.815,23.86-37.815l-6.5-12.699c-2.847-5.56-3.772-11.893-2.625-18.032
					c6.196-33.184,26.904-143.559,32.672-167.353c6.809-28.088,6.625-65.421-19.488-96.182
					C2858.626,2792.419,2833.289,2812.345,2833.289,2812.345z"/>
				
					<linearGradient id="SVGID_00000047055482375847789580000002770517452961925806_" gradientUnits="userSpaceOnUse" x1="-6822.4507" y1="3298.3491" x2="-6728.0479" y2="3298.3491" gradientTransform="matrix(-1 0.0094 0.0094 1 -3964.9771 -74.391)">
					<stop  offset="0" style="stop-color:#09005D"/>
					<stop  offset="1" style="stop-color:#1A0F91"/>
				</linearGradient>
				<path style="fill:url(#SVGID_00000047055482375847789580000002770517452961925806_);" d="M2869.95,3207.755
					c0.981-0.01,1.801-0.727,1.921-1.701c0.912-7.42,4.73-37.171,8.168-44.922c3.938-8.875,16.645-46.159-0.932-48.972
					c0,0-42.348,64.448-50.546,73.184c-8.198,8.737-18.854,3.354-18.854,3.354s-8.099,2.56-14.094,10.526
					c-2.853,3.791-0.026,9.224,4.719,9.18l29.338-0.274c8.521-0.08,16.085-5.399,19.103-13.368
					c4.92-12.994,13.433-32.079,23.612-40.666l-4.4,51.536C2867.885,3206.782,2868.797,3207.766,2869.95,3207.755L2869.95,3207.755z
					"/>
				
					<linearGradient id="SVGID_00000113326194832352307670000010223548119911106189_" gradientUnits="userSpaceOnUse" x1="3508.355" y1="2116.4099" x2="3220.5247" y2="2368.2612">
					<stop  offset="0" style="stop-color:#4F52FF"/>
					<stop  offset="1" style="stop-color:#4042E2"/>
				</linearGradient>
				<path style="fill:url(#SVGID_00000113326194832352307670000010223548119911106189_);" d="M2791.767,2543.501
					c0,0,7.008,20.944-2.492,55.838l-58.842,221.173c-0.924,3.475,1.01,7.058,4.417,8.208c18.97,6.407,81.275,24.352,165.723,16.927
					c4.252-0.374,7.765-3.456,8.612-7.639c5.098-25.184,22.492-111.109,26.074-128.765c13.649-67.273,28.938-139.833-45.146-182.135
					C2856.625,2542.207,2825.295,2551.325,2791.767,2543.501z"/>
				
					<linearGradient id="SVGID_00000023275032410725830630000011629141381252628141_" gradientUnits="userSpaceOnUse" x1="-6756.0796" y1="1163.7823" x2="-6306.6763" y2="649.7308" gradientTransform="matrix(-0.9944 -0.1059 -0.1059 0.9944 -3696.4668 579.4497)">
					<stop  offset="0" style="stop-color:#A22B25"/>
					<stop  offset="1" style="stop-color:#C0423C"/>
				</linearGradient>
				<path style="fill:url(#SVGID_00000023275032410725830630000011629141381252628141_);" d="M2904.202,2320.359
					c0,0,72.8,58.212,92.124,139.27c19.325,81.058-103.035,92.022-103.035,92.022s-16.983-18.26-36.605-11.262
					c-19.622,6.997-2.141-32.386,20.965-32.72c23.106-0.334,12.748,18.137,45.152,2.715c31.566-15.022,50.403-59.997-32.107-126.074
					c-4.783-3.83-8.635-8.755-11.004-14.406C2863.16,2330.475,2875.186,2304.198,2904.202,2320.359z"/>
				<path style="fill:#BDD0FB;" d="M3052.755,2422.721l-1.722-1.208c15.863-22.513,17.899-55.011,5.313-84.808
					c-9.995-23.668-27.882-45.31-56.289-68.107c-10.585-8.497-21.808-16.561-32.662-24.355
					c-13.067-9.388-26.578-19.093-39.103-29.645c-11.265-9.495-23.117-21.276-25.602-36.686c-1.241-7.682-0.082-15.866,1.04-23.779
					c1.755-12.385,3.412-24.083-3.847-33.04l1.636-1.323c7.837,9.668,6.036,22.374,4.295,34.66c-1.1,7.756-2.236,15.78-1.048,23.146
					c2.378,14.732,13.912,26.167,24.883,35.412c12.461,10.498,25.939,20.183,38.974,29.546c10.876,7.814,22.125,15.891,32.752,24.42
					c28.691,23.027,46.775,44.932,56.912,68.929C3071.152,2366.346,3069.031,2399.62,3052.755,2422.721z"/>
				<path style="fill:#BDD0FB;" d="M3010.626,2436.306l-1.977-0.715c10.792-29.851,7.633-66.532-8.671-100.646
					c-16.163-33.809-42.583-61.374-63.793-81.614l1.451-1.521c21.342,20.359,47.931,48.109,64.241,82.23
					C3018.422,2368.656,3021.612,2405.93,3010.626,2436.306z"/>
			</g>
			<g>
				<circle style="fill:#FFFFFF;" cx="2619.201" cy="1966.153" r="129.286"/>
				
					<linearGradient id="SVGID_00000152964199786638010320000001376322146322875276_" gradientUnits="userSpaceOnUse" x1="-2434.105" y1="2243.864" x2="-2137.8396" y2="1855.0938" gradientTransform="matrix(-1 0 0 1 396.7271 0)">
					<stop  offset="0" style="stop-color:#FF928E"/>
					<stop  offset="1" style="stop-color:#FE7062"/>
				</linearGradient>
				<path style="fill:url(#SVGID_00000152964199786638010320000001376322146322875276_);" d="M2510.383,1966.153
					c0-60.001,48.815-108.816,108.817-108.816c60.002,0,108.817,48.815,108.817,108.816s-48.815,108.816-108.817,108.816
					C2559.198,2074.969,2510.383,2026.155,2510.383,1966.153z M2514.134,1966.153c0,57.934,47.133,105.066,105.067,105.066
					c57.934,0,105.067-47.132,105.067-105.066s-47.133-105.066-105.067-105.066
					C2561.267,1861.087,2514.134,1908.219,2514.134,1966.153z"/>
				
					<linearGradient id="SVGID_00000049198125862821420260000013183197206079830149_" gradientUnits="userSpaceOnUse" x1="2645.1443" y1="2048.4451" x2="2859.9832" y2="1665.7631">
					<stop  offset="0" style="stop-color:#FF928E"/>
					<stop  offset="1" style="stop-color:#FE7062"/>
				</linearGradient>
				<path style="fill:url(#SVGID_00000049198125862821420260000013183197206079830149_);" d="M2578.88,2109.859h83.833v-36.431
					c0-0.899-0.729-1.627-1.628-1.627h-79.536c-1.474,0-2.669,1.195-2.669,2.669V2109.859z"/>
				
					<linearGradient id="SVGID_00000024705075062721804710000013909496798219423887_" gradientUnits="userSpaceOnUse" x1="-2286.7813" y1="2524.896" x2="-2168.5645" y2="1911.1085" gradientTransform="matrix(-1 0 0 1 396.7271 0)">
					<stop  offset="0" style="stop-color:#FF928E"/>
					<stop  offset="1" style="stop-color:#FE7062"/>
				</linearGradient>
				<path style="fill:url(#SVGID_00000024705075062721804710000013909496798219423887_);" d="M2611.346,2305.322h19.677
					c0.782,0,1.417-0.634,1.417-1.417v-205.196c0-0.782-0.634-1.417-1.417-1.417h-19.677c-0.782,0-1.417,0.634-1.417,1.417v205.196
					C2609.929,2304.688,2610.563,2305.322,2611.346,2305.322z"/>
				
					<linearGradient id="SVGID_00000067914893961532985090000017745955752375643808_" gradientUnits="userSpaceOnUse" x1="2861.3301" y1="1870.9154" x2="2796.1548" y2="1933.8433">
					<stop  offset="0" style="stop-color:#FF928E"/>
					<stop  offset="1" style="stop-color:#FE7062"/>
				</linearGradient>
				<path style="fill:url(#SVGID_00000067914893961532985090000017745955752375643808_);" d="M2575.315,2111.442h90.372
					c0.501,0,0.907-0.406,0.907-0.907v-14.188c0-0.501-0.406-0.907-0.907-0.907h-90.372c-0.501,0-0.907,0.406-0.907,0.907v14.188
					C2574.407,2111.036,2574.813,2111.442,2575.315,2111.442z"/>
				<g>
					
						<linearGradient id="SVGID_00000039120062478691313560000002936821941134838678_" gradientUnits="userSpaceOnUse" x1="2540.3838" y1="1963.5255" x2="2591.9673" y2="1963.5255">
						<stop  offset="0" style="stop-color:#E1473D"/>
						<stop  offset="1" style="stop-color:#E9605A"/>
					</linearGradient>
					<path style="fill:url(#SVGID_00000039120062478691313560000002936821941134838678_);" d="M2540.384,1918.529h22.961
						c9.355,0,16.167,1.817,20.436,5.45c4.268,3.629,6.402,9.406,6.402,17.326c0,5.211-1.128,9.571-3.386,13.082
						c-2.256,3.508-5.334,5.631-9.233,6.369v0.615c5.089,1.274,8.76,3.655,11.018,7.141c2.256,3.488,3.386,8.125,3.386,13.911
						c0,8.167-2.185,14.558-6.555,19.174c-4.371,4.618-10.352,6.925-17.944,6.925h-27.084V1918.529z M2556.143,1954.723h7.695
						c3.529,0,6.012-0.943,7.447-2.831c1.436-1.886,2.155-4.699,2.155-8.434c0-3.732-0.822-6.409-2.463-8.031
						s-4.226-2.432-7.755-2.432h-7.079V1954.723z M2556.143,1968.697v25.177h8.433c3.488,0,6.083-1.068,7.788-3.201
						c1.701-2.135,2.554-5.438,2.554-9.91c0-8.042-3.531-12.065-10.588-12.065H2556.143z"/>
					
						<linearGradient id="SVGID_00000087385772195588036790000004415635828693869185_" gradientUnits="userSpaceOnUse" x1="2607.2959" y1="1963.5255" x2="2623.053" y2="1963.5255">
						<stop  offset="0" style="stop-color:#E1473D"/>
						<stop  offset="1" style="stop-color:#E9605A"/>
					</linearGradient>
					<path style="fill:url(#SVGID_00000087385772195588036790000004415635828693869185_);" d="M2607.296,2008.522v-89.994h15.757
						v89.994H2607.296z"/>
					
						<linearGradient id="SVGID_00000053533934747203379740000006099928711683327920_" gradientUnits="userSpaceOnUse" x1="2642.073" y1="1963.5255" x2="2699.3206" y2="1963.5255">
						<stop  offset="0" style="stop-color:#E1473D"/>
						<stop  offset="1" style="stop-color:#E9605A"/>
					</linearGradient>
					<path style="fill:url(#SVGID_00000053533934747203379740000006099928711683327920_);" d="M2699.321,1962.663
						c0,14.858-3.027,26.215-9.081,34.07c-6.052,7.859-14.763,11.789-26.129,11.789h-22.038v-89.994h24.069
						c10.465,0,18.61,3.869,24.437,11.604C2696.405,1937.869,2699.321,1948.713,2699.321,1962.663z M2682.146,1963.157
						c0-20.108-5.539-30.163-16.619-30.163h-6.709v60.878h5.417c6.114,0,10.628-2.556,13.542-7.665
						C2680.688,1981.099,2682.146,1973.416,2682.146,1963.157z"/>
				</g>
			</g>
			
				<linearGradient id="SVGID_00000001655287287213626360000008528967756508682383_" gradientUnits="userSpaceOnUse" x1="14507.8496" y1="2238.6401" x2="14532.8311" y2="2238.6401" gradientTransform="matrix(1 0 0 1 -11913.6309 0)">
				<stop  offset="0" style="stop-color:#A22B25"/>
				<stop  offset="1" style="stop-color:#C0423C"/>
			</linearGradient>
			<path style="fill:url(#SVGID_00000001655287287213626360000008528967756508682383_);" d="M2594.782,2233.91
				c-0.911,7.425-0.524,15.281-0.173,17.911c0.288,2.158,0.911,4.599,2.858,5.573c4.532,2.267,14.182-4.095,18.025-6.292
				c1.412-0.807,2.892-1.768,3.458-3.292c0.582-1.568,0.042-3.305-0.497-4.887c-1.945-5.71-3.926-11.494-7.274-16.514
				c-2.05-3.074-7.42-9.162-11.473-6.226C2596.061,2222.824,2595.276,2229.89,2594.782,2233.91z"/>
		</g>
	</g>
</g>
</svg>
