<?xml version="1.0" encoding="utf-8"?>
<!-- Generator: Adobe Illustrator 27.5.0, SVG Export Plug-In . SVG Version: 6.00 Build 0)  -->
<svg version="1.1" xmlns="http://www.w3.org/2000/svg" xmlns:xlink="http://www.w3.org/1999/xlink" x="0px" y="0px"
	 viewBox="0 0 3710 3710" style="enable-background:new 0 0 3710 3710;" xml:space="preserve">
<g id="Background">
	<g>
		<g>
			<rect style="fill:#FFFFFF;" width="3710" height="3710"/>
		</g>
	</g>
</g>
<g id="Illustration">
	<g>
		<linearGradient id="SVGID_1_" gradientUnits="userSpaceOnUse" x1="3592.8328" y1="4040.7302" x2="1133.2109" y2="986.0343">
			<stop  offset="0" style="stop-color:#DAE3FE"/>
			<stop  offset="1" style="stop-color:#E9EFFD"/>
		</linearGradient>
		<path style="fill:url(#SVGID_1_);" d="M2916.175,2836.069c-56.497,59.477-109.953,97.833-152.188,128.137
			c-496.463,356.218-1083.911,252.382-1208.761,227.024c-184.363-37.445-540.733-109.826-798.382-412.816
			c-389.802-458.399-329.104-1180.593-26.747-1657.323c55.306-87.202,347.447-571.194,941.222-648.811
			c359.346-46.973,778.229,47.766,1081.572,301.907C3389.635,1307.652,3344.305,2385.346,2916.175,2836.069z"/>
		<g>
			<g>
				<path style="fill:#BDD0FB;" d="M3121.137,882.331c-4.441-14.831-25.859-13.849-28.857,1.34
					c-28.987,146.839-117.055,529.497-282.233,741.889c-268.948,345.823-423.566,885.149-213.627,1141.636
					C2596.419,2767.196,3604.97,2498.261,3121.137,882.331z"/>
				<path style="opacity:0.43;fill:#FFFFFF;" d="M3108.938,1089.556c0.006,4.724-0.365,8.623-0.579,12.834l-0.902,12.399
					l-2.077,24.752c-1.497,16.486-3.247,32.944-4.998,49.402c-3.619,32.901-7.647,65.755-11.977,98.572
					c-8.78,65.617-19.336,130.988-30.873,196.186c-11.446,65.221-24.716,130.121-39.356,194.713
					c-14.695,64.576-30.311,128.97-48.036,192.815c-35.194,127.736-77.369,253.68-128.273,376.138
					c-26.092,60.948-53.789,121.246-84.926,179.809c-31.546,58.317-65.589,115.323-103.635,169.591
					c-0.827,1.18-2.454,1.466-3.635,0.638c-1.151-0.806-1.451-2.374-0.699-3.546l0.02-0.03
					c35.78-55.501,68.512-112.824,98.362-171.631c30.019-58.732,56.594-119.156,81.558-180.18
					c24.938-61.057,47.41-123.107,68.47-185.619c21.038-62.537,39.477-125.914,57.555-189.376
					c35.624-127.115,64.444-256.081,89.699-385.711c12.49-64.849,23.674-129.958,33.7-195.249
					c5.065-32.638,9.831-65.325,14.19-98.068l6.153-49.156l2.824-24.599l1.274-12.301c0.353-4.036,0.799-8.369,0.962-11.913
					l0.026-0.585c0.066-1.427,1.275-2.532,2.702-2.466C3107.854,1087.038,3108.934,1088.185,3108.938,1089.556z"/>
			</g>
			<g>
				<path style="fill:#91B3FA;" d="M2597.604,595.274c-8.118-12.389-27.492-5.646-26.098,9.101
					c13.476,142.567,37.103,517.508-56.433,757.343c-152.298,390.507-146.961,927.276,115.534,1105.216
					C2630.607,2466.935,3482.133,1945.173,2597.604,595.274z"/>
				<path style="opacity:0.43;fill:#FFFFFF;" d="M2642.991,788.621c1.298,4.34,2.022,8.012,2.976,11.933l2.558,11.617l4.854,23.265
					c3.129,15.528,6.017,31.097,8.904,46.667c5.663,31.159,10.939,62.386,15.927,93.661c9.86,62.57,18.019,125.398,25.235,188.337
					c7.306,62.933,12.845,126.072,17.042,189.301c4.143,63.229,7.392,126.544,8.558,189.932
					c2.575,126.746-1.755,253.754-15.038,379.946c-7.31,63.012-16.271,125.867-28.859,188.067
					c-13.036,62.087-28.716,123.65-48.823,183.791c-0.446,1.332-1.886,2.05-3.218,1.605c-1.299-0.434-2.014-1.814-1.637-3.116
					l0.01-0.033c17.648-60.663,32.015-122.16,43.333-184.233c11.496-62.048,19.374-124.708,25.61-187.478
					c6.205-62.793,9.885-125.824,12.14-188.893c2.231-63.086,1.844-126.234,1.115-189.361
					c-1.999-126.284-10.757-252.411-22.941-378.177c-6.228-62.876-13.728-125.635-22.333-188.245
					c-4.252-31.312-8.792-62.589-13.72-93.805l-7.757-46.758l-4.115-23.33l-2.183-11.629c-0.777-3.796-1.549-7.895-2.362-11.18
					l-0.138-0.555c-0.335-1.351,0.489-2.718,1.84-3.052C2641.281,786.572,2642.607,787.343,2642.991,788.621z"/>
			</g>
		</g>
		<g>
			
				<linearGradient id="SVGID_00000121959145792612904310000001693435740833771408_" gradientUnits="userSpaceOnUse" x1="612.4609" y1="2324.1433" x2="2470.2534" y2="1933.7389">
				<stop  offset="0" style="stop-color:#09005D"/>
				<stop  offset="1" style="stop-color:#1A0F91"/>
			</linearGradient>
			<path style="fill:url(#SVGID_00000121959145792612904310000001693435740833771408_);" d="M608.239,2934.16
				c35.693-360.031,125.013-1254.253,144.513-1384.956c24.508-164.274,225.808-128.019,225.808-128.019l43.106,1662.381H740.993
				c-37.72,0-73.693-16.261-98.974-44.771C616.737,3010.285,604.45,2972.382,608.239,2934.16z"/>
			
				<linearGradient id="SVGID_00000081613495831621067710000011590332769942372020_" gradientUnits="userSpaceOnUse" x1="2394.167" y1="1205.5424" x2="1795.095" y2="2524.8486">
				<stop  offset="0" style="stop-color:#09005D"/>
				<stop  offset="1" style="stop-color:#1A0F91"/>
			</linearGradient>
			<path style="fill:url(#SVGID_00000081613495831621067710000011590332769942372020_);" d="M2878.977,3125.472
				c87.646-1.859,157.188-74.418,155.329-162.064l-28.627-1349.572c-1.579-74.454-61.229-134.61-135.668-136.819l-1958.739-58.112
				c-58.252-1.729-106.361,45.118-106.184,103.394l4.698,1547.375c0.166,54.758,45.217,98.73,99.965,97.569L2878.977,3125.472z"/>
			<g>
				<path style="fill:#91B3FA;" d="M3005.211,3012.181c28.045-0.432,49.225-25.551,44.868-53.261
					c-28.902-183.766-119.642-815.871-90.534-1340.699c1.326-23.933-17.219-44.286-41.177-45.05l-1967.562-62.765
					c-26.978-0.863-49.586,20.205-50.609,47.179c-8.366,220.647-39.531,1129.285,1.242,1452.282
					c2.481,19.659,19.386,34.262,39.199,33.958L3005.211,3012.181z"/>
				<path style="opacity:0.6;fill:#FFFFFF;" d="M2955.5,2991.516c26.99-0.412,47.374-24.588,43.179-51.253
					c-27.812-176.847-115.136-785.15-87.125-1290.215c1.277-23.032-16.568-42.619-39.624-43.355l-1893.474-60.401
					c-25.963-0.827-47.72,19.445-48.703,45.403c-8.053,212.341-38.043,1086.763,1.195,1397.597
					c2.388,18.917,18.657,32.97,37.721,32.679L2955.5,2991.516z"/>
			</g>
			<path style="opacity:0.72;fill:#FFFFFF;" d="M1791.724,1927.571l2.891,136.367c0.442,20.814-16.248,37.959-37.065,38.076
				l-139.873,0.79c-20.365,0.115-37.055-16.132-37.487-36.494l-3.042-143.364c-0.456-21.549,17.396-38.995,38.93-38.04l140.02,6.207
				C1775.723,1891.984,1791.307,1907.93,1791.724,1927.571z"/>
			<path style="opacity:0.72;fill:#FFFFFF;" d="M2280.751,2100.866l-139.872,0.792c-20.365,0.114-37.055-16.134-37.488-36.496
				l-2.587-121.935c-0.454-21.424,17.2-38.822,38.616-38.051l139.995,5.028c19.752,0.709,35.52,16.708,35.938,36.47l2.463,116.117
				C2318.259,2083.605,2301.571,2100.749,2280.751,2100.866z"/>
			<path style="opacity:0.72;fill:#FFFFFF;" d="M2158.202,2708.286l133.051-1.289c22.289-0.218,40.602,17.538,41.075,39.823
				l2.643,124.6c0.469,22.132-16.841,40.58-38.959,41.515l-132.96,5.629c-22.788,0.965-41.916-16.987-42.4-39.791l-2.737-128.936
				C2117.435,2727.188,2135.546,2708.506,2158.202,2708.286z"/>
			<path style="opacity:0.72;fill:#FFFFFF;" d="M2382.046,2868.42l-2.585-121.826c-0.473-22.262,17.33-40.621,39.594-40.838
				l134.448-1.303c21.906-0.212,39.906,17.24,40.371,39.141l2.49,117.444c0.462,21.752-16.553,39.883-38.292,40.804l-134.354,5.687
				C2401.322,2908.477,2382.52,2890.832,2382.046,2868.42z"/>
			<path style="opacity:0.72;fill:#FFFFFF;" d="M2370.378,2318.427l-2.121-100.006c-0.512-24.151,18.948-43.992,43.103-43.948
				l128.389,0.231c23.382,0.042,42.453,18.747,42.949,42.125l2.028,95.574c0.5,23.57-18.057,43.154-41.619,43.926l-128.294,4.198
				C2390.865,2361.312,2370.886,2342.383,2370.378,2318.427z"/>
			<path style="opacity:0.72;fill:#FFFFFF;" d="M2376.542,2609.046l-3.243-152.963c-0.467-21.901,16.777-40.1,38.674-40.818
				l131.302-4.296c23.95-0.784,43.928,18.142,44.436,42.1l3.272,154.265c0.475,22.413-17.563,40.837-39.979,40.84l-134.475,0.014
				C2394.772,2648.192,2377.004,2630.798,2376.542,2609.046z"/>
			<path style="opacity:0.72;fill:#FFFFFF;" d="M2019.169,2102.345l-139.871,0.789c-20.365,0.116-37.055-16.132-37.487-36.494
				l-2.816-132.818c-0.456-21.423,17.201-38.821,38.615-38.052l139.994,5.028c19.751,0.71,35.519,16.711,35.938,36.473
				l2.694,126.998C2056.677,2085.083,2039.988,2102.228,2019.169,2102.345z"/>
			<path style="opacity:0.72;fill:#FFFFFF;" d="M2114.916,2608.392l-3.035-143.063c-0.473-22.282,17.072-40.8,39.349-41.529
				l132.987-4.353c22.643-0.741,41.531,17.154,42.011,39.804l3.127,147.401c0.484,22.802-17.867,41.548-40.675,41.552l-133.08,0.015
				C2133.461,2648.22,2115.385,2630.524,2114.916,2608.392z"/>
			<path style="opacity:0.72;fill:#FFFFFF;" d="M1875.657,2173.506l152.744,0.277c16.769,0.029,30.443,13.441,30.8,30.205
				l2.917,137.562c0.357,16.904-12.949,30.946-29.845,31.5l-152.632,4.994c-17.173,0.563-31.5-13.01-31.863-30.188l-3.03-142.836
				C1844.379,2187.702,1858.334,2173.474,1875.657,2173.506z"/>
			<path style="opacity:0.72;fill:#FFFFFF;" d="M1797.741,2211.26l2.78,131.012c0.451,21.243-16.274,38.895-37.51,39.589
				l-136.79,4.477c-21.584,0.706-39.589-16.351-40.047-37.942l-2.88-135.738c-0.461-21.766,17.077-39.65,38.848-39.61l136.89,0.248
				C1780.107,2173.333,1797.295,2190.19,1797.741,2211.26z"/>
			<path style="opacity:0.72;fill:#FFFFFF;" d="M2293.705,2364.491l-152.635,4.997c-17.174,0.562-31.499-13.011-31.863-30.189
				l-2.839-133.806c-0.368-17.318,13.588-31.546,30.909-31.515l152.747,0.275c16.768,0.032,30.443,13.444,30.799,30.207
				l2.725,128.533C2323.907,2349.895,2310.602,2363.939,2293.705,2364.491z"/>
			<path style="opacity:0.72;fill:#FFFFFF;" d="M1889.799,2432.357l132.985-4.353c22.642-0.741,41.53,17.153,42.011,39.804
				l2.945,138.871c0.484,22.803-17.868,41.55-40.675,41.552l-133.078,0.016c-22.138,0.003-40.215-17.693-40.684-39.826
				l-2.855-134.534C1849.978,2451.602,1867.52,2433.085,1889.799,2432.357z"/>
			<path style="opacity:0.72;fill:#FFFFFF;" d="M1623.766,2441.065l142.297-4.658c20.051-0.658,36.777,15.19,37.201,35.248
				l2.966,139.809c0.429,20.193-15.823,36.793-36.02,36.796l-142.396,0.016c-19.603,0.003-35.613-15.669-36.028-35.268
				l-2.868-135.169C1588.502,2458.107,1604.037,2441.709,1623.766,2441.065z"/>
			<path style="opacity:0.72;fill:#FFFFFF;" d="M2522.773,2097.691l-106.161,0.599c-28.237,0.158-51.378-22.368-51.976-50.599
				l-1.858-87.585c-0.562-26.464,21.248-47.955,47.7-47.005l118.147,4.242c26.805,0.963,48.204,22.678,48.771,49.496l1.552,73.145
				C2579.617,2071.53,2554.324,2097.513,2522.773,2097.691z"/>
			<path style="opacity:0.72;fill:#FFFFFF;" d="M2641.086,2747.138c-0.508-23.958,18.648-43.716,42.609-43.948l46.246-0.449
				c35.147-0.342,63.885,22.889,64.506,52.147l1.796,84.667c0.615,29.018-26.668,53.333-61.496,54.807l-49.65,2.101
				c-22.396,0.949-41.199-16.694-41.674-39.107L2641.086,2747.138z"/>
			<path style="opacity:0.72;fill:#FFFFFF;" d="M1154.032,2718.027l90.949-0.882c22.308-0.215,40.636,17.556,41.108,39.858
				l3.366,158.642c0.47,22.15-16.856,40.614-38.99,41.551l-90.535,3.832c-36.1,1.529-66.385-22.006-67.022-52.081l-2.887-136.047
				C1089.388,2743.066,1118.191,2718.376,1154.032,2718.027z"/>
			<path style="opacity:0.72;fill:#FFFFFF;" d="M2726.267,2648.154l-45.142,0.006c-23.416,0.001-42.535-18.715-43.031-42.124
				l-3.298-155.499c-0.502-23.57,18.055-43.155,41.618-43.926l45.438-1.487c35.825-1.173,65.649,22.276,66.282,52.109l2.885,136.044
				C2791.658,2623.354,2762.397,2648.15,2726.267,2648.154z"/>
			<path style="opacity:0.72;fill:#FFFFFF;" d="M2722.469,2350.459l-56.829,1.86c-18.112,0.592-33.22-13.722-33.605-31.841
				l-2.382-112.313c-0.388-18.265,14.332-33.272,32.598-33.24l57.385,0.105c34.801,0.062,63.004,23.179,63.617,52.149l1.452,68.444
				C2785.326,2324.881,2757.598,2349.309,2722.469,2350.459z"/>
			<path style="opacity:0.72;fill:#FFFFFF;" d="M1139.505,1867.454l91.204,3.276c20.547,0.737,36.949,17.382,37.385,37.938
				l3.324,156.7c0.459,21.652-16.901,39.487-38.558,39.608l-93.911,0.531c-35.027,0.198-63.573-22.993-64.192-52.148l-2.78-131.077
				C1071.32,1891.293,1102.326,1866.118,1139.505,1867.454z"/>
			<path style="opacity:0.72;fill:#FFFFFF;" d="M1896.642,2710.824l133.051-1.291c22.288-0.215,40.602,17.541,41.076,39.825
				l2.822,133.125c0.47,22.133-16.841,40.58-38.959,41.516l-132.958,5.627c-22.788,0.966-41.917-16.986-42.401-39.788
				l-2.917-137.465C1855.877,2729.724,1873.988,2711.044,1896.642,2710.824z"/>
			<path style="opacity:0.72;fill:#FFFFFF;" d="M1143.344,2172.183l92.442,0.166c21.074,0.04,38.26,16.897,38.707,37.965
				l3.163,149.071c0.452,21.243-16.273,38.894-37.509,39.589l-92.816,3.039c-35.824,1.173-65.648-22.276-66.281-52.11
				l-2.606-122.843C1077.803,2196.935,1107.153,2172.118,1143.344,2172.183z"/>
			<path style="opacity:0.72;fill:#FFFFFF;" d="M1146.711,2456.677l96.488-3.157c20.051-0.656,36.777,15.19,37.203,35.248
				l2.604,122.755c0.429,20.193-15.823,36.793-36.02,36.796l-96.949,0.011c-34.858,0.004-63.148-23.133-63.764-52.15l-1.797-84.666
				C1083.855,2482.255,1111.582,2457.827,1146.711,2456.677z"/>
			<path style="opacity:0.72;fill:#FFFFFF;" d="M1541.832,2480.212l2.786,131.282c0.427,20.192-15.822,36.794-36.02,36.797
				l-142.396,0.015c-19.604,0.002-35.612-15.668-36.028-35.27l-2.687-126.641c-0.419-19.732,15.118-36.13,34.845-36.774
				l142.297-4.658C1524.68,2444.306,1541.406,2460.154,1541.832,2480.212z"/>
			<path style="opacity:0.72;fill:#FFFFFF;" d="M1373.557,2715.898l132.984-1.289c22.307-0.216,40.636,17.554,41.109,39.857
				l3.185,150.115c0.47,22.15-16.856,40.612-38.99,41.551l-132.893,5.623c-22.807,0.968-41.953-17-42.436-39.823l-3.277-154.448
				C1332.757,2734.815,1350.884,2716.118,1373.557,2715.898z"/>
			<path style="opacity:0.72;fill:#FFFFFF;" d="M2714.995,2096.604l-55.651,0.314c-17.778,0.101-32.349-14.083-32.725-31.857
				l-2.33-109.851c-0.396-18.702,15.014-33.89,33.709-33.218l58.946,2.116c33.741,1.212,60.392,23.979,60.988,52.101l1.39,65.521
				C2779.956,2071.665,2750.96,2096.401,2714.995,2096.604z"/>
			<path style="opacity:0.72;fill:#FFFFFF;" d="M1635.118,2713.362l130.746-1.269c23.548-0.229,42.895,18.53,43.394,42.072
				l2.956,139.35c0.47,22.151-16.856,40.614-38.993,41.55l-132.89,5.625c-22.807,0.965-41.953-17.001-42.436-39.823l-3.096-145.922
				C1594.317,2732.277,1612.444,2713.581,1635.118,2713.362z"/>
			<path style="opacity:0.72;fill:#FFFFFF;" d="M1529.908,1918.073l3.094,145.818c0.46,21.653-16.903,39.486-38.559,39.608
				l-136.869,0.773c-21.185,0.12-38.549-16.781-38.998-37.963l-3.213-151.512c-0.474-22.286,17.892-40.385,40.171-39.584
				l136.989,4.919C1513.071,1880.871,1529.473,1897.516,1529.908,1918.073z"/>
			<path style="opacity:0.72;fill:#FFFFFF;" d="M1536.116,2210.786l2.971,140.042c0.451,21.244-16.274,38.895-37.509,39.589
				l-136.791,4.477c-21.584,0.707-39.588-16.352-40.046-37.944l-3.071-144.766c-0.463-21.766,17.076-39.648,38.848-39.609
				l136.89,0.247C1518.483,2172.86,1535.671,2189.717,1536.116,2210.786z"/>
			<path style="fill:#FFFFFF;" d="M2730.174,1805.979l-6.302,46.178c-2.018,14.786-14.49,25.908-29.411,26.225l-2.181,0.046
				c-16.748,0.355-30.615-12.934-30.969-29.683l-1.001-47.269c-0.39-18.319,15.43-32.797,33.644-30.793l9.486,1.044
				C2720.397,1773.594,2732.481,1789.074,2730.174,1805.979z"/>
			<path style="fill:#FFFFFF;" d="M2515.839,1794.092l-6.302,46.178c-2.017,14.787-14.49,25.908-29.41,26.225l-2.182,0.047
				c-16.749,0.354-30.614-12.934-30.968-29.683l-1.004-47.268c-0.388-18.32,15.43-32.799,33.644-30.794l9.486,1.044
				C2506.062,1761.707,2518.145,1777.189,2515.839,1794.092z"/>
			<path style="fill:#FFFFFF;" d="M2252.127,1797.723l-6.303,46.178c-2.017,14.786-14.49,25.908-29.41,26.225l-2.182,0.046
				c-16.749,0.356-30.614-12.934-30.968-29.683l-1.004-47.269c-0.388-18.32,15.43-32.797,33.646-30.793l9.486,1.044
				C2242.35,1765.338,2254.433,1780.818,2252.127,1797.723z"/>
			<path style="fill:#FFFFFF;" d="M1995.194,1786.217l-6.301,46.177c-2.018,14.786-14.49,25.908-29.411,26.225l-2.181,0.044
				c-16.749,0.357-30.615-12.934-30.969-29.682l-1.003-47.269c-0.389-18.32,15.431-32.797,33.643-30.794l9.487,1.044
				C1985.417,1753.831,1997.502,1769.311,1995.194,1786.217z"/>
			<path style="fill:#FFFFFF;" d="M1731.298,1752.659l-6.303,46.179c-2.017,14.785-14.491,25.908-29.41,26.225l-2.182,0.046
				c-16.749,0.356-30.614-12.935-30.969-29.684l-1.004-47.266c-0.388-18.32,15.43-32.799,33.645-30.795l9.486,1.044
				C1721.521,1720.274,1733.604,1735.755,1731.298,1752.659z"/>
			<path style="fill:#FFFFFF;" d="M1451.74,1758.589l-6.301,46.178c-2.018,14.785-14.491,25.907-29.411,26.224l-2.181,0.046
				c-16.749,0.356-30.614-12.934-30.969-29.683l-1.002-47.266c-0.388-18.32,15.43-32.799,33.644-30.795l9.487,1.044
				C1441.964,1726.205,1454.047,1741.686,1451.74,1758.589z"/>
			<path style="fill:#FFFFFF;" d="M1215.776,1753.648l-6.302,46.178c-2.017,14.786-14.491,25.908-29.41,26.225l-2.182,0.046
				c-16.749,0.356-30.614-12.934-30.969-29.683l-1.004-47.268c-0.388-18.32,15.431-32.798,33.646-30.793l9.486,1.044
				C1206,1721.263,1218.083,1736.743,1215.776,1753.648z"/>
			<g>
				<path style="fill:#BDD0FB;" d="M812.508,1986.585c2.727,0,4.946-2.202,4.965-4.933l2.108-304.305
					c0.018-2.742-2.189-4.981-4.932-5c0,0-0.023,0-0.035,0c-2.727,0-4.946,2.201-4.965,4.932l-2.108,304.305
					c-0.018,2.743,2.189,4.982,4.932,5C812.473,1986.583,812.496,1986.585,812.508,1986.585z"/>
			</g>
			
				<ellipse transform="matrix(0.7071 -0.7071 0.7071 0.7071 -402.3453 2384.6616)" style="fill:#7D97F4;" cx="2677.369" cy="1678.005" rx="53.088" ry="53.088"/>
			
				<ellipse transform="matrix(0.9239 -0.3827 0.3827 0.9239 -469.8895 985.5471)" style="fill:#7D97F4;" cx="2242.395" cy="1673.92" rx="53.088" ry="53.088"/>
			<circle style="fill:#7D97F4;" cx="1803.336" cy="1659.625" r="53.088"/>
			
				<ellipse transform="matrix(0.9239 -0.3827 0.3827 0.9239 -523.1362 648.4271)" style="fill:#7D97F4;" cx="1368.362" cy="1639.204" rx="53.088" ry="53.088"/>
			<g>
				<path style="fill:#91B3FA;" d="M1327.986,1271.34c89.336,19.492,80.907,254.526,73.719,349.947
					c-1.692,22.454-20.393,39.775-42.911,39.775c-6.251,0-12.208-2.692-16.383-7.344c-4.176-4.652-6.171-10.876-5.505-17.092
					c7.717-72.121,24.137-279.814-41.631-290.919c0,0-47.177-8.348-55.114,83.035h-51.039
					C1189.121,1428.743,1215.668,1246.835,1327.986,1271.34z"/>
				<path style="fill:#91B3FA;" d="M1762.96,1283.427c89.336,19.492,80.908,254.609,73.719,350.031
					c-1.692,22.454-20.393,39.817-42.911,39.817c-6.251,0-12.208-2.671-16.383-7.323c-4.176-4.652-6.171-10.866-5.505-17.081
					c7.717-72.121,24.137-279.975-41.631-291.081c0,0-47.177-6.523-55.113,82.874h-51.04
					C1624.095,1440.663,1650.643,1258.921,1762.96,1283.427z"/>
				<path style="fill:#91B3FA;" d="M2197.934,1295.57c89.336,19.492,80.907,254.664,73.719,350.085
					c-1.692,22.454-20.393,39.845-42.911,39.845c-6.251,0-12.208-2.657-16.383-7.31c-4.176-4.652-6.171-10.859-5.505-17.074
					c7.717-72.121,24.137-280.081-41.631-291.187c0,0-47.155-5.311-55.092,84.543l-51.061-1.776
					C2059.069,1452.697,2085.617,1271.064,2197.934,1295.57z"/>
				<path style="fill:#91B3FA;" d="M2632.908,1309.613c89.336,19.491,80.907,254.79,73.718,350.211
					c-1.692,22.454-20.393,39.907-42.911,39.907c-6.251,0-12.208-2.626-16.383-7.278c-4.176-4.652-6.171-10.843-5.505-17.059
					c7.717-72.121,24.137-280.325-41.631-291.431c0,0-47.177-6.872-55.114,82.524h-51.039
					C2494.043,1466.488,2520.591,1285.108,2632.908,1309.613z"/>
			</g>
		</g>
		<g>
			
				<linearGradient id="SVGID_00000124142961783728923180000009105457210812016033_" gradientUnits="userSpaceOnUse" x1="1795.6161" y1="788.0582" x2="729.1923" y2="1971.8392">
				<stop  offset="0" style="stop-color:#09005D"/>
				<stop  offset="1" style="stop-color:#1A0F91"/>
			</linearGradient>
			<path style="fill:url(#SVGID_00000124142961783728923180000009105457210812016033_);" d="M1850.437,724.413
				c-382.091-65.299-801.093-75.554-1268.407,0.774c-25.072,4.095-44.915,20.494-50.352,41.669
				c-102.107,397.693-92.448,820.974-9.649,1261.001c12.066,64.124,45.281,124.557,96.48,174.661
				c160.059,156.635,350.345,293.169,583.303,401.322c228.312-114.391,430.354-241.221,593.603-386.42
				c63.773-56.721,102.865-128.608,111.151-204.79c49.186-452.211,58.208-874.746-5.888-1243.253
				C1896.769,746.907,1876.669,728.896,1850.437,724.413z"/>
			
				<linearGradient id="SVGID_00000085960226876916456490000012492293579851468694_" gradientUnits="userSpaceOnUse" x1="1411.1843" y1="1210.9849" x2="2299.6511" y2="171.0732">
				<stop  offset="0" style="stop-color:#4F52FF"/>
				<stop  offset="1" style="stop-color:#4042E2"/>
			</linearGradient>
			<path style="fill:url(#SVGID_00000085960226876916456490000012492293579851468694_);" d="M1740.521,825.004
				c-314.626-55.245-658.573-65.285-1040.566-5.182c-45.231,7.117-80.875,37.023-89.729,75.341
				c-78.842,341.211-69.001,703.398-0.503,1079.459c10.297,56.531,38.642,109.81,82.334,153.982
				c136.591,138.09,298.976,258.458,497.778,353.806c194.836-100.847,367.254-212.661,506.567-340.669
				c54.422-50.006,87.782-113.381,94.853-180.543c41.916-398.119,49.652-770.149-4.798-1094.708
				C1782.989,845.83,1764.595,829.231,1740.521,825.004z"/>
			
				<linearGradient id="SVGID_00000098941163549868200210000015362705641056970117_" gradientUnits="userSpaceOnUse" x1="877.8417" y1="1187.5842" x2="720.8406" y2="-718.39">
				<stop  offset="0" style="stop-color:#09005D"/>
				<stop  offset="1" style="stop-color:#1A0F91"/>
			</linearGradient>
			<path style="opacity:0.35;fill:url(#SVGID_00000098941163549868200210000015362705641056970117_);" d="M1190.136,779.973
				c-163.442,1.311-329.172,15.096-504.85,43.791c-33.657,5.498-59.964,27.718-66.798,56.228
				c-82.905,345.898-73.712,713.552-4.139,1095.517c10.297,56.531,38.425,109.81,82.117,153.982
				c135.695,137.185,297.929,256.866,493.67,351.915V779.973z"/>
		</g>
		<g>
			<g>
				<g>
					
						<rect x="588.32" y="868.774" transform="matrix(0.4604 -0.8877 0.8877 0.4604 -395.3194 1520.8009)" style="fill:#91B3FA;" width="929.984" height="433.612"/>
					<path style="opacity:0.5;fill:#FFFFFF;" d="M1132.433,660.648l220.248,114.232c-9.194,17.726-0.711,41.031,18.919,51.212
						c0.624,0.323,2.127,1.072,2.143,1.041l-345.606,666.356c0.016-0.031-1.458-0.836-2.082-1.159
						c-19.63-10.181-43.142-4.133-52.49,13.891c-0.138,0.265-0.43,0.529-0.43,0.529l-215.29-111.66
						c15.761-30.389-2.937-43.688-22.566-53.869c-0.624-0.323-0.88-0.12-0.896-0.089l345.606-666.357
						c-0.016,0.031,0.09,0.118,0.714,0.441C1100.332,685.398,1123.24,678.375,1132.433,660.648z"/>
					<g>
						
							<linearGradient id="SVGID_00000036935272565993122440000017783734297516150716_" gradientUnits="userSpaceOnUse" x1="3846.7188" y1="3847.3228" x2="3753.2271" y2="5050.2505" gradientTransform="matrix(0.4604 -0.8877 0.8877 0.4604 -4215.8335 2677.0969)">
							<stop  offset="0" style="stop-color:#50E7B7"/>
							<stop  offset="0.9964" style="stop-color:#323992"/>
						</linearGradient>
						
							<circle style="fill:url(#SVGID_00000036935272565993122440000017783734297516150716_);" cx="1052.477" cy="1084.636" r="136.414"/>
						<g>
							<path style="fill:#FFFFFF;" d="M1127.813,1139.244l-12.805-6.641c-7.458,13.072-17.455,24.641-26.424,31.889
								c-3.203,2.589-7.846,2.347-10.874-0.445l-10.24-9.439c-3.756-3.463-3.552-9.395,0.371-12.668
								c8.724-7.28,17.766-17.165,24.19-29.551c6.668-12.857,7.282-24.706-1.652-29.34c-8.062-4.182-16.698,0.741-30.76,16.124
								c-20.197,21.88-40.805,34.42-63.25,22.779c-20.267-10.511-28.052-33.354-18.856-61.215l-12.806-6.642
								c-4.121-2.137-5.728-7.21-3.591-11.33l3.902-7.523c2.137-4.121,7.209-5.728,11.33-3.591l11.498,5.963
								c6.901-12.095,13.676-19.991,19.885-25.826c3.18-2.99,8.154-2.945,11.368,0.009l9.479,8.713
								c3.655,3.36,3.627,9.114-0.069,12.428c-5.892,5.281-13.296,13.227-19.558,25.301c-7.911,15.255-3.853,22.889,1.813,25.828
								c6.974,3.617,16.514-3.049,32.901-19.714c23.191-23.921,41.062-29.585,62.199-18.621
								c19.394,10.058,29.368,33.482,19.261,63.635l14.33,7.433c4.12,2.137,5.728,7.21,3.591,11.331l-3.902,7.524
								C1137.006,1139.774,1131.934,1141.382,1127.813,1139.244z"/>
						</g>
					</g>
				</g>
				
					<linearGradient id="SVGID_00000170265823227743681350000013503136824508984972_" gradientUnits="userSpaceOnUse" x1="680.1314" y1="1306.2764" x2="789.5728" y2="1306.2764">
					<stop  offset="0" style="stop-color:#DAE3FE"/>
					<stop  offset="1" style="stop-color:#E9EFFD"/>
				</linearGradient>
				<path style="fill:url(#SVGID_00000170265823227743681350000013503136824508984972_);" d="M753.956,1428.765
					c-0.221-0.024-0.441-0.088-0.65-0.196l-72.173-37.432c-0.438-0.228-0.766-0.619-0.915-1.088
					c-0.148-0.468-0.105-0.977,0.122-1.414l105.73-203.857c0.47-0.91,1.592-1.265,2.501-0.794c0.91,0.473,1.265,1.591,0.793,2.502
					l-104.877,202.212l70.527,36.576c0.91,0.474,1.265,1.591,0.793,2.502C755.443,1428.475,754.695,1428.847,753.956,1428.765z"/>
				<path style="fill:#FFFFFF;" d="M1321.236,988.683c-0.221-0.024-0.441-0.089-0.65-0.196c-0.91-0.474-1.265-1.591-0.793-2.502
					l103.564-199.676l-75.591-39.204c-0.91-0.473-1.265-1.592-0.793-2.502c0.47-0.913,1.591-1.27,2.501-0.794l77.238,40.06
					c0.438,0.228,0.766,0.619,0.915,1.088c0.148,0.469,0.105,0.977-0.122,1.414l-104.418,201.321
					C1322.724,988.393,1321.975,988.765,1321.236,988.683z"/>
			</g>
			<g>
				<g>
					
						<rect x="602.873" y="822.153" transform="matrix(0.6542 -0.7563 0.7563 0.6542 -417.593 1167.4736)" style="fill:#7D97F4;" width="929.984" height="436.465"/>
					<path style="opacity:0.5;fill:#FFFFFF;" d="M1243.18,645.12l187.656,162.305c-13.063,15.104-9.4,40.305,7.325,54.77
						c0.531,0.459,0.492,0.233,2.673,2.073l-491.053,567.752c-2.135-1.893-1.977-1.804-2.508-2.263
						c-16.725-14.466-41.454-14.286-54.736,1.071c-0.195,0.226-0.995,0.178-0.995,0.178L708.11,1272.354
						c22.394-25.891,7.052-43.544-9.674-58.009c-0.531-0.46-1.076-0.693-1.099-0.666l491.052-567.751
						c-0.023,0.026,0.309,0.506,0.84,0.966C1205.955,661.359,1230.117,660.224,1243.18,645.12z"/>
					<g>
						
							<linearGradient id="SVGID_00000049221582301286402440000006466623807552848808_" gradientUnits="userSpaceOnUse" x1="4288.5884" y1="4283.0967" x2="4195.103" y2="5485.9424" gradientTransform="matrix(0.6542 -0.7564 0.7564 0.6542 -5046.2485 1411.9778)">
							<stop  offset="0" style="stop-color:#50E7B7"/>
							<stop  offset="0.9964" style="stop-color:#323992"/>
						</linearGradient>
						
							<circle style="fill:url(#SVGID_00000049221582301286402440000006466623807552848808_);" cx="1066.998" cy="1038.725" r="136.414"/>
						<g>
							<path style="fill:#FFFFFF;" d="M1127.575,1109.351l-10.91-9.436c-10.293,10.979-22.706,19.907-33.114,24.871
								c-3.716,1.773-8.177,0.458-10.472-2.96l-7.765-11.561c-2.849-4.241-1.27-9.963,3.306-12.235
								c10.178-5.052,21.27-12.564,30.397-23.116c9.474-10.955,12.826-22.336,5.213-28.92c-6.869-5.942-16.413-3.162-33.666,8.531
								c-24.729,16.585-47.688,23.991-66.812,7.45c-17.268-14.935-19.53-38.963-4.108-63.922l-10.911-9.437
								c-3.511-3.036-3.895-8.344-0.859-11.855l5.544-6.41c3.037-3.511,8.344-3.895,11.855-0.858l9.796,8.472
								c9.523-10.16,17.949-16.264,25.344-20.496c3.788-2.168,8.616-0.968,11.055,2.652l7.194,10.677
								c2.774,4.118,1.409,9.708-2.957,12.072c-6.957,3.766-16.006,9.774-24.903,20.06c-11.242,12.997-9.068,21.367-4.241,25.542
								c5.941,5.139,16.77,0.873,36.582-11.525c28.118-17.874,46.814-19.229,64.825-3.652c16.524,14.292,20.779,39.392,3.939,66.37
								l12.21,10.56c3.51,3.037,3.895,8.344,0.858,11.855l-5.544,6.411C1136.394,1112.003,1131.086,1112.388,1127.575,1109.351z"/>
						</g>
					</g>
				</g>
				
					<linearGradient id="SVGID_00000009549231743559192450000009436221212124087709_" gradientUnits="userSpaceOnUse" x1="634.9927" y1="1188.308" x2="787.0625" y2="1188.308">
					<stop  offset="0" style="stop-color:#DAE3FE"/>
					<stop  offset="1" style="stop-color:#E9EFFD"/>
				</linearGradient>
				<path style="fill:url(#SVGID_00000009549231743559192450000009436221212124087709_);" d="M699.871,1303.347
					c-0.209-0.075-0.408-0.189-0.587-0.342l-63.65-55.052c-0.775-0.672-0.86-1.842-0.189-2.617l148.359-171.531
					c0.67-0.776,1.845-0.868,2.617-0.191c0.775,0.672,0.86,1.842,0.19,2.618l-147.146,170.129l62.248,53.836
					c0.775,0.672,0.86,1.842,0.189,2.618C701.386,1303.411,700.571,1303.599,699.871,1303.347z"/>
				<path style="fill:#FFFFFF;" d="M1349.896,1007.5c-0.209-0.075-0.408-0.189-0.586-0.342c-0.775-0.672-0.86-1.842-0.189-2.617
					l147.147-170.131l-62.25-53.837c-0.775-0.672-0.86-1.842-0.189-2.617c0.67-0.776,1.841-0.869,2.617-0.191l63.652,55.052
					c0.372,0.324,0.601,0.78,0.637,1.271c0.035,0.49-0.125,0.974-0.448,1.347l-148.36,171.533
					C1351.41,1007.564,1350.596,1007.751,1349.896,1007.5z"/>
			</g>
			<g>
				<g>
					<g>
						
							<rect x="632.252" y="771.15" transform="matrix(0.8518 -0.5239 0.5239 0.8518 -355.7029 721.4875)" style="fill:#91B3FA;" width="929.984" height="436.465"/>
						<path style="opacity:0.5;fill:#FFFFFF;" d="M1383.804,665.737l129.983,211.334c-17.009,10.462-21.408,35.525-9.823,54.361
							c0.368,0.598,0.107,0.301,1.631,2.712l-639.39,393.263c-1.464-2.449-1.23-2.135-1.598-2.733
							c-11.585-18.835-34.98-26.141-52.274-15.504c-0.254,0.156-0.766-0.151-0.766-0.151l-127.058-206.577
							c29.159-17.934,19.561-39.46,7.976-58.296c-0.368-0.598-1.109-1.054-1.109-1.054l639.359-393.245
							c-0.03,0.018,0.434,0.645,0.802,1.244C1343.123,669.927,1366.795,676.199,1383.804,665.737z"/>
						<g>
							
								<ellipse transform="matrix(0.2263 -0.974 0.974 0.2263 -113.9403 1832.7931)" style="fill:#91B3FA;" cx="1096.779" cy="988.122" rx="136.414" ry="136.414"/>
							<g>
								<path style="fill:#FFFFFF;" d="M1133.252,1073.73l-7.557-12.286c-13.124,7.365-27.652,12.134-39.072,13.729
									c-4.078,0.57-7.934-2.029-9.092-5.98l-3.918-13.364c-1.437-4.902,1.793-9.883,6.841-10.669
									c11.227-1.748,24.069-5.566,35.953-12.876c12.337-7.588,18.964-17.428,13.691-26.002
									c-4.758-7.736-14.696-7.963-34.671-2.017c-28.579,8.356-52.703,8.495-65.949-13.042
									c-11.961-19.447-6.873-43.038,15.357-62.185l-7.558-12.288c-2.432-3.954-1.197-9.13,2.756-11.562l7.219-4.44
									c3.954-2.432,9.13-1.198,11.562,2.756l6.786,11.032c12.144-6.815,22.018-10.094,30.344-11.9
									c4.266-0.925,8.507,1.674,9.74,5.862l3.64,12.35c1.404,4.762-1.583,9.681-6.459,10.618
									c-7.769,1.493-18.208,4.492-29.793,11.618c-14.637,9.003-15.089,17.638-11.745,23.075
									c4.115,6.691,15.726,5.889,38.355,0.041c32.198-8.564,50.433-4.218,62.908,16.065c11.446,18.609,7.935,43.825-16.256,64.469
									l8.457,13.75c2.432,3.954,1.198,9.13-2.756,11.562l-7.219,4.441C1140.86,1078.917,1135.683,1077.684,1133.252,1073.73z"/>
							</g>
						</g>
					</g>
					
						<linearGradient id="SVGID_00000008116907365256682990000018263581873873974677_" gradientUnits="userSpaceOnUse" x1="619.8388" y1="1033.1714" x2="819.1553" y2="1033.1714">
						<stop  offset="0" style="stop-color:#DAE3FE"/>
						<stop  offset="1" style="stop-color:#E9EFFD"/>
					</linearGradient>
					<path style="fill:url(#SVGID_00000008116907365256682990000018263581873873974677_);" d="M665.153,1130.911
						c-0.382-0.137-0.721-0.401-0.952-0.775l-44.088-71.68c-0.257-0.419-0.339-0.923-0.224-1.401
						c0.113-0.479,0.413-0.893,0.832-1.15l195.605-120.31c0.873-0.533,2.013-0.26,2.553,0.609c0.537,0.872,0.265,2.014-0.608,2.552
						l-194.027,119.338l43.117,70.1c0.537,0.872,0.265,2.014-0.608,2.552C666.254,1131.052,665.665,1131.095,665.153,1130.911z"/>
					
						<linearGradient id="SVGID_00000083073268029668229160000016706631900834435510_" gradientUnits="userSpaceOnUse" x1="1375.333" y1="946.3437" x2="1572.2206" y2="946.3437">
						<stop  offset="0" style="stop-color:#DAE3FE"/>
						<stop  offset="1" style="stop-color:#E9EFFD"/>
					</linearGradient>
					<path style="fill:url(#SVGID_00000083073268029668229160000016706631900834435510_);" d="M1376.561,1043.336
						c-0.382-0.137-0.721-0.402-0.952-0.775c-0.537-0.872-0.265-2.014,0.608-2.552l191.597-117.843l-43.118-70.1
						c-0.537-0.871-0.265-2.014,0.608-2.552c0.871-0.533,2.013-0.26,2.552,0.609l44.089,71.68c0.257,0.419,0.339,0.923,0.224,1.401
						c-0.113,0.479-0.413,0.893-0.832,1.15l-193.176,118.815C1377.661,1043.477,1377.072,1043.52,1376.561,1043.336z"/>
				</g>
				<g>
					
						<linearGradient id="SVGID_00000124119319895120919100000016123715189002348675_" gradientUnits="userSpaceOnUse" x1="3861.761" y1="3381.1099" x2="3870.5427" y2="3133.4609" gradientTransform="matrix(0.8518 -0.5239 0.5239 0.8518 -4138.2803 387.5244)">
						<stop  offset="0" style="stop-color:#50E7B7"/>
						<stop  offset="0.9964" style="stop-color:#323992"/>
					</linearGradient>
					<path style="fill:url(#SVGID_00000124119319895120919100000016123715189002348675_);" d="M898.987,1124.6
						c11.18,18.178,5.508,41.977-12.67,53.158c-18.178,11.18-41.977,5.508-53.157-12.67c-11.18-18.178-5.508-41.977,12.669-53.157
						C864.008,1100.75,887.807,1106.422,898.987,1124.6z"/>
					
						<ellipse transform="matrix(1 -0.0062 0.0062 1 -5.1838 8.4566)" style="fill:#91B3FA;" cx="1361.272" cy="840.266" rx="38.641" ry="38.641"/>
				</g>
			</g>
		</g>
		<g>
			<g>
				<g>
					
						<linearGradient id="SVGID_00000015333642702454819690000010630457865335579279_" gradientUnits="userSpaceOnUse" x1="1461.95" y1="1800.6389" x2="1725.2805" y2="1494.9878" gradientTransform="matrix(0.9651 -0.2618 0.2618 0.9651 -1163.5303 186.1516)">
						<stop  offset="0" style="stop-color:#FF928E"/>
						<stop  offset="1" style="stop-color:#FE7062"/>
					</linearGradient>
					
						<circle style="fill:url(#SVGID_00000015333642702454819690000010630457865335579279_);" cx="896.443" cy="1169.935" r="196.319"/>
					
						<linearGradient id="SVGID_00000091694875415760127460000017623785794157216703_" gradientUnits="userSpaceOnUse" x1="1874.0795" y1="1272.0568" x2="1095.4036" y2="2448.4143" gradientTransform="matrix(0.9651 -0.2618 0.2618 0.9651 -1163.5303 186.1516)">
						<stop  offset="0" style="stop-color:#FF928E"/>
						<stop  offset="1" style="stop-color:#FE7062"/>
					</linearGradient>
					
						<circle style="fill:url(#SVGID_00000091694875415760127460000017623785794157216703_);" cx="896.443" cy="1169.935" r="189.791"/>
					<path style="opacity:0.78;fill:#FFFFFF;" d="M725.713,1138.341c-0.533,0.144-1.107,0.171-1.685,0.051
						c-1.973-0.405-3.244-2.333-2.837-4.303c13.672-66.576,62.882-118.98,128.427-136.761c10.46-2.838,21.191-4.738,31.895-5.642
						c2.007-0.172,3.771,1.316,3.942,3.325c0.17,2.005-1.311,3.79-3.326,3.938c-10.268,0.871-20.565,2.694-30.602,5.417
						c-62.874,17.056-110.079,67.326-123.196,131.188C728.046,1136.948,727,1137.992,725.713,1138.341z"/>
					
						<ellipse transform="matrix(0.7071 -0.7071 0.7071 0.7071 -565.2772 980.9864)" style="opacity:0.78;fill:#FFFFFF;" cx="901.517" cy="1172.843" rx="160.635" ry="160.634"/>
					<g>
						
							<linearGradient id="SVGID_00000165955953941028645450000017782400231687873459_" gradientUnits="userSpaceOnUse" x1="1850.8503" y1="1305.764" x2="1436.2238" y2="2001.8535" gradientTransform="matrix(0.9651 -0.2618 0.2618 0.9651 -1163.5303 186.1516)">
							<stop  offset="0" style="stop-color:#FF928E"/>
							<stop  offset="1" style="stop-color:#FE7062"/>
						</linearGradient>
						<path style="fill:url(#SVGID_00000165955953941028645450000017782400231687873459_);" d="M917.568,1292.223l-4.576-16.867
							c-17.774,4.066-36.291,4.634-50.11,2.578c-4.935-0.734-8.526-5.074-8.519-10.064l0.023-16.873
							c0.008-6.19,5.468-10.871,11.604-10.056c13.646,1.813,29.878,1.772,46.192-2.654c16.936-4.594,28.008-13.762,24.815-25.531
							c-2.881-10.62-14.353-14.287-39.604-14.216c-36.075-0.075-64.159-8.173-72.179-37.739
							c-7.242-26.696,6.749-52.371,39.14-67.012l-4.576-16.868c-1.472-5.428,1.734-11.021,7.161-12.494l9.91-2.688
							c5.428-1.472,11.022,1.734,12.494,7.161l4.109,15.145c16.446-3.762,29.044-4.193,39.339-3.44
							c5.275,0.385,9.313,4.859,9.313,10.147l0.001,15.599c0.001,6.015-5.155,10.708-11.142,10.128
							c-9.541-0.925-22.7-1.013-38.603,3.301c-20.093,5.451-23.575,15.332-21.55,22.795c2.492,9.185,16.26,12.229,44.561,13.181
							c40.353,1.071,60.057,12.367,67.61,40.21c6.931,25.547-5.784,53.649-40.968,69.358l5.121,18.876
							c1.472,5.428-1.734,11.021-7.161,12.494l-9.911,2.689C924.635,1300.857,919.041,1297.65,917.568,1292.223z"/>
					</g>
				</g>
				<g>
					
						<linearGradient id="SVGID_00000067930869567273628360000017575184753965522327_" gradientUnits="userSpaceOnUse" x1="1306.6284" y1="910.9718" x2="1288.6787" y2="1054.5697">
						<stop  offset="0" style="stop-color:#FF928E"/>
						<stop  offset="1" style="stop-color:#FE7062"/>
					</linearGradient>
					
						<circle style="fill:url(#SVGID_00000067930869567273628360000017575184753965522327_);" cx="1232.19" cy="1506.48" r="231.131"/>
					
						<linearGradient id="SVGID_00000089569029625977462240000014063359308049675451_" gradientUnits="userSpaceOnUse" x1="2135.4543" y1="1646.3358" x2="1218.6992" y2="3031.2915" gradientTransform="matrix(0.9651 -0.2618 0.2618 0.9651 -1163.5303 186.1516)">
						<stop  offset="0" style="stop-color:#FF928E"/>
						<stop  offset="1" style="stop-color:#FE7062"/>
					</linearGradient>
					
						<circle style="fill:url(#SVGID_00000089569029625977462240000014063359308049675451_);" cx="1232.19" cy="1506.48" r="223.446"/>
					<path style="opacity:0.78;fill:#FFFFFF;" d="M1031.153,1469.167c-0.609,0.166-1.266,0.196-1.928,0.059
						c-2.258-0.464-3.711-2.67-3.246-4.924c16.086-78.337,73.989-139.995,151.114-160.917c12.306-3.339,24.933-5.573,37.53-6.64
						c2.296-0.197,4.315,1.505,4.51,3.803c0.194,2.294-1.489,4.321-3.805,4.506c-12.099,1.028-24.229,3.175-36.051,6.382
						c-74.068,20.093-129.677,79.31-145.128,154.541C1033.824,1467.573,1032.626,1468.767,1031.153,1469.167z"/>
					
						<ellipse transform="matrix(0.7071 -0.7071 0.7071 0.7071 -705.0139 1317.7544)" style="opacity:0.78;fill:#FFFFFF;" cx="1238.163" cy="1509.904" rx="189.119" ry="189.119"/>
					<g>
						
							<linearGradient id="SVGID_00000062904211716710635940000002123822310179675304_" gradientUnits="userSpaceOnUse" x1="2108.106" y1="1686.0203" x2="1619.9552" y2="2505.5447" gradientTransform="matrix(0.9651 -0.2618 0.2618 0.9651 -1163.5303 186.1516)">
							<stop  offset="0" style="stop-color:#FF928E"/>
							<stop  offset="1" style="stop-color:#FE7062"/>
						</linearGradient>
						<path style="fill:url(#SVGID_00000062904211716710635940000002123822310179675304_);" d="M1257.062,1650.453l-5.387-19.858
							c-20.926,4.787-42.726,5.456-58.996,3.035c-5.81-0.865-10.038-5.974-10.03-11.848l0.027-19.865
							c0.009-7.287,6.437-12.799,13.661-11.839c16.067,2.134,35.177,2.086,54.383-3.124c19.939-5.409,32.974-16.202,29.215-30.059
							c-3.392-12.503-16.898-16.82-46.626-16.737c-42.473-0.088-75.536-9.622-84.979-44.431
							c-8.527-31.43,7.946-61.657,46.081-78.895l-5.388-19.859c-1.733-6.39,2.042-12.975,8.432-14.709l11.667-3.165
							c6.391-1.734,12.975,2.041,14.709,8.431l4.837,17.831c19.364-4.43,34.196-4.937,46.316-4.05
							c6.21,0.454,10.965,5.721,10.965,11.947l0.002,18.365c0,7.082-6.069,12.608-13.118,11.925
							c-11.233-1.089-26.725-1.193-45.448,3.886c-23.656,6.417-27.756,18.05-25.372,26.837
							c2.934,10.814,19.144,14.398,52.463,15.519c47.508,1.261,70.706,14.559,79.599,47.34c8.159,30.076-6.81,63.162-48.232,81.657
							l6.028,22.223c1.734,6.39-2.041,12.976-8.432,14.709l-11.669,3.165C1265.381,1660.618,1258.796,1656.843,1257.062,1650.453z"
							/>
					</g>
				</g>
				<g>
					
						<linearGradient id="SVGID_00000130637805941057174070000007932028986037628319_" gradientUnits="userSpaceOnUse" x1="1210.2177" y1="560.3532" x2="1277.5292" y2="852.0366">
						<stop  offset="0" style="stop-color:#FF928E"/>
						<stop  offset="1" style="stop-color:#FE7062"/>
					</linearGradient>
					
						<circle style="fill:url(#SVGID_00000130637805941057174070000007932028986037628319_);" cx="1331.688" cy="1086.728" r="169.539"/>
					
						<linearGradient id="SVGID_00000093884477427216183630000002166498992577342116_" gradientUnits="userSpaceOnUse" x1="2296.3652" y1="1335.2706" x2="1623.9098" y2="2351.1592" gradientTransform="matrix(0.9651 -0.2618 0.2618 0.9651 -1163.5303 186.1516)">
						<stop  offset="0" style="stop-color:#FF928E"/>
						<stop  offset="1" style="stop-color:#FE7062"/>
					</linearGradient>
					
						<circle style="fill:url(#SVGID_00000093884477427216183630000002166498992577342116_);" cx="1331.688" cy="1086.728" r="163.901"/>
					<path style="opacity:0.78;fill:#FFFFFF;" d="M1184.515,1060.435c-0.61,0.165-1.267,0.196-1.93,0.059
						c-2.26-0.465-3.715-2.673-3.249-4.929c11.885-57.876,54.667-103.432,111.646-118.889c9.081-2.464,18.409-4.115,27.728-4.906
						c2.296-0.196,4.318,1.508,4.514,3.804c0.194,2.297-1.484,4.345-3.808,4.515c-8.818,0.753-17.649,2.315-26.247,4.648
						c-53.918,14.627-94.403,57.738-105.652,112.505C1187.188,1058.839,1185.989,1060.035,1184.515,1060.435z"/>
					
						<ellipse transform="matrix(0.7071 -0.7071 0.7071 0.7071 -378.8828 1263.7753)" style="opacity:0.78;fill:#FFFFFF;" cx="1336.07" cy="1089.24" rx="138.722" ry="138.722"/>
					<g>
						
							<linearGradient id="SVGID_00000029011813527471828130000008528046063626779276_" gradientUnits="userSpaceOnUse" x1="2276.3052" y1="1364.3795" x2="1918.238" y2="1965.5151" gradientTransform="matrix(0.9651 -0.2618 0.2618 0.9651 -1163.5303 186.1516)">
							<stop  offset="0" style="stop-color:#FF928E"/>
							<stop  offset="1" style="stop-color:#FE7062"/>
						</linearGradient>
						<path style="fill:url(#SVGID_00000029011813527471828130000008528046063626779276_);" d="M1349.933,1192.334l-3.951-14.566
							c-15.349,3.511-31.341,4.002-43.275,2.226c-4.261-0.634-7.362-4.382-7.357-8.691l0.019-14.571
							c0.008-5.345,4.722-9.388,10.021-8.685c11.786,1.565,25.803,1.531,39.891-2.291c14.625-3.967,24.187-11.885,21.429-22.049
							c-2.488-9.171-12.395-12.338-34.201-12.277c-31.154-0.065-55.407-7.058-62.333-32.591
							c-6.254-23.054,5.828-45.227,33.801-57.87l-3.952-14.568c-1.272-4.687,1.497-9.518,6.184-10.79l8.558-2.322
							c4.688-1.272,9.519,1.498,10.79,6.185l3.548,13.079c14.203-3.249,25.082-3.621,33.973-2.97
							c4.555,0.333,8.042,4.196,8.043,8.763l0.001,13.471c0,5.194-4.452,9.248-9.622,8.747c-8.24-0.799-19.603-0.875-33.337,2.851
							c-17.352,4.708-20.359,13.24-18.611,19.686c2.152,7.932,14.042,10.561,38.483,11.383c34.848,0.926,51.864,10.68,58.387,34.725
							c5.985,22.062-4.995,46.331-35.38,59.897l4.422,16.301c1.271,4.687-1.497,9.518-6.185,10.789l-8.559,2.322
							C1356.035,1199.791,1351.204,1197.021,1349.933,1192.334z"/>
					</g>
				</g>
			</g>
		</g>
		<g>
			<g>
				<g>
					
						<linearGradient id="SVGID_00000129888699170023192940000004364926011678249348_" gradientUnits="userSpaceOnUse" x1="-1428.837" y1="1232.6714" x2="-1323.3868" y2="1533.9584" gradientTransform="matrix(1 0 0 1 2933.4707 0)">
						<stop  offset="0" style="stop-color:#FEBBBA"/>
						<stop  offset="1" style="stop-color:#FF928E"/>
					</linearGradient>
					<path style="fill:url(#SVGID_00000129888699170023192940000004364926011678249348_);" d="M1551.444,1394.285
						c-1.623,5.159,17.169,13.014,28.233-8.085c0.387-10.112,6.537-53.434,0.494-61.671c-32.181-43.875-94.575-98.874-94.575-98.874
						c-10.545,10.405-1.858,20.626-1.858,20.626l30.267,31.531c-6.331,11.441-14.054,21.098-17.672,34.937
						c-2.742,10.479-1.065,21.679,4.229,31.217c5.313,9.571,12.562,22.014,19.415,31.752
						C1532.948,1394.146,1551.444,1394.285,1551.444,1394.285z"/>
					
						<linearGradient id="SVGID_00000057835182293583193660000015431682516226147768_" gradientUnits="userSpaceOnUse" x1="-1347.8284" y1="1425.1633" x2="-1427.2592" y2="1264.9323" gradientTransform="matrix(1 0 0 1 2933.4707 0)">
						<stop  offset="0" style="stop-color:#FEBBBA"/>
						<stop  offset="1" style="stop-color:#FF928E"/>
					</linearGradient>
					<path style="fill:url(#SVGID_00000057835182293583193660000015431682516226147768_);" d="M1527.246,1298.271l27.583,23.382
						l8.66,23.28l-24.593,27.283c0,0-8.268-46.192-14.414-56.19C1518.336,1306.028,1521.523,1301.194,1527.246,1298.271z"/>
				</g>
				<g>
					
						<linearGradient id="SVGID_00000017473969659423199000000006097837165038273710_" gradientUnits="userSpaceOnUse" x1="2093.5557" y1="2618.6589" x2="1972.9187" y2="3275.4604">
						<stop  offset="0" style="stop-color:#4F52FF"/>
						<stop  offset="1" style="stop-color:#4042E2"/>
					</linearGradient>
					<path style="fill:url(#SVGID_00000017473969659423199000000006097837165038273710_);" d="M2093.25,3116.283
						c0,0,6.969,39.449,10.385,78.499c1.335,15.261-10.43,28.511-25.738,29.15c-52.003,2.165-163.24,6.377-203.156,4.595
						c-6.001-0.267-9.924-6.41-7.704-11.991c1.862-4.676,5.451-8.458,10.024-10.559l183.743-84.448L2093.25,3116.283z"/>
					
						<linearGradient id="SVGID_00000139279009705548611710000002947058377953290671_" gradientUnits="userSpaceOnUse" x1="5809.7944" y1="3116.1201" x2="5869.5615" y2="3116.1201" gradientTransform="matrix(-1 0 0 1 7908.7529 0)">
						<stop  offset="0" style="stop-color:#FEBBBA"/>
						<stop  offset="1" style="stop-color:#FF928E"/>
					</linearGradient>
					<path style="fill:url(#SVGID_00000139279009705548611710000002947058377953290671_);" d="M2098.958,3093.104l-5.599,47.186
						c0,0-32.187,14.984-54.168-1.888l13.329-52.585L2098.958,3093.104z"/>
					
						<linearGradient id="SVGID_00000008123589587819159680000003675384760896696463_" gradientUnits="userSpaceOnUse" x1="6081.1758" y1="2234.0784" x2="5508.6353" y2="3010.0835" gradientTransform="matrix(-1 0 0 1 7908.7529 0)">
						<stop  offset="0" style="stop-color:#09005D"/>
						<stop  offset="1" style="stop-color:#1A0F91"/>
					</linearGradient>
					<path style="fill:url(#SVGID_00000008123589587819159680000003675384760896696463_);" d="M2094.75,2205.992
						c2.419,12.322,12.98,614.915-51.432,884.957c-1.051,4.406,1.183,8.948,5.376,10.661c9.879,4.036,29.247,9.882,52.458,10.661
						c7.188,0.241,13.633-4.43,15.661-11.33c18.412-62.654,106.64-376.568,118.15-676.44c12.86-335.078,0-11.41,0-11.41
						l-7.543-207.125L2094.75,2205.992z"/>
					
						<linearGradient id="SVGID_00000063631300723594940650000006985713236078176665_" gradientUnits="userSpaceOnUse" x1="2378.5977" y1="2671.0132" x2="2257.9609" y2="3327.8145">
						<stop  offset="0" style="stop-color:#4F52FF"/>
						<stop  offset="1" style="stop-color:#4042E2"/>
					</linearGradient>
					<path style="fill:url(#SVGID_00000063631300723594940650000006985713236078176665_);" d="M2304.615,3136.864
						c0,0,11.092,19.915,21.832,72.835c1.938,9.557-4.739,18.704-14.445,19.657c-17.171,1.688-43.606,3.86-64.781,3.714
						c-9.762-0.067-17.379-8.566-16.203-18.257c2.345-19.316,9.653-51.008,32.226-75.708L2304.615,3136.864z"/>
					
						<linearGradient id="SVGID_00000096759896744752736570000000142606270482007707_" gradientUnits="userSpaceOnUse" x1="5594.395" y1="3113.0559" x2="5645.9985" y2="3113.0559" gradientTransform="matrix(-1 0 0 1 7908.7529 0)">
						<stop  offset="0" style="stop-color:#FEBBBA"/>
						<stop  offset="1" style="stop-color:#FF928E"/>
					</linearGradient>
					<path style="fill:url(#SVGID_00000096759896744752736570000000142606270482007707_);" d="M2314.358,3076.172l-13.082,71.357
						c0,0-12.935,9.622-38.522,2.647l6.244-76.776L2314.358,3076.172z"/>
					
						<linearGradient id="SVGID_00000149344934894607780600000013035067882046478011_" gradientUnits="userSpaceOnUse" x1="5979.1357" y1="2158.792" x2="5406.5952" y2="2934.7971" gradientTransform="matrix(-1 0 0 1 7908.7529 0)">
						<stop  offset="0" style="stop-color:#09005D"/>
						<stop  offset="1" style="stop-color:#1A0F91"/>
					</linearGradient>
					<path style="fill:url(#SVGID_00000149344934894607780600000013035067882046478011_);" d="M2349.697,2224.483
						c52.681,317.934-11.427,785.798-33.048,877.37c-1.323,5.606-5.849,9.902-11.531,10.844c-9.651,1.6-25.54,2.905-41.205-1.645
						c-5.396-1.567-9.188-6.435-9.409-12.052c-2.901-74.033,2.32-528.527-46.767-708.145c-2.487-9.103-8.046-17.041-15.737-22.509
						l-95.274-67.731l-7.304-109.482L2349.697,2224.483z"/>
					<g>
						
							<linearGradient id="SVGID_00000064352137112527906620000014392230210659187646_" gradientUnits="userSpaceOnUse" x1="12653.415" y1="-1707.1603" x2="12384.1689" y2="-1565.8059" gradientTransform="matrix(-1 0 0 1 7908.7529 0)">
							<stop  offset="0" style="stop-color:#FF928E"/>
							<stop  offset="1" style="stop-color:#FE7062"/>
						</linearGradient>
						<path style="fill:url(#SVGID_00000064352137112527906620000014392230210659187646_);" d="M2014.014,1622.063
							c157.874-2.608,332.071,41.453,332.071,41.453c47.06,274.589,8.229,591.307,8.229,591.307
							c-122.222,32.052-260.097-19.596-260.097-19.596c-20.314-114.772-115.094-437.777-115.094-437.777
							c-77.137-9.573-140.681-31.829-193.01-61.252c39.916-46.268,58.733-105.141,66.905-139.943
							C1908.837,1613.601,1965.319,1622.868,2014.014,1622.063z"/>
						
							<linearGradient id="SVGID_00000137820528972922453850000002681990456381919903_" gradientUnits="userSpaceOnUse" x1="1935.2498" y1="1350.4517" x2="2702.6001" y2="744.6479">
							<stop  offset="0" style="stop-color:#FEBBBA"/>
							<stop  offset="1" style="stop-color:#FF928E"/>
						</linearGradient>
						<path style="fill:url(#SVGID_00000137820528972922453850000002681990456381919903_);" d="M1547.68,1389.521
							c15.509-18.731,35.137-9.87,35.137-9.87c23.233,98.138,145.05,177.709,270.2,216.603
							c-8.173,34.802-26.99,93.676-66.905,139.943C1578.413,1619.418,1547.68,1389.521,1547.68,1389.521z"/>
					</g>
					
						<linearGradient id="SVGID_00000064313072020913420440000017411233358954765472_" gradientUnits="userSpaceOnUse" x1="12557.6787" y1="-1889.4993" x2="12288.4336" y2="-1748.1454" gradientTransform="matrix(-1 0 0 1 7908.7529 0)">
						<stop  offset="0" style="stop-color:#FF928E"/>
						<stop  offset="1" style="stop-color:#FE7062"/>
					</linearGradient>
					<path style="fill:url(#SVGID_00000064313072020913420440000017411233358954765472_);" d="M2285.531,1816.384l60.554-152.869
						c0,0,147.464,100.195,171.716,227.232c-27.863,2.052-78.565,9.3-128.194,34.358
						C2378.701,1865.12,2285.531,1816.384,2285.531,1816.384z"/>
					
						<linearGradient id="SVGID_00000124136280211920654990000013152082566411596705_" gradientUnits="userSpaceOnUse" x1="5684.2998" y1="1576.2869" x2="5837.0718" y2="1576.2869" gradientTransform="matrix(-1 0 0 1 7908.7529 0)">
						<stop  offset="0" style="stop-color:#FEBBBA"/>
						<stop  offset="1" style="stop-color:#FF928E"/>
					</linearGradient>
					<path style="fill:url(#SVGID_00000124136280211920654990000013152082566411596705_);" d="M2173.927,1493.893l50.234,145.272
						c0.831,2.406-0.158,5.071-2.386,6.304c-13.693,7.571-63.027,29.454-122.478-8.24c-6.193-3.926-10.409-10.33-11.349-17.604
						l-16.267-125.732H2173.927z"/>
					<g>
						
							<linearGradient id="SVGID_00000046320980721102432210000010756171371523129244_" gradientUnits="userSpaceOnUse" x1="-962.5049" y1="2200.1821" x2="-1019.5945" y2="2011.8872" gradientTransform="matrix(-0.746 -0.6659 -0.6659 0.746 2782.4175 -803.1727)">
							<stop  offset="0" style="stop-color:#FEBBBA"/>
							<stop  offset="1" style="stop-color:#FF928E"/>
						</linearGradient>
						<path style="fill:url(#SVGID_00000046320980721102432210000010756171371523129244_);" d="M2064.628,1359.368
							c0,0-55.162,103.836-48.091,145.78c7.071,41.943,75.435,38.932,135.132,4.866l41.715-112.118L2064.628,1359.368z"/>
						
							<linearGradient id="SVGID_00000162346901534946293180000003838643608563509378_" gradientUnits="userSpaceOnUse" x1="-1014.0114" y1="1872.1055" x2="-966.2563" y2="2144.4866" gradientTransform="matrix(-0.746 -0.6659 -0.6659 0.746 2782.4175 -803.1727)">
							<stop  offset="0" style="stop-color:#09005D"/>
							<stop  offset="1" style="stop-color:#1A0F91"/>
						</linearGradient>
						<path style="fill:url(#SVGID_00000162346901534946293180000003838643608563509378_);" d="M2149.03,1454.953
							c-2.426-1.075-3.32-4.043-1.868-6.264c4.42-6.751,12.704-20.525,15.347-32.583c0,0,9.916-6.352-25.24-14.766
							c-35.155-8.416-87.581-21.477-98.6-51.4c-10.745-29.175,17.484-102.546,62.521-44.085c1.713,2.224,5.07,2.273,6.781,0.047
							c7.383-9.61,26.794-29.554,53.741-17.463c25.218,11.315,28.058,29.794,27.712,39.109c-0.101,2.739,2.348,4.87,5.041,4.355
							c12.75-2.431,43.347-4.52,57.628,26.867c11.763,25.854,4.117,40.488-2.845,47.646c-2.257,2.319-1.269,6.138,1.826,7.084
							c8.379,2.565,19.199,9.67,18.117,29.302c-1.498,27.141-31.842,24.749-40.481,23.512c-1.417-0.203-2.842,0.283-3.801,1.343
							c-7.408,8.198-40.784,43.006-76.907,47.203c-3.128,0.363-5.552-2.726-4.528-5.703l15.633-45.443
							c0.726-2.11-0.284-4.425-2.324-5.33L2149.03,1454.953z"/>
						
							<linearGradient id="SVGID_00000174603763985248173120000010643724337013736094_" gradientUnits="userSpaceOnUse" x1="-1020.8646" y1="2199.3049" x2="-1072.2289" y2="2029.8932" gradientTransform="matrix(-0.746 -0.6659 -0.6659 0.746 2782.4175 -803.1727)">
							<stop  offset="0" style="stop-color:#FEBBBA"/>
							<stop  offset="1" style="stop-color:#FF928E"/>
						</linearGradient>
						<path style="fill:url(#SVGID_00000174603763985248173120000010643724337013736094_);" d="M2142.747,1461.403
							c0,0,39.274-26.948,42.144-4.255c2.869,22.692-35.368,32.87-54.307,24.41L2142.747,1461.403z"/>
					</g>
					
						<linearGradient id="SVGID_00000101819759820308359610000018223009689249635000_" gradientUnits="userSpaceOnUse" x1="-542.3023" y1="2699.5823" x2="-666.5035" y2="1807.5883" gradientTransform="matrix(-1 0 0 1 1810.073 0)">
						<stop  offset="0" style="stop-color:#FEBBBA"/>
						<stop  offset="1" style="stop-color:#FF928E"/>
					</linearGradient>
					<path style="fill:url(#SVGID_00000101819759820308359610000018223009689249635000_);" d="M2389.607,1925.105
						c0,0,51.542,232.522,4.854,363.245c57.237,26.539,46.664,21.536,46.664,21.536s113.233-330.841,76.677-419.139
						C2445.727,1883.101,2409.975,1902.466,2389.607,1925.105z"/>
					
						<linearGradient id="SVGID_00000027577006160256978820000008056082220713684902_" gradientUnits="userSpaceOnUse" x1="-557.0921" y1="2613.7764" x2="-656.205" y2="1901.9633" gradientTransform="matrix(-1 0 0 1 1810.073 0)">
						<stop  offset="0" style="stop-color:#FEBBBA"/>
						<stop  offset="1" style="stop-color:#FF928E"/>
					</linearGradient>
					<path style="fill:url(#SVGID_00000027577006160256978820000008056082220713684902_);" d="M2394.46,2288.351
						c0,0-29.495,38.174-27.135,53.378c2.359,15.205,2.922,21.4,2.922,21.4s14.821-10.136,13.887-23.089
						c-2.061,41.11-15.82,87.85-3.308,85.598c12.51-2.253,77.272-61.946,62.63-125.581
						C2410.23,2276.968,2400.917,2279.478,2394.46,2288.351z"/>
				</g>
			</g>
			<g>
				<g>
					
						<linearGradient id="SVGID_00000153667903671206947610000011614399495633149838_" gradientUnits="userSpaceOnUse" x1="4202.4595" y1="2733.6099" x2="4325.5244" y2="3013.6101" gradientTransform="matrix(1 0.0068 -0.0068 1 -1420.0854 -442.194)">
						<stop  offset="0" style="stop-color:#FEBBBA"/>
						<stop  offset="1" style="stop-color:#FF928E"/>
					</linearGradient>
					<path style="fill:url(#SVGID_00000153667903671206947610000011614399495633149838_);" d="M2695.641,2236.839
						c0,0,97.072,181.198,190.699,225.714c0,0-16.805,45.882-35.612,49.317c0,0-109.105-33.177-165.695-254.716L2695.641,2236.839z"
						/>
					<g>
						
							<linearGradient id="SVGID_00000013173154998577942140000016396881224163539584_" gradientUnits="userSpaceOnUse" x1="4173.2485" y1="2748.7244" x2="4257.6855" y2="2940.8374" gradientTransform="matrix(1 0.0068 -0.0068 1 -1420.0854 -442.194)">
							<stop  offset="0" style="stop-color:#FEBBBA"/>
							<stop  offset="1" style="stop-color:#FF928E"/>
						</linearGradient>
						<path style="fill:url(#SVGID_00000013173154998577942140000016396881224163539584_);" d="M2705.169,2288.067
							c-0.989,3.071,10.191,7.834,16.878-4.71c0.272-6.032,4.116-31.856,0.544-36.796c-19.024-26.31-39.29-28.142-39.29-28.142
							c-3.824,6.801-8.47,12.531-10.686,20.774c-1.678,6.242-0.723,12.931,2.397,18.643c3.132,5.733,7.406,13.186,11.455,19.024
							C2694.133,2287.909,2705.169,2288.067,2705.169,2288.067z"/>
					</g>
					
						<linearGradient id="SVGID_00000062191737583396806790000010261084205051054470_" gradientUnits="userSpaceOnUse" x1="4395.5029" y1="342.2917" x2="4485.5278" y2="342.2917" gradientTransform="matrix(0.4933 0.8699 0.8699 -0.4933 708.4889 -718.3337)">
						<stop  offset="0" style="stop-color:#4F52FF"/>
						<stop  offset="1" style="stop-color:#4042E2"/>
					</linearGradient>
					<path style="fill-rule:evenodd;clip-rule:evenodd;fill:url(#SVGID_00000062191737583396806790000010261084205051054470_);" d="
						M3163.842,2946.34c5.324-4.778,13.736-11.792,21.529-16c1.986-1.072,4.432-0.562,5.812,1.224
						c8.103,10.489,35.149,46.811,41.189,71.808c0.501,2.073-0.558,4.195-2.449,5.181c-6.971,3.635-25.364,7.561-51.585-28.92
						l-15.758-22.261C3160.129,2953.909,3160.684,2949.174,3163.842,2946.34z"/>
					
						<linearGradient id="SVGID_00000102542083654017625870000000326655985556020377_" gradientUnits="userSpaceOnUse" x1="3395.446" y1="2404.2493" x2="3213.7053" y2="2717.2471">
						<stop  offset="0" style="stop-color:#FEBBBA"/>
						<stop  offset="1" style="stop-color:#FF928E"/>
					</linearGradient>
					<path style="fill-rule:evenodd;clip-rule:evenodd;fill:url(#SVGID_00000102542083654017625870000000326655985556020377_);" d="
						M3004.013,2864.792c0,0,8.812,118.965,57.279,158.62c42.434,34.718,108.51-28.509,124.303-44.788
						c2.302-2.374,3.409-5.736,2.753-8.978c-1.582-7.82-5.379-13.894-12.041-17.708c-4.686-2.684-10.581-2.069-14.547,1.596
						c-13.158,12.161-47.623,41.668-65.22,34.629c-22.03-8.813-35.249-123.372-35.249-123.372H3004.013z"/>
					<g>
						
							<linearGradient id="SVGID_00000128485125980037427790000004175571778692236419_" gradientUnits="userSpaceOnUse" x1="3260.322" y1="2245.9065" x2="3058.3032" y2="2574.4167">
							<stop  offset="0" style="stop-color:#FEBBBA"/>
							<stop  offset="1" style="stop-color:#FF928E"/>
						</linearGradient>
						
							<path style="fill-rule:evenodd;clip-rule:evenodd;fill:url(#SVGID_00000128485125980037427790000004175571778692236419_);" d="
							M3118.572,2503.491c0,0,66.091-30.843,102.404-199.911l-18.073-9.263c0,0-70.157,138.059-106.362,169.519
							C3060.335,2495.296,3118.572,2503.491,3118.572,2503.491z"/>
						
							<linearGradient id="SVGID_00000085934133140599665740000011718850238572465285_" gradientUnits="userSpaceOnUse" x1="3243.8982" y1="2235.8064" x2="3041.8789" y2="2564.3174">
							<stop  offset="0" style="stop-color:#FEBBBA"/>
							<stop  offset="1" style="stop-color:#FF928E"/>
						</linearGradient>
						
							<path style="fill-rule:evenodd;clip-rule:evenodd;fill:url(#SVGID_00000085934133140599665740000011718850238572465285_);" d="
							M3206.993,2314.669l13.982-11.089c0,0,19.076-18.521,25.772-34.257c6.696-15.737-12.962-29.92-20.377-33.264
							c-7.414-3.343-11.48,3.7-10.003,19.518c0,0-16.892,19.64-14.46,48.27L3206.993,2314.669z"/>
					</g>
					
						<linearGradient id="SVGID_00000160884148201085329290000001248158931284115616_" gradientUnits="userSpaceOnUse" x1="-1382.9672" y1="3181.3542" x2="-1292.9354" y2="3181.3542" gradientTransform="matrix(-1 -0.0047 -0.0047 1 1617.9052 4.0466)">
						<stop  offset="0" style="stop-color:#4F52FF"/>
						<stop  offset="1" style="stop-color:#4042E2"/>
					</linearGradient>
					<path style="fill-rule:evenodd;clip-rule:evenodd;fill:url(#SVGID_00000160884148201085329290000001248158931284115616_);" d="
						M2980.959,3170.768c0,0,5.25,19.494,4.889,33.892c-0.057,2.261-1.735,4.144-3.976,4.453c-13.159,1.815-58.081,7.2-82.757,0.012
						c-1.988-0.58-3.347-2.432-3.287-4.501c0.225-7.746,5.677-25.927,50.755-30.568L2980.959,3170.768z"/>
					
						<linearGradient id="SVGID_00000159431878921323855230000003156982335714788759_" gradientUnits="userSpaceOnUse" x1="3285.272" y1="2580.7451" x2="3154.0146" y2="2749.0242">
						<stop  offset="0" style="stop-color:#FEBBBA"/>
						<stop  offset="1" style="stop-color:#FF928E"/>
					</linearGradient>
					<path style="fill-rule:evenodd;clip-rule:evenodd;fill:url(#SVGID_00000159431878921323855230000003156982335714788759_);" d="
						M2903.4,2872.595c-5.548,3.622,36.302,297.501,46.442,299.637c0,0,11.597,10.778,29.495-1.506
						c-10.333-95.781-16.622-192.93-11.061-292.216L2903.4,2872.595z"/>
					
						<linearGradient id="SVGID_00000138541845358427260910000007029827128343710893_" gradientUnits="userSpaceOnUse" x1="-1248.2393" y1="2932.698" x2="-1065.802" y2="2932.698" gradientTransform="matrix(-0.9977 0.0685 0.0685 0.9977 1622.6279 -47.5666)">
						<stop  offset="0" style="stop-color:#09005D"/>
						<stop  offset="1" style="stop-color:#1A0F91"/>
					</linearGradient>
					<path style="fill-rule:evenodd;clip-rule:evenodd;fill:url(#SVGID_00000138541845358427260910000007029827128343710893_);" d="
						M3050.183,2694.228c0,0-136.481,6.243-168.986,17.655c0,0,4.006,110.962,17.349,179.149c0.517,2.645,2.517,4.74,5.142,5.348
						c8.757,2.031,30.802,4.934,65.743-4.85c3.106-0.87,5.172-3.82,4.951-7.037l-3.606-44.199c-0.204-2.967,2.037-5.538,5.004-5.741
						l3.655-0.553c3.093-0.212,5.726,2.224,5.754,5.324l6.9,44.824c0.026,2.903,1.877,5.468,4.626,6.398
						c10.258,3.475,36.955,9.961,72.159-0.765c2.837-0.864,4.805-3.48,4.824-6.446
						C3074.055,2828.93,3064.283,2763.858,3050.183,2694.228z"/>
					
						<linearGradient id="SVGID_00000027566162819320162000000017337418484817109124_" gradientUnits="userSpaceOnUse" x1="-1250.1489" y1="2814.9739" x2="-1199.5858" y2="2883.9238" gradientTransform="matrix(-0.9977 0.0685 0.0685 0.9977 1622.6279 -47.5666)">
						<stop  offset="0" style="stop-color:#09005D"/>
						<stop  offset="1" style="stop-color:#1A0F91"/>
					</linearGradient>
					<path style="fill-rule:evenodd;clip-rule:evenodd;fill:url(#SVGID_00000027566162819320162000000017337418484817109124_);" d="
						M2999.023,2703.796c0,0,17.251,47.966,58.883,51.29l-9.205-54.7C3048.701,2700.387,3016.456,2700.147,2999.023,2703.796z"/>
					
						<linearGradient id="SVGID_00000067943788665098210480000002476196986300261002_" gradientUnits="userSpaceOnUse" x1="3181.8306" y1="2246.7769" x2="2983.2615" y2="2522.7539">
						<stop  offset="0" style="stop-color:#FF928E"/>
						<stop  offset="1" style="stop-color:#FE7062"/>
					</linearGradient>
					<path style="fill-rule:evenodd;clip-rule:evenodd;fill:url(#SVGID_00000067943788665098210480000002476196986300261002_);" d="
						M3114.165,2441.806c0,0-61.686,39.655-136.589,35.249c-62.469-3.675-100.421-19.608-121.524-37.576
						c-7.548-6.426-18.277-7.474-26.613-2.111c-9.119,5.868-21.261,14.997-34.02,28.326c-3.204,3.347-3.856,8.471-1.417,12.411
						c18.197,29.394,37.597,49.945,58.166,61.897c6.963,7.674,10.697,17.737,10.424,28.096l-3.8,144.388
						c-0.105,4.003,2.675,7.488,6.61,8.235c27.381,5.196,131.296,23.287,195.89,11.888v-155.731
						c0-11.577,6.402-22.108,16.524-27.728c13.566-7.532,33.77-22.285,53.974-50.065L3114.165,2441.806z"/>
					
						<linearGradient id="SVGID_00000092454931516041519410000004438508706668600978_" gradientUnits="userSpaceOnUse" x1="-2046.5394" y1="1629.2869" x2="-2073.0876" y2="1416.9012" gradientTransform="matrix(-0.9402 -0.3405 -0.3405 0.9402 1474.4176 218.113)">
						<stop  offset="0" style="stop-color:#FEBBBA"/>
						<stop  offset="1" style="stop-color:#FF928E"/>
					</linearGradient>
					<path style="fill-rule:evenodd;clip-rule:evenodd;fill:url(#SVGID_00000092454931516041519410000004438508706668600978_);" d="
						M2885.324,2384.816c0,0,5.253-14.818-8.134-17.459c-13.387-2.641-0.616,36.706-0.616,36.706L2885.324,2384.816z"/>
					
						<linearGradient id="SVGID_00000108285860333120106490000011690304544250183078_" gradientUnits="userSpaceOnUse" x1="-1445.1211" y1="2446.0752" x2="-1221.5059" y2="2481.0994" gradientTransform="matrix(-1 0 0 1 1614.4521 0)">
						<stop  offset="0" style="stop-color:#FEBBBA"/>
						<stop  offset="1" style="stop-color:#FF928E"/>
					</linearGradient>
					<path style="fill-rule:evenodd;clip-rule:evenodd;fill:url(#SVGID_00000108285860333120106490000011690304544250183078_);" d="
						M2992.362,2425.024l5.288,58.071c0,0-30.651,17.909-57.02,2.252l4.684-50.721L2992.362,2425.024z"/>
					
						<linearGradient id="SVGID_00000142141525104088009240000006675014829333069725_" gradientUnits="userSpaceOnUse" x1="-2194.5684" y1="1222.0122" x2="-2262.5327" y2="1092.1398" gradientTransform="matrix(-0.9011 -0.4336 -0.4336 0.9011 1468.2039 336.2941)">
						<stop  offset="0" style="stop-color:#2B3582"/>
						<stop  offset="0.6502" style="stop-color:#150E42"/>
					</linearGradient>
					<path style="fill-rule:evenodd;clip-rule:evenodd;fill:url(#SVGID_00000142141525104088009240000006675014829333069725_);" d="
						M2878.521,2384.675c-6.119-4.051-11.18-8.716-14.245-14.28c-4.792-8.698-9.685-19.055-5.618-28.114
						c2.727-6.075,9.246-10.704,9.265-17.363c0.014-4.899-3.609-9.027-4.819-13.774c-1.91-7.49,2.687-15.463,9.148-19.707
						c6.461-4.243,14.395-5.503,22.089-6.248c3.579-0.347,7.305-0.646,10.41-2.46c3.615-2.112,5.815-5.93,8.596-9.06
						c10.919-12.287,32.824-12.128,43.564,0.315c5.538,6.416,8.544,15.484,16.096,19.329c4.15,2.113,8.985,2.233,13.549,3.157
						c10.509,2.129,19.662,8.601,27.355,16.07c11.51,11.176,20.706,22.828,23.688,38.883c1.582,8.516,1.585,17.235,1.583,25.896
						c-0.002,11.014-0.105,22.48-4.994,32.35c-4.822,9.735-13.89,16.992-18.045,27.03c-1.351,3.263-2.163,6.782-4.053,9.765
						c-1.89,2.983-5.296,5.407-8.765,4.748c-4.166-0.791-6.278-5.29-8.512-8.894c-11.069-17.858-47.979-26.033-66.436-34.907
						C2914.501,2400.739,2893.389,2394.52,2878.521,2384.675z"/>
					
						<linearGradient id="SVGID_00000030481137501341869330000002626382490683735979_" gradientUnits="userSpaceOnUse" x1="-2113.5396" y1="1618.9537" x2="-2134.6094" y2="1450.3933" gradientTransform="matrix(-0.9402 -0.3405 -0.3405 0.9402 1474.4176 218.113)">
						<stop  offset="0" style="stop-color:#FEBBBA"/>
						<stop  offset="1" style="stop-color:#FF928E"/>
					</linearGradient>
					<path style="fill-rule:evenodd;clip-rule:evenodd;fill:url(#SVGID_00000030481137501341869330000002626382490683735979_);" d="
						M2903.973,2335.632c0,0-63.937,96.341,2.123,125.851c62.346,27.852,88.617-36.122,88.617-36.122s27.416-28.405,18.207-50.274
						C3003.711,2353.218,2919.557,2323.661,2903.973,2335.632z"/>
					
						<linearGradient id="SVGID_00000132051862070216529190000009336168867427085206_" gradientUnits="userSpaceOnUse" x1="-2108.1953" y1="1541.1874" x2="-2169.9939" y2="1423.097" gradientTransform="matrix(-0.9402 -0.3405 -0.3405 0.9402 1474.4176 218.113)">
						<stop  offset="0" style="stop-color:#2B3582"/>
						<stop  offset="0.6502" style="stop-color:#150E42"/>
					</linearGradient>
					<path style="fill-rule:evenodd;clip-rule:evenodd;fill:url(#SVGID_00000132051862070216529190000009336168867427085206_);" d="
						M3001.365,2405.842c-3.577-0.781-7.099-3.09-10.165-7.416c-4.543-6.408-5.491-14.636-8.644-21.83
						c-5.065-11.556-15.984-20.088-28.164-23.38c-11.02-2.978-22.657-1.949-34.07-2.196c-15.538-0.335-50.588-11.601-22.145-26.859
						c20.464-10.978,43.971-0.678,64.253,4.955c19.399,5.388,41.912,16.417,54.616,32.766c5.475,7.046,8.763,16.828,6.847,25.735
						C3021.551,2398.5,3011.243,2407.998,3001.365,2405.842z"/>
					
						<linearGradient id="SVGID_00000173152816297175409700000010995349960709944211_" gradientUnits="userSpaceOnUse" x1="-2175.8035" y1="1624.6823" x2="-2196.541" y2="1458.7813" gradientTransform="matrix(-0.9402 -0.3405 -0.3405 0.9402 1474.4176 218.113)">
						<stop  offset="0" style="stop-color:#FEBBBA"/>
						<stop  offset="1" style="stop-color:#FF928E"/>
					</linearGradient>
					<path style="fill-rule:evenodd;clip-rule:evenodd;fill:url(#SVGID_00000173152816297175409700000010995349960709944211_);" d="
						M2986.507,2433.961l11.116-30.559c0,0,21.48-9.87,18.651,6.754C3013.445,2426.782,2994.143,2435.965,2986.507,2433.961z"/>
				</g>
				<g>
					
						<linearGradient id="SVGID_00000166646265103617273040000007749073674609753777_" gradientUnits="userSpaceOnUse" x1="2604.8818" y1="2050.0085" x2="2827" y2="1358.4158">
						<stop  offset="0" style="stop-color:#E1473D"/>
						<stop  offset="1" style="stop-color:#E9605A"/>
					</linearGradient>
					<path style="fill:url(#SVGID_00000166646265103617273040000007749073674609753777_);" d="M2384.863,1717.079
						c14.012-23.137,38.454-38.333,53.198-61.011c18.571-28.567,19.206-66.395,7.039-98.221
						c-10.095-26.407-28.077-49.207-38.373-75.537c-13.856-35.437-14.116-50.681-7.803-86.255
						c5.561-31.335,17.736-64.71,47.815-82.681c37.205-22.229,82.714-26.446,125.3-18.4c44.204,8.351,87.061,27.12,119.399,58.392
						c32.339,31.272,53.42,75.149,52.883,120.132c-0.363,30.434-10.157,61.805-0.404,90.635c7.583,22.419,27.3,40.312,50.346,45.693
						c25.615,5.98,52.237-2.775,78.538-2.432c26.069,0.34,51.921,10.005,71.819,26.852c17.625,14.924,30.687,35.854,33.659,58.756
						c2.972,22.903-5.004,47.542-22.609,62.489c-12.039,10.222-28.981,17.143-33.425,32.298
						c-4.973,16.957,9.622,33.992,25.896,40.877c16.274,6.886,34.586,7.476,51.147,13.64c37.052,13.79,59.5,55.548,56.606,94.976
						c-2.894,39.428-27.838,75.118-60.552,97.317c-32.714,22.199-72.419,32.166-111.823,35.378
						c-39.404,3.211-79.006,0.072-118.496-1.789c-45.17-2.129-91.238-2.723-134.074-17.214
						c-43.317-14.654-80.746-42.687-115.645-72.238c-16.524-13.991-33.283-29.297-40.7-49.639
						c-5.386-14.77-5.41-31.178-11.603-45.628c-13.288-31.009-50.132-44.19-71.442-70.343
						C2369.953,1786.613,2367.145,1746.336,2384.863,1717.079z"/>
					<path style="opacity:0.43;fill:#FFFFFF;" d="M2874.932,1772.806c0.083,0,0.166-0.005,0.251-0.021
						c18.681-3.439,35.146-17.121,41.947-34.85c6.801-17.74,3.708-38.919-7.883-53.966c-17.214-22.347-47.525-28.132-77.096-32.141
						l-53.584-7.268c-30.241-4.1-61.22-9.971-78.611-32.317c-18.55-23.84-14.847-56.403-11.269-87.899
						c0.411-3.605,0.816-7.182,1.184-10.712c4.687-44.992-0.021-84.108-13.997-116.254c-17.052-39.223-48.839-68.08-85.028-77.187
						c-0.741-0.203-1.472,0.256-1.658,0.992c-0.184,0.731,0.262,1.472,0.992,1.653c35.375,8.905,66.472,37.175,83.188,75.63
						c13.786,31.715,18.425,70.367,13.789,114.879c-0.368,3.525-0.773,7.097-1.181,10.691c-3.642,32.041-7.406,65.169,11.826,89.882
						c18.023,23.162,49.599,29.177,80.397,33.352l53.585,7.268c29.009,3.929,58.719,9.571,75.299,31.096
						c11.024,14.311,13.967,34.455,7.5,51.321c-6.468,16.865-22.128,29.876-39.894,33.144c-0.741,0.139-1.232,0.848-1.096,1.589
						C2873.714,1772.347,2874.288,1772.806,2874.932,1772.806z"/>
					<path style="opacity:0.43;fill:#FFFFFF;" d="M2858.03,1756.356c0.669,0,1.341-0.245,1.866-0.735
						c6.55-6.138,13.976-13.096,18.38-21.915c4.001-8.009,5.999-19.894-0.405-29.251c-4.173-6.094-10.99-9.587-17.734-12.456
						c-16.367-6.964-33.565-11.949-51.124-14.807c-11.427-1.866-23.12-2.836-34.429-3.781c-14.602-1.215-29.699-2.474-44.146-5.663
						c-17.276-3.812-48.274-14.263-61.759-41.398c-10.899-21.931-6.852-46.389-2.567-72.281c3.474-20.992,7.065-42.704,2.141-63.334
						c-0.352-1.467-1.829-2.378-3.289-2.021c-1.467,0.352-2.371,1.824-2.021,3.29c4.668,19.558,1.168,40.715-2.218,61.175
						c-4.236,25.61-8.616,52.089,3.066,75.603c14.498,29.172,47.242,40.273,65.469,44.299c14.808,3.268,30.092,4.543,44.872,5.775
						c11.205,0.933,22.789,1.898,34.002,3.722c17.127,2.794,33.904,7.652,49.866,14.444c5.574,2.373,11.818,5.338,15.366,10.515
						c4.175,6.1,4.186,15.415,0.027,23.728c-3.967,7.945-10.709,14.263-17.228,20.369c-1.101,1.034-1.157,2.762-0.125,3.86
						C2856.574,1756.068,2857.302,1756.356,2858.03,1756.356z"/>
					
						<linearGradient id="SVGID_00000012471643157708944920000013785212252090039225_" gradientUnits="userSpaceOnUse" x1="2590.9644" y1="1753.7423" x2="2293.1267" y2="2218.1677">
						<stop  offset="0" style="stop-color:#4F52FF"/>
						<stop  offset="1" style="stop-color:#4042E2"/>
					</linearGradient>
					<path style="fill:url(#SVGID_00000012471643157708944920000013785212252090039225_);" d="M2423.897,1664.323
						c25.513-8.099,99.931-23.492,171.99,40.888c12.221,10.919,17.414,27.726,13.374,43.608
						c-17.94,70.517-64.915,278.758-19.351,367.799c0,0-76.366,86.958-162.299,19.247c0,0-40.729-165.25-91.747-237.261
						c-35.223-49.715,51.834-189.655,73.886-223.48C2413.089,1670.002,2418.07,1666.172,2423.897,1664.323z"/>
					
						<linearGradient id="SVGID_00000096756598011586810020000001460060256633453226_" gradientUnits="userSpaceOnUse" x1="-7121.6401" y1="3054.7954" x2="-7101.1182" y2="2909.0889" gradientTransform="matrix(0.9646 0.2639 -0.2639 0.9646 10111.1621 665.1306)">
						<stop  offset="0" style="stop-color:#FEBBBA"/>
						<stop  offset="1" style="stop-color:#FF928E"/>
					</linearGradient>
					<path style="fill:url(#SVGID_00000096756598011586810020000001460060256633453226_);" d="M2492.436,1523.694
						c0,0,39.643,106.636,43.258,153.903c0,0-41.598,19.73-81.602-11.796c0,0-5.868-107.055-12.164-126.14L2492.436,1523.694z"/>
					
						<linearGradient id="SVGID_00000098186505844759221420000010570192311045358766_" gradientUnits="userSpaceOnUse" x1="-7215.7241" y1="2742.5874" x2="-7023.8384" y2="2963.2048" gradientTransform="matrix(0.9646 0.2639 -0.2639 0.9646 10111.1621 665.1306)">
						<stop  offset="0" style="stop-color:#FEBBBA"/>
						<stop  offset="1" style="stop-color:#FF928E"/>
					</linearGradient>
					<path style="fill:url(#SVGID_00000098186505844759221420000010570192311045358766_);" d="M2437.415,1378.314
						c0,0-96.935,140.381-37.004,179.738c59.93,39.356,128.938-60.407,128.938-60.407s21.787-76.333-2.689-101.713
						C2502.183,1370.549,2437.415,1378.314,2437.415,1378.314z"/>
					
						<linearGradient id="SVGID_00000137115415924985442870000005898530131710277017_" gradientUnits="userSpaceOnUse" x1="2318.636" y1="1958.0753" x2="2540.7534" y2="1266.485">
						<stop  offset="0" style="stop-color:#E1473D"/>
						<stop  offset="1" style="stop-color:#E9605A"/>
					</linearGradient>
					<path style="fill:url(#SVGID_00000137115415924985442870000005898530131710277017_);" d="M2482.783,1344.409
						c0,0-45.384,11.529-51.437,32.244c-6.053,20.717,65.246,38.689,85.152,39.303l17.368,82.923c0,0,46.119-79.014,26.622-123.903
						C2540.994,1330.086,2482.783,1344.409,2482.783,1344.409z"/>
					
						<linearGradient id="SVGID_00000072967244217900934020000005704226297839216817_" gradientUnits="userSpaceOnUse" x1="-7167.7832" y1="2700.8857" x2="-6975.8989" y2="2921.5015" gradientTransform="matrix(0.9646 0.2639 -0.2639 0.9646 10111.1621 665.1306)">
						<stop  offset="0" style="stop-color:#FEBBBA"/>
						<stop  offset="1" style="stop-color:#FF928E"/>
					</linearGradient>
					<path style="fill:url(#SVGID_00000072967244217900934020000005704226297839216817_);" d="M2509.959,1487.741
						c0,0,37.88-45.325,53.703-16.429c15.823,28.897-33.923,51.583-51.496,37.554L2509.959,1487.741z"/>
					
						<linearGradient id="SVGID_00000013171029349956480620000013806831374604181393_" gradientUnits="userSpaceOnUse" x1="6425.9834" y1="3416.6763" x2="6883.8018" y2="2608.5283" gradientTransform="matrix(-1 0.0066 0.0066 1 9204.791 -61.4477)">
						<stop  offset="0" style="stop-color:#FEBBBA"/>
						<stop  offset="1" style="stop-color:#FF928E"/>
					</linearGradient>
					<path style="fill:url(#SVGID_00000013171029349956480620000013806831374604181393_);" d="M2334.203,2485.704
						c0.412,7.525-11.846,67.464-18.528,99.438c-2.689,12.864-0.456,26.247,6.254,37.547l255.928,415.357
						c3.096,5.024,5.379,10.484,6.805,16.21c4.884,19.607,15.131,67.685,10.893,111.643l-12.459,26.979l55.544-13.556l9.718-149.906
						l-15.938-9.369c-13.768-8.094-24.585-20.35-30.901-35.019c-23.413-54.366-81.608-192.78-97.125-260.442
						c-17.633-76.898-104.329-138.19-104.329-138.19l14.48-35.832L2334.203,2485.704z"/>
					
						<linearGradient id="SVGID_00000137815259881471929540000008274075757941666957_" gradientUnits="userSpaceOnUse" x1="6539.9546" y1="3852.7949" x2="6459.5303" y2="4878.21" gradientTransform="matrix(-1 0.0066 0.0066 1 9204.791 -61.4477)">
						<stop  offset="0" style="stop-color:#4F52FF"/>
						<stop  offset="1" style="stop-color:#4042E2"/>
					</linearGradient>
					<path style="fill:url(#SVGID_00000137815259881471929540000008274075757941666957_);" d="M2699.767,3126.809
						c0,0-30.873-47.244-34.714-65.766c-3.841-18.521-14.23-51.171-32.631-40.995c0,0-7.293,90.391-3.709,125.607
						c3.583,35.216-39.316,34.773-39.316,34.773s-11.791,1.852-20.306,10.643c-5.88,6.071-1.439,16.368,7.002,16.776
						c14.046,0.678,36.339,0.556,59.669-4.344c8.154-1.712,14.105-8.769,14.466-17.093l4.505-103.971l38.747,47.338
						L2699.767,3126.809z"/>
					
						<linearGradient id="SVGID_00000033342354717078876660000002633366040959170195_" gradientUnits="userSpaceOnUse" x1="2623.2332" y1="2743.3511" x2="3286.2495" y2="2147.6453">
						<stop  offset="0" style="stop-color:#FEBBBA"/>
						<stop  offset="1" style="stop-color:#FF928E"/>
					</linearGradient>
					<path style="fill:url(#SVGID_00000033342354717078876660000002633366040959170195_);" d="M2484.131,2550.109
						c0,0,14.83,374.982,16.879,428.24c2.048,53.258-5.653,171.481-58.493,207.632l23.517,16.832c0,0,28.646-25.153,56.256-73.119
						c31.015-53.883,40.496-63.789,40.496-63.789l-10.925-21.49c-4.784-9.409-6.317-20.115-4.352-30.485
						c10.625-56.046,46.136-242.467,55.995-282.649c11.637-47.432,11.502-110.521-32.48-162.624
						C2527.041,2516.555,2484.131,2550.109,2484.131,2550.109z"/>
					
						<linearGradient id="SVGID_00000148663474057840886970000016136790052286950034_" gradientUnits="userSpaceOnUse" x1="6674.5879" y1="3863.3555" x2="6594.1631" y2="4888.7705" gradientTransform="matrix(-1 0.0066 0.0066 1 9204.791 -61.4477)">
						<stop  offset="0" style="stop-color:#4F52FF"/>
						<stop  offset="1" style="stop-color:#4042E2"/>
					</linearGradient>
					<path style="fill:url(#SVGID_00000148663474057840886970000016136790052286950034_);" d="M2544.229,3218.464
						c1.657-0.011,3.046-1.22,3.253-2.865c1.577-12.534,8.166-62.792,14.013-75.872c6.696-14.979,28.343-77.924-1.346-82.76
						c0,0-71.864,108.709-85.758,123.434c-13.894,14.726-31.875,5.58-31.875,5.58s-13.699,4.288-23.866,17.721
						c-4.838,6.393-0.087,15.587,7.931,15.534l49.579-0.326c14.399-0.094,27.206-9.048,32.343-22.5
						c8.375-21.935,22.849-54.145,40.091-68.608l-7.677,87.067C2540.745,3216.81,2542.281,3218.477,2544.229,3218.464
						L2544.229,3218.464z"/>
					
						<linearGradient id="SVGID_00000059294020872849346150000003320287804668165782_" gradientUnits="userSpaceOnUse" x1="3436.8962" y1="1307.7977" x2="2952.2542" y2="1853.0209">
						<stop  offset="0" style="stop-color:#4F52FF"/>
						<stop  offset="1" style="stop-color:#4042E2"/>
					</linearGradient>
					<path style="fill:url(#SVGID_00000059294020872849346150000003320287804668165782_);" d="M2415.225,2095.607
						c0,0,11.744,35.425-4.472,94.347l-100.47,373.473c-1.578,5.868,1.672,11.931,7.425,13.892
						c32.027,10.916,137.229,41.532,279.968,29.38c7.187-0.612,13.137-5.803,14.588-12.869
						c8.733-42.533,38.53-187.653,44.667-217.47c23.38-113.619,49.556-236.162-75.436-307.993
						C2524.831,2093.723,2471.848,2108.985,2415.225,2095.607z"/>
					
						<linearGradient id="SVGID_00000059304559071895280340000017685781667782370973_" gradientUnits="userSpaceOnUse" x1="2666.24" y1="1614.0573" x2="2595.8818" y2="2614.0042">
						<stop  offset="0" style="stop-color:#FEBBBA"/>
						<stop  offset="1" style="stop-color:#FF928E"/>
					</linearGradient>
					<path style="fill:url(#SVGID_00000059304559071895280340000017685781667782370973_);" d="M2554.981,1772.805l121.506,261.732
						l12.426,221.407l25.784-10.331c18.277-84.217,24.793-167.397,18.597-249.454c-15.322-101.224-66.99-190.535-127.023-277.104
						C2564.538,1689.521,2550.812,1713.93,2554.981,1772.805z"/>
					
						<linearGradient id="SVGID_00000099641153740243463760000004941474094427506587_" gradientUnits="userSpaceOnUse" x1="2742.1687" y1="1590.6165" x2="2671.8105" y2="2590.5642">
						<stop  offset="0" style="stop-color:#FEBBBA"/>
						<stop  offset="1" style="stop-color:#FF928E"/>
					</linearGradient>
					<path style="fill:url(#SVGID_00000099641153740243463760000004941474094427506587_);" d="M2687.079,2194.487
						c-16.913,22.753-27.556,43.966-32.279,63.728c8.139,18.203,24.785,35.3,44.967,51.938
						c24.102-20.276,37.451-39.67,35.806-57.833l-14.318-68.446L2687.079,2194.487z"/>
				</g>
			</g>
		</g>
	</g>
</g>
</svg>
