<?xml version="1.0" ?><svg style="enable-background:new 0 0 128 128;" version="1.1" viewBox="0 0 128 128" xml:space="preserve" xmlns="http://www.w3.org/2000/svg" xmlns:xlink="http://www.w3.org/1999/xlink"><style type="text/css">
	.st0{fill:none;stroke:#000000;stroke-width:8;stroke-miterlimit:10;}
	.st1{display:none;}
	.st2{display:inline;opacity:0.25;fill:#F45EFD;}
</style><g id="_x31_2_3D_Printing"><polyline class="st0" points="80,56 64,72 48,56  "/><g><polygon class="st0" points="64,112 48,96 48,56 64,40 80,56 80,96   "/><line class="st0" x1="64" x2="64" y1="72" y2="112"/></g><polyline class="st0" points="64,40 64,32 40,32 40,20 76,20 76,8  "/><line class="st0" x1="32" x2="48" y1="56" y2="56"/><line class="st0" x1="80" x2="96" y1="56" y2="56"/><line class="st0" x1="84" x2="84" y1="96" y2="96"/><line class="st0" x1="80" x2="96" y1="96" y2="96"/><line class="st0" x1="32" x2="48" y1="96" y2="96"/><polyline class="st0" points="96,44 96,96 112,112 112,116 16,116 16,112 32,96 32,44  "/></g><g id="_x31_1_VR_Gear"/><g id="_x31_0_Virtual_reality"/><g id="_x39__Augmented_reality"/><g id="_x38__Teleport"/><g id="_x37__Glassess"/><g id="_x36__Folding_phone"/><g id="_x35__Drone"/><g id="_x34__Retina_scan"/><g id="_x33__Smartwatch"/><g id="_x32__Bionic_Arm"/><g id="_x31__Chip"/><g class="st1" id="Guide"><path class="st2" d="M120,8v112H8V8H120 M128,0H0v128h128V0L128,0z"/></g></svg>