<?xml version="1.0" ?><svg enable-background="new 0 0 52 52" id="Layer_1" version="1.1" viewBox="0 0 52 52" xml:space="preserve" xmlns="http://www.w3.org/2000/svg" xmlns:xlink="http://www.w3.org/1999/xlink"><g><g><path d="M11.6194534,24.0514202c8.3367634-0.0015907,16.6880531-0.148035,25.0233498-0.0016098    c4.3655128,0.0766888,6.2075272,0.7953491,6.4468346,5.7204075c0.0908813,1.8703613,0.0190239,3.7633171,0.0284882,5.6349945    c0.022728,4.4963875,1.680481,11.3671646-4.0225716,12.6197319c-3.6178627,0.7945938-8.0625248,0.100811-11.7690239,0.0853767    c-4.0506115-0.0168724-8.0979919,0.0209732-12.1477242,0.1062279c-6.9924603,0.1472092-6.4026642-6.0742302-6.3973236-10.9053001    c0.0037117-3.3576508-1.6921172-13.0284843,3.1101685-13.5621395c1.5813999-0.1757336,1.5992756-2.6777191,0-2.5    c-4.6402087,0.5156441-5.4574428,2.4256001-5.599997,6.8608303c-0.1180091,3.6715794-0.0081449,7.368103-0.0122056,11.0415726    c-0.0026073,2.3588524-0.3897758,5.3124886,0.4319086,7.6163712c1.5149708,4.2477646,5.5753307,3.9972382,9.4015942,3.9221153    c7.4273357-0.1458206,15.1238613,0.6060982,22.511488-0.0712967c4.0060196-0.3673248,6.4114876-2.0873222,6.9843102-6.1383858    c0.4506493-3.1870728,0.0208588-6.8035965,0.0046272-10.0142708c-0.0144615-2.8612118,0.4448013-6.3652344-0.6093254-9.118618    c-1.5895576-4.1519203-5.5162926-3.7974396-9.3236847-3.7976761c-8.0203037-0.0004997-16.0406094,0.0001392-24.0609131,0.0016689    C10.0108356,21.5517273,10.0081453,24.0517273,11.6194534,24.0514202L11.6194534,24.0514202z"/></g><g><path d="M13.9286633,15.7175255c-0.2213478-4.0918636,2.0885868-7.3982916,5.0779419-9.9912891    c3.3059902-2.8676512,7.1932087-2.3000314,11.1111088-1.2899218c5.2159653,1.3447757,7.5086174,4.3206029,7.7635918,9.6944599    c0.118412,2.4955864,0.0457153,4.8976154,0.3954239,7.3777847c0.2236977,1.5865097,2.6329269,0.911499,2.4106979-0.6645985    c-0.665741-4.7215366,0.5993042-10.2179594-2.2799225-14.4038534c-2.4337883-3.538305-7.0707607-4.4935279-11.0510311-5.1728301    C19.0691242-0.1471044,10.9736252,7.305624,11.4286633,15.7175255    C11.5152254,17.3177242,14.0157738,17.3278713,13.9286633,15.7175255L13.9286633,15.7175255z"/></g><g><path d="M38.0375977,21.4671364c0,0.2222214,0,0.4444447,0,0.666666c0,1.6086311,2.5,1.6112957,2.5,0    c0-0.2222214,0-0.4444447,0-0.666666C40.5375977,19.8585052,38.0375977,19.8558407,38.0375977,21.4671364L38.0375977,21.4671364z"/></g><g><path d="M26.7103977,32.459095c0.5213852,0.5912018,1.1481152,2.2405472,0.1631527,2.6784019    c-0.8075352,0.3589821-2.4889755,0.2311401-2.8338184-0.6663055c-0.1650562-0.4295502-0.1567707-0.9477386-0.1680889-1.3996735    c-0.0063381-0.2531586-0.0660038-0.7113266,0.0106907-0.9724579c0.0608616-0.2072296-0.2575169,0.0958061,0.0245132,0.0232086    c0.8718529-0.2244186,2.410162-0.2479362,3.1304722,0.293335c1.2865372,0.9667549,2.5339127-1.2027588,1.261797-2.1586781    c-0.9622135-0.7230473-2.1375179-0.7311954-3.2927246-0.698c-1.0022812,0.0288029-2.1530571,0.0136528-2.929163,0.760067    c-0.8390465,0.8069458-0.7527027,2.1238365-0.6891327,3.1872826c0.067255,1.1250343,0.2778664,2.3096275,1.0993996,3.1464615    c1.3940868,1.4200516,4.8744106,1.6041451,6.3505116,0.1997833c1.7435627-1.6588249,1.0533161-4.5588036-0.3598423-6.1611919    C27.4118938,29.4822769,25.6493511,31.2559681,26.7103977,32.459095L26.7103977,32.459095z"/></g><g><path d="M24.3709316,37.5504684c0,1.1944466,0,2.3888893,0,3.5833359c0,1.6086273,2.5,1.6112938,2.5,0    c0-1.1944466,0-2.3888893,0-3.5833359C26.8709316,35.9418373,24.3709316,35.9391747,24.3709316,37.5504684L24.3709316,37.5504684z    "/></g></g></svg>