<?xml version="1.0" ?><svg viewBox="0 0 64 64" xmlns="http://www.w3.org/2000/svg"><g data-name="Layer 32" id="Layer_32"><path d="M46,29a16.915,16.915,0,0,0-6.63,1.347A6.07,6.07,0,0,0,38.47,29a5.992,5.992,0,0,0,0-8,5.991,5.991,0,0,0-.486-8.483c.011-.165.017-.337.017-.517a7.98,7.98,0,0,0-6.1-7.768A7.026,7.026,0,0,0,26,1a6.946,6.946,0,0,0-4,1.262A6.946,6.946,0,0,0,18,1a7.026,7.026,0,0,0-5.9,3.232A7.98,7.98,0,0,0,6,12c0,.18.006.352.017.517A5.991,5.991,0,0,0,5.531,21a5.991,5.991,0,0,0,0,8A6.036,6.036,0,0,0,4,33a5.969,5.969,0,0,0,.854,3.065A8.245,8.245,0,0,0,1,43V57a1,1,0,0,0,1,1H33.971A17,17,0,1,0,46,29ZM7.6,28.2a4,4,0,0,1,0-6.4,1,1,0,0,0,0-1.6A4.027,4.027,0,0,1,6,17a3.971,3.971,0,0,1,1.659-3.241,1,1,0,0,0,.4-.97A4.8,4.8,0,0,1,8,12a5.98,5.98,0,0,1,4.908-5.9,1,1,0,0,0,.7-.5A5.032,5.032,0,0,1,18,3a4.946,4.946,0,0,1,3.328,1.281,1,1,0,0,0,1.344,0A4.946,4.946,0,0,1,26,3,5.032,5.032,0,0,1,30.4,5.6a1,1,0,0,0,.7.5A5.98,5.98,0,0,1,36,12a4.8,4.8,0,0,1-.058.789,1,1,0,0,0,.4.97A3.971,3.971,0,0,1,38,17a4.027,4.027,0,0,1-1.6,3.2,1,1,0,0,0,0,1.6,4,4,0,0,1,0,6.4,1,1,0,0,0,0,1.6,4.037,4.037,0,0,1,1.189,1.448,17.114,17.114,0,0,0-3.557,2.7L27,31.308V28.471A9.1,9.1,0,0,0,30.83,23H31a3.992,3.992,0,0,0,.99-7.861A1,1,0,0,0,31,14H29.385a6.919,6.919,0,0,1-6.456-4.372,1,1,0,0,0-1.858,0A6.919,6.919,0,0,1,14.615,14H13a1,1,0,0,0-.99,1.139A3.992,3.992,0,0,0,13,23h.17A9.1,9.1,0,0,0,17,28.471v2.837L6.659,35.185A3.976,3.976,0,0,1,6,33a4.027,4.027,0,0,1,1.6-3.2,1,1,0,0,0,0-1.6ZM29.285,49.026,25.412,56h-1.12l5.57-21.483,2.757,1.034a16.747,16.747,0,0,0-3.334,13.475ZM13,42H11.166l1.039-6.758,1.933-.725L19.708,56h-1.12L14,47.741V43A1,1,0,0,0,13,42Zm9-14a7.106,7.106,0,0,1-7-6.071L14.153,16h.462A8.9,8.9,0,0,0,22,12.115,8.9,8.9,0,0,0,29.385,16h.462L29,21.929A7.106,7.106,0,0,1,22,28Zm-3,4V29.476a8.85,8.85,0,0,0,6,0V32a1,1,0,0,0,.648.937l2.331.874L26.374,40H17.626l-1.605-6.189,2.331-.874A1,1,0,0,0,19,32Zm-.856,10h7.712l-3.63,14h-.452ZM33,19a2,2,0,0,1-1.844,1.984l.55-3.849A2,2,0,0,1,33,19ZM12.294,17.135l.55,3.849a1.99,1.99,0,0,1-.55-3.849ZM3,43a6.241,6.241,0,0,1,4.033-5.819l3.025-1.134-1.046,6.8A1,1,0,0,0,10,44h2v4a1,1,0,0,0,.126.486L16.3,56H3ZM27.7,56l2.338-4.209A16.948,16.948,0,0,0,32.283,56ZM46,61A15,15,0,1,1,61,46,15.017,15.017,0,0,1,46,61Z"/><path d="M55,41H51V38a1,1,0,0,0-1-1H42a1,1,0,0,0-1,1v3H37a1,1,0,0,0-1,1V54a1,1,0,0,0,1,1H55a1,1,0,0,0,1-1V42A1,1,0,0,0,55,41ZM40.566,46l-1.8-3H53.234l-1.8,3ZM43,39h6v2H43ZM38,53V45.61l1.143,1.905A1,1,0,0,0,40,48h5v2h2V48h5a1,1,0,0,0,.857-.485L54,45.61V53Z"/></g></svg>